<svg xmlns="http://www.w3.org/2000/svg" viewBox="0 0 1500 600" width="1500" height="600">
  <defs>
    <style>
      .title {
        font-family: "Helvetica Neue", "HelveticaNeue-CondensedBold", "Arial Narrow", "Impact", sans-serif;
        font-weight: 900;
        font-stretch: condensed;
        letter-spacing: -0.02em;
      }
    </style>
  </defs>

  <!-- Fond -->
  <rect width="1500" height="600" fill="#C73E3A"/>

  <!-- Grain sérigraphique -->
  <g>
    <rect x="1026" y="444" width="2" height="2" fill="#F4EFE6" opacity="0.080"/>
    <rect x="1433" y="296" width="2" height="2" fill="#F4EFE6" opacity="0.067"/>
    <rect x="350" y="95" width="1" height="1" fill="#F4EFE6" opacity="0.084"/>
    <rect x="722" y="559" width="2" height="2" fill="#F4EFE6" opacity="0.063"/>
    <rect x="1023" y="577" width="1" height="1" fill="#F4EFE6" opacity="0.047"/>
    <rect x="1223" y="99" width="1" height="1" fill="#F4EFE6" opacity="0.066"/>
    <rect x="764" y="176" width="2" height="2" fill="#F4EFE6" opacity="0.071"/>
    <rect x="102" y="250" width="1" height="1" fill="#F4EFE6" opacity="0.070"/>
    <rect x="1346" y="529" width="2" height="2" fill="#F4EFE6" opacity="0.098"/>
    <rect x="252" y="263" width="1" height="1" fill="#F4EFE6" opacity="0.094"/>
    <rect x="237" y="126" width="1" height="1" fill="#F4EFE6" opacity="0.081"/>
    <rect x="1047" y="274" width="1" height="1" fill="#F4EFE6" opacity="0.077"/>
    <rect x="702" y="165" width="1" height="1" fill="#F4EFE6" opacity="0.056"/>
    <rect x="973" y="205" width="1" height="1" fill="#F4EFE6" opacity="0.066"/>
    <rect x="1239" y="364" width="1" height="1" fill="#F4EFE6" opacity="0.085"/>
    <rect x="72" y="2" width="1" height="1" fill="#F4EFE6" opacity="0.048"/>
    <rect x="343" y="249" width="2" height="2" fill="#F4EFE6" opacity="0.069"/>
    <rect x="555" y="229" width="1" height="1" fill="#F4EFE6" opacity="0.051"/>
    <rect x="746" y="185" width="1" height="1" fill="#F4EFE6" opacity="0.053"/>
    <rect x="709" y="296" width="1" height="1" fill="#F4EFE6" opacity="0.065"/>
    <rect x="774" y="577" width="1" height="1" fill="#F4EFE6" opacity="0.097"/>
    <rect x="948" y="492" width="1" height="1" fill="#F4EFE6" opacity="0.043"/>
    <rect x="1301" y="480" width="1" height="1" fill="#F4EFE6" opacity="0.085"/>
    <rect x="4" y="353" width="1" height="1" fill="#F4EFE6" opacity="0.048"/>
    <rect x="815" y="490" width="1" height="1" fill="#F4EFE6" opacity="0.086"/>
    <rect x="361" y="328" width="1" height="1" fill="#F4EFE6" opacity="0.042"/>
    <rect x="46" y="492" width="1" height="1" fill="#F4EFE6" opacity="0.042"/>
    <rect x="1086" y="473" width="2" height="2" fill="#F4EFE6" opacity="0.093"/>
    <rect x="1015" y="134" width="1" height="1" fill="#F4EFE6" opacity="0.066"/>
    <rect x="1215" y="218" width="1" height="1" fill="#F4EFE6" opacity="0.075"/>
    <rect x="817" y="209" width="1" height="1" fill="#F4EFE6" opacity="0.055"/>
    <rect x="1489" y="73" width="1" height="1" fill="#F4EFE6" opacity="0.093"/>
    <rect x="1010" y="279" width="2" height="2" fill="#F4EFE6" opacity="0.056"/>
    <rect x="1438" y="205" width="1" height="1" fill="#F4EFE6" opacity="0.070"/>
    <rect x="40" y="412" width="2" height="2" fill="#F4EFE6" opacity="0.090"/>
    <rect x="727" y="234" width="1" height="1" fill="#F4EFE6" opacity="0.040"/>
    <rect x="791" y="20" width="1" height="1" fill="#F4EFE6" opacity="0.067"/>
    <rect x="1316" y="559" width="2" height="2" fill="#F4EFE6" opacity="0.086"/>
    <rect x="445" y="101" width="1" height="1" fill="#F4EFE6" opacity="0.080"/>
    <rect x="857" y="252" width="1" height="1" fill="#F4EFE6" opacity="0.098"/>
    <rect x="1407" y="454" width="1" height="1" fill="#F4EFE6" opacity="0.100"/>
    <rect x="1221" y="281" width="1" height="1" fill="#F4EFE6" opacity="0.073"/>
    <rect x="342" y="411" width="1" height="1" fill="#F4EFE6" opacity="0.062"/>
    <rect x="442" y="145" width="2" height="2" fill="#F4EFE6" opacity="0.066"/>
    <rect x="680" y="411" width="1" height="1" fill="#F4EFE6" opacity="0.064"/>
    <rect x="1263" y="197" width="2" height="2" fill="#F4EFE6" opacity="0.091"/>
    <rect x="864" y="80" width="1" height="1" fill="#F4EFE6" opacity="0.064"/>
    <rect x="172" y="290" width="1" height="1" fill="#F4EFE6" opacity="0.073"/>
    <rect x="84" y="138" width="1" height="1" fill="#F4EFE6" opacity="0.080"/>
    <rect x="1039" y="6" width="1" height="1" fill="#F4EFE6" opacity="0.098"/>
    <rect x="3" y="374" width="1" height="1" fill="#F4EFE6" opacity="0.099"/>
    <rect x="1029" y="248" width="1" height="1" fill="#F4EFE6" opacity="0.042"/>
    <rect x="83" y="331" width="1" height="1" fill="#F4EFE6" opacity="0.071"/>
    <rect x="1240" y="256" width="1" height="1" fill="#F4EFE6" opacity="0.074"/>
    <rect x="1062" y="129" width="2" height="2" fill="#F4EFE6" opacity="0.069"/>
    <rect x="375" y="237" width="2" height="2" fill="#F4EFE6" opacity="0.088"/>
    <rect x="555" y="151" width="1" height="1" fill="#F4EFE6" opacity="0.100"/>
    <rect x="465" y="39" width="2" height="2" fill="#F4EFE6" opacity="0.098"/>
    <rect x="1241" y="255" width="2" height="2" fill="#F4EFE6" opacity="0.043"/>
    <rect x="273" y="242" width="1" height="1" fill="#F4EFE6" opacity="0.048"/>
    <rect x="847" y="289" width="1" height="1" fill="#F4EFE6" opacity="0.044"/>
    <rect x="564" y="82" width="1" height="1" fill="#F4EFE6" opacity="0.053"/>
    <rect x="117" y="49" width="2" height="2" fill="#F4EFE6" opacity="0.058"/>
    <rect x="700" y="114" width="2" height="2" fill="#F4EFE6" opacity="0.070"/>
    <rect x="1128" y="410" width="1" height="1" fill="#F4EFE6" opacity="0.048"/>
    <rect x="165" y="216" width="1" height="1" fill="#F4EFE6" opacity="0.066"/>
    <rect x="213" y="255" width="2" height="2" fill="#F4EFE6" opacity="0.078"/>
    <rect x="746" y="22" width="2" height="2" fill="#F4EFE6" opacity="0.043"/>
    <rect x="1459" y="94" width="1" height="1" fill="#F4EFE6" opacity="0.084"/>
    <rect x="842" y="528" width="1" height="1" fill="#F4EFE6" opacity="0.064"/>
    <rect x="690" y="342" width="1" height="1" fill="#F4EFE6" opacity="0.041"/>
    <rect x="1390" y="499" width="2" height="2" fill="#F4EFE6" opacity="0.043"/>
    <rect x="198" y="83" width="1" height="1" fill="#F4EFE6" opacity="0.070"/>
    <rect x="427" y="355" width="1" height="1" fill="#F4EFE6" opacity="0.041"/>
    <rect x="1447" y="544" width="1" height="1" fill="#F4EFE6" opacity="0.086"/>
    <rect x="1254" y="220" width="2" height="2" fill="#F4EFE6" opacity="0.048"/>
    <rect x="126" y="378" width="1" height="1" fill="#F4EFE6" opacity="0.041"/>
    <rect x="70" y="56" width="1" height="1" fill="#F4EFE6" opacity="0.090"/>
    <rect x="1192" y="257" width="2" height="2" fill="#F4EFE6" opacity="0.088"/>
    <rect x="800" y="387" width="1" height="1" fill="#F4EFE6" opacity="0.080"/>
    <rect x="1474" y="276" width="2" height="2" fill="#F4EFE6" opacity="0.042"/>
    <rect x="649" y="506" width="1" height="1" fill="#F4EFE6" opacity="0.073"/>
    <rect x="736" y="458" width="1" height="1" fill="#F4EFE6" opacity="0.091"/>
    <rect x="1064" y="533" width="1" height="1" fill="#F4EFE6" opacity="0.074"/>
    <rect x="1400" y="185" width="2" height="2" fill="#F4EFE6" opacity="0.091"/>
    <rect x="1342" y="389" width="1" height="1" fill="#F4EFE6" opacity="0.057"/>
    <rect x="1317" y="231" width="1" height="1" fill="#F4EFE6" opacity="0.044"/>
    <rect x="1487" y="507" width="1" height="1" fill="#F4EFE6" opacity="0.071"/>
    <rect x="507" y="458" width="1" height="1" fill="#F4EFE6" opacity="0.090"/>
    <rect x="757" y="183" width="2" height="2" fill="#F4EFE6" opacity="0.087"/>
    <rect x="323" y="407" width="2" height="2" fill="#F4EFE6" opacity="0.067"/>
    <rect x="1353" y="29" width="1" height="1" fill="#F4EFE6" opacity="0.099"/>
    <rect x="872" y="217" width="1" height="1" fill="#F4EFE6" opacity="0.041"/>
    <rect x="442" y="404" width="1" height="1" fill="#F4EFE6" opacity="0.059"/>
    <rect x="1354" y="124" width="1" height="1" fill="#F4EFE6" opacity="0.086"/>
    <rect x="1169" y="370" width="1" height="1" fill="#F4EFE6" opacity="0.049"/>
    <rect x="422" y="452" width="1" height="1" fill="#F4EFE6" opacity="0.045"/>
    <rect x="721" y="182" width="1" height="1" fill="#F4EFE6" opacity="0.098"/>
    <rect x="1329" y="433" width="1" height="1" fill="#F4EFE6" opacity="0.042"/>
    <rect x="332" y="161" width="1" height="1" fill="#F4EFE6" opacity="0.099"/>
    <rect x="1312" y="223" width="1" height="1" fill="#F4EFE6" opacity="0.096"/>
    <rect x="392" y="458" width="2" height="2" fill="#F4EFE6" opacity="0.070"/>
    <rect x="1349" y="337" width="1" height="1" fill="#F4EFE6" opacity="0.071"/>
    <rect x="1022" y="564" width="2" height="2" fill="#F4EFE6" opacity="0.054"/>
    <rect x="175" y="370" width="1" height="1" fill="#F4EFE6" opacity="0.042"/>
    <rect x="1390" y="417" width="1" height="1" fill="#F4EFE6" opacity="0.047"/>
    <rect x="253" y="18" width="1" height="1" fill="#F4EFE6" opacity="0.065"/>
    <rect x="1299" y="565" width="2" height="2" fill="#F4EFE6" opacity="0.056"/>
    <rect x="969" y="202" width="1" height="1" fill="#F4EFE6" opacity="0.088"/>
    <rect x="169" y="220" width="2" height="2" fill="#F4EFE6" opacity="0.088"/>
    <rect x="1497" y="140" width="2" height="2" fill="#F4EFE6" opacity="0.083"/>
    <rect x="945" y="425" width="2" height="2" fill="#F4EFE6" opacity="0.067"/>
    <rect x="1480" y="169" width="1" height="1" fill="#F4EFE6" opacity="0.051"/>
    <rect x="483" y="442" width="1" height="1" fill="#F4EFE6" opacity="0.044"/>
    <rect x="278" y="95" width="1" height="1" fill="#F4EFE6" opacity="0.092"/>
    <rect x="846" y="7" width="1" height="1" fill="#F4EFE6" opacity="0.090"/>
    <rect x="1418" y="176" width="2" height="2" fill="#F4EFE6" opacity="0.045"/>
    <rect x="1488" y="142" width="1" height="1" fill="#F4EFE6" opacity="0.045"/>
    <rect x="794" y="34" width="1" height="1" fill="#F4EFE6" opacity="0.069"/>
    <rect x="385" y="89" width="1" height="1" fill="#F4EFE6" opacity="0.066"/>
    <rect x="1283" y="83" width="1" height="1" fill="#F4EFE6" opacity="0.051"/>
    <rect x="1062" y="349" width="1" height="1" fill="#F4EFE6" opacity="0.092"/>
    <rect x="1066" y="53" width="1" height="1" fill="#F4EFE6" opacity="0.074"/>
    <rect x="1208" y="356" width="1" height="1" fill="#F4EFE6" opacity="0.100"/>
    <rect x="21" y="79" width="2" height="2" fill="#F4EFE6" opacity="0.057"/>
    <rect x="22" y="97" width="1" height="1" fill="#F4EFE6" opacity="0.079"/>
    <rect x="836" y="370" width="1" height="1" fill="#F4EFE6" opacity="0.095"/>
    <rect x="324" y="557" width="1" height="1" fill="#F4EFE6" opacity="0.057"/>
    <rect x="756" y="281" width="2" height="2" fill="#F4EFE6" opacity="0.058"/>
    <rect x="608" y="437" width="1" height="1" fill="#F4EFE6" opacity="0.072"/>
    <rect x="336" y="507" width="2" height="2" fill="#F4EFE6" opacity="0.084"/>
    <rect x="1193" y="558" width="2" height="2" fill="#F4EFE6" opacity="0.088"/>
    <rect x="1182" y="269" width="1" height="1" fill="#F4EFE6" opacity="0.072"/>
    <rect x="1223" y="51" width="1" height="1" fill="#F4EFE6" opacity="0.091"/>
    <rect x="535" y="496" width="1" height="1" fill="#F4EFE6" opacity="0.052"/>
    <rect x="187" y="544" width="1" height="1" fill="#F4EFE6" opacity="0.093"/>
    <rect x="72" y="575" width="1" height="1" fill="#F4EFE6" opacity="0.056"/>
    <rect x="397" y="502" width="1" height="1" fill="#F4EFE6" opacity="0.073"/>
    <rect x="1334" y="139" width="2" height="2" fill="#F4EFE6" opacity="0.078"/>
    <rect x="57" y="393" width="1" height="1" fill="#F4EFE6" opacity="0.044"/>
    <rect x="1096" y="295" width="1" height="1" fill="#F4EFE6" opacity="0.066"/>
    <rect x="150" y="564" width="2" height="2" fill="#F4EFE6" opacity="0.080"/>
    <rect x="468" y="230" width="2" height="2" fill="#F4EFE6" opacity="0.041"/>
    <rect x="864" y="378" width="1" height="1" fill="#F4EFE6" opacity="0.077"/>
    <rect x="262" y="24" width="1" height="1" fill="#F4EFE6" opacity="0.056"/>
    <rect x="1162" y="152" width="1" height="1" fill="#F4EFE6" opacity="0.082"/>
    <rect x="1443" y="509" width="1" height="1" fill="#F4EFE6" opacity="0.045"/>
    <rect x="1019" y="512" width="1" height="1" fill="#F4EFE6" opacity="0.060"/>
    <rect x="506" y="281" width="1" height="1" fill="#F4EFE6" opacity="0.073"/>
    <rect x="1176" y="536" width="2" height="2" fill="#F4EFE6" opacity="0.094"/>
    <rect x="781" y="488" width="1" height="1" fill="#F4EFE6" opacity="0.077"/>
    <rect x="247" y="596" width="1" height="1" fill="#F4EFE6" opacity="0.046"/>
    <rect x="602" y="357" width="1" height="1" fill="#F4EFE6" opacity="0.060"/>
    <rect x="1190" y="132" width="2" height="2" fill="#F4EFE6" opacity="0.086"/>
    <rect x="620" y="529" width="2" height="2" fill="#F4EFE6" opacity="0.077"/>
    <rect x="291" y="456" width="1" height="1" fill="#F4EFE6" opacity="0.055"/>
    <rect x="1361" y="494" width="1" height="1" fill="#F4EFE6" opacity="0.061"/>
    <rect x="982" y="461" width="1" height="1" fill="#F4EFE6" opacity="0.063"/>
    <rect x="155" y="336" width="1" height="1" fill="#F4EFE6" opacity="0.076"/>
    <rect x="1106" y="353" width="1" height="1" fill="#F4EFE6" opacity="0.062"/>
    <rect x="807" y="559" width="1" height="1" fill="#F4EFE6" opacity="0.071"/>
    <rect x="305" y="532" width="1" height="1" fill="#F4EFE6" opacity="0.082"/>
    <rect x="262" y="561" width="1" height="1" fill="#F4EFE6" opacity="0.044"/>
    <rect x="740" y="282" width="1" height="1" fill="#F4EFE6" opacity="0.050"/>
    <rect x="369" y="155" width="1" height="1" fill="#F4EFE6" opacity="0.070"/>
    <rect x="176" y="588" width="1" height="1" fill="#F4EFE6" opacity="0.071"/>
    <rect x="1260" y="101" width="1" height="1" fill="#F4EFE6" opacity="0.041"/>
    <rect x="909" y="540" width="2" height="2" fill="#F4EFE6" opacity="0.078"/>
    <rect x="1160" y="449" width="1" height="1" fill="#F4EFE6" opacity="0.058"/>
    <rect x="1064" y="557" width="1" height="1" fill="#F4EFE6" opacity="0.043"/>
    <rect x="1447" y="296" width="2" height="2" fill="#F4EFE6" opacity="0.042"/>
    <rect x="1237" y="541" width="2" height="2" fill="#F4EFE6" opacity="0.051"/>
    <rect x="452" y="600" width="2" height="2" fill="#F4EFE6" opacity="0.099"/>
    <rect x="30" y="507" width="1" height="1" fill="#F4EFE6" opacity="0.077"/>
    <rect x="487" y="563" width="1" height="1" fill="#F4EFE6" opacity="0.047"/>
    <rect x="924" y="108" width="2" height="2" fill="#F4EFE6" opacity="0.095"/>
    <rect x="687" y="226" width="1" height="1" fill="#F4EFE6" opacity="0.058"/>
    <rect x="1424" y="268" width="2" height="2" fill="#F4EFE6" opacity="0.050"/>
    <rect x="1323" y="541" width="2" height="2" fill="#F4EFE6" opacity="0.055"/>
    <rect x="979" y="158" width="1" height="1" fill="#F4EFE6" opacity="0.078"/>
  </g>

  <!-- Ombre d'encre décalée -->
  <text x="754.6043622274932" y="352.2424961862466" class="title" font-size="240"
        fill="#F5C518" fill-opacity="0.85" text-anchor="middle" dominant-baseline="middle">COACHING</text>

  <!-- Mot principal -->
  <text x="750.0" y="348.0" class="title" font-size="240"
        fill="#F4EFE6" text-anchor="middle" dominant-baseline="middle">COACHING</text>

  <!-- Signature : ligne + point -->
  <line x1="180.0" y1="468.0" x2="480.0" y2="468.0" stroke="#F5C518" stroke-width="6"/>
  <circle cx="1410.0" cy="108.0" r="12" fill="#F5C518"/>

  <!-- Clé discrète en coin -->
  <text x="1460" y="570" font-family="ui-monospace, SFMono-Regular, Menlo, monospace" font-size="18" font-weight="500" fill="#F4EFE6" fill-opacity="0.55" text-anchor="end" letter-spacing="2">COACHING</text>
</svg>
