<svg xmlns="http://www.w3.org/2000/svg" viewBox="0 0 1500 600" width="1500" height="600">
  <defs>
    <style>
      .title {
        font-family: "Helvetica Neue", "HelveticaNeue-CondensedBold", "Arial Narrow", "Impact", sans-serif;
        font-weight: 900;
        font-stretch: condensed;
        letter-spacing: -0.02em;
      }
    </style>
  </defs>

  <!-- Fond -->
  <rect width="1500" height="600" fill="#1E4E8C"/>

  <!-- Grain sérigraphique -->
  <g>
    <rect x="405" y="358" width="1" height="1" fill="#F4EFE6" opacity="0.080"/>
    <rect x="1078" y="582" width="1" height="1" fill="#F4EFE6" opacity="0.062"/>
    <rect x="982" y="233" width="1" height="1" fill="#F4EFE6" opacity="0.054"/>
    <rect x="1159" y="168" width="1" height="1" fill="#F4EFE6" opacity="0.082"/>
    <rect x="1027" y="548" width="1" height="1" fill="#F4EFE6" opacity="0.053"/>
    <rect x="1240" y="168" width="2" height="2" fill="#F4EFE6" opacity="0.065"/>
    <rect x="548" y="95" width="1" height="1" fill="#F4EFE6" opacity="0.050"/>
    <rect x="1090" y="387" width="1" height="1" fill="#F4EFE6" opacity="0.067"/>
    <rect x="869" y="538" width="2" height="2" fill="#F4EFE6" opacity="0.049"/>
    <rect x="1263" y="203" width="1" height="1" fill="#F4EFE6" opacity="0.054"/>
    <rect x="389" y="114" width="1" height="1" fill="#F4EFE6" opacity="0.048"/>
    <rect x="1495" y="362" width="1" height="1" fill="#F4EFE6" opacity="0.081"/>
    <rect x="216" y="375" width="1" height="1" fill="#F4EFE6" opacity="0.048"/>
    <rect x="1437" y="16" width="2" height="2" fill="#F4EFE6" opacity="0.094"/>
    <rect x="264" y="102" width="1" height="1" fill="#F4EFE6" opacity="0.050"/>
    <rect x="381" y="407" width="1" height="1" fill="#F4EFE6" opacity="0.067"/>
    <rect x="1282" y="367" width="1" height="1" fill="#F4EFE6" opacity="0.073"/>
    <rect x="807" y="232" width="2" height="2" fill="#F4EFE6" opacity="0.094"/>
    <rect x="187" y="352" width="1" height="1" fill="#F4EFE6" opacity="0.077"/>
    <rect x="1471" y="468" width="1" height="1" fill="#F4EFE6" opacity="0.060"/>
    <rect x="1312" y="400" width="2" height="2" fill="#F4EFE6" opacity="0.079"/>
    <rect x="675" y="416" width="1" height="1" fill="#F4EFE6" opacity="0.090"/>
    <rect x="1045" y="19" width="1" height="1" fill="#F4EFE6" opacity="0.068"/>
    <rect x="254" y="485" width="1" height="1" fill="#F4EFE6" opacity="0.043"/>
    <rect x="204" y="581" width="1" height="1" fill="#F4EFE6" opacity="0.082"/>
    <rect x="741" y="120" width="1" height="1" fill="#F4EFE6" opacity="0.055"/>
    <rect x="716" y="110" width="1" height="1" fill="#F4EFE6" opacity="0.048"/>
    <rect x="1286" y="549" width="1" height="1" fill="#F4EFE6" opacity="0.067"/>
    <rect x="475" y="149" width="2" height="2" fill="#F4EFE6" opacity="0.089"/>
    <rect x="318" y="518" width="1" height="1" fill="#F4EFE6" opacity="0.051"/>
    <rect x="608" y="133" width="2" height="2" fill="#F4EFE6" opacity="0.040"/>
    <rect x="759" y="240" width="1" height="1" fill="#F4EFE6" opacity="0.070"/>
    <rect x="529" y="503" width="1" height="1" fill="#F4EFE6" opacity="0.064"/>
    <rect x="421" y="72" width="2" height="2" fill="#F4EFE6" opacity="0.099"/>
    <rect x="452" y="187" width="1" height="1" fill="#F4EFE6" opacity="0.097"/>
    <rect x="961" y="357" width="1" height="1" fill="#F4EFE6" opacity="0.079"/>
    <rect x="1362" y="193" width="2" height="2" fill="#F4EFE6" opacity="0.072"/>
    <rect x="194" y="218" width="1" height="1" fill="#F4EFE6" opacity="0.082"/>
    <rect x="189" y="37" width="1" height="1" fill="#F4EFE6" opacity="0.054"/>
    <rect x="982" y="431" width="2" height="2" fill="#F4EFE6" opacity="0.088"/>
    <rect x="927" y="523" width="2" height="2" fill="#F4EFE6" opacity="0.096"/>
    <rect x="1435" y="545" width="1" height="1" fill="#F4EFE6" opacity="0.078"/>
    <rect x="388" y="413" width="2" height="2" fill="#F4EFE6" opacity="0.043"/>
    <rect x="260" y="394" width="1" height="1" fill="#F4EFE6" opacity="0.077"/>
    <rect x="184" y="336" width="2" height="2" fill="#F4EFE6" opacity="0.090"/>
    <rect x="1277" y="194" width="2" height="2" fill="#F4EFE6" opacity="0.048"/>
    <rect x="589" y="589" width="1" height="1" fill="#F4EFE6" opacity="0.081"/>
    <rect x="1084" y="270" width="1" height="1" fill="#F4EFE6" opacity="0.057"/>
    <rect x="1277" y="596" width="1" height="1" fill="#F4EFE6" opacity="0.042"/>
    <rect x="907" y="135" width="1" height="1" fill="#F4EFE6" opacity="0.067"/>
    <rect x="111" y="2" width="2" height="2" fill="#F4EFE6" opacity="0.058"/>
    <rect x="544" y="320" width="2" height="2" fill="#F4EFE6" opacity="0.099"/>
    <rect x="1070" y="248" width="2" height="2" fill="#F4EFE6" opacity="0.047"/>
    <rect x="137" y="413" width="1" height="1" fill="#F4EFE6" opacity="0.053"/>
    <rect x="793" y="581" width="2" height="2" fill="#F4EFE6" opacity="0.085"/>
    <rect x="124" y="123" width="1" height="1" fill="#F4EFE6" opacity="0.064"/>
    <rect x="782" y="552" width="1" height="1" fill="#F4EFE6" opacity="0.048"/>
    <rect x="1353" y="249" width="1" height="1" fill="#F4EFE6" opacity="0.073"/>
    <rect x="1428" y="211" width="1" height="1" fill="#F4EFE6" opacity="0.053"/>
    <rect x="449" y="39" width="2" height="2" fill="#F4EFE6" opacity="0.082"/>
    <rect x="462" y="138" width="1" height="1" fill="#F4EFE6" opacity="0.051"/>
    <rect x="176" y="588" width="1" height="1" fill="#F4EFE6" opacity="0.044"/>
    <rect x="122" y="327" width="1" height="1" fill="#F4EFE6" opacity="0.082"/>
    <rect x="429" y="50" width="1" height="1" fill="#F4EFE6" opacity="0.056"/>
    <rect x="1443" y="541" width="1" height="1" fill="#F4EFE6" opacity="0.051"/>
    <rect x="760" y="142" width="1" height="1" fill="#F4EFE6" opacity="0.045"/>
    <rect x="544" y="34" width="1" height="1" fill="#F4EFE6" opacity="0.068"/>
    <rect x="663" y="102" width="1" height="1" fill="#F4EFE6" opacity="0.084"/>
    <rect x="1101" y="212" width="2" height="2" fill="#F4EFE6" opacity="0.048"/>
    <rect x="71" y="221" width="1" height="1" fill="#F4EFE6" opacity="0.059"/>
    <rect x="149" y="434" width="2" height="2" fill="#F4EFE6" opacity="0.065"/>
    <rect x="1303" y="540" width="1" height="1" fill="#F4EFE6" opacity="0.056"/>
    <rect x="95" y="74" width="1" height="1" fill="#F4EFE6" opacity="0.048"/>
    <rect x="570" y="541" width="1" height="1" fill="#F4EFE6" opacity="0.044"/>
    <rect x="1241" y="486" width="1" height="1" fill="#F4EFE6" opacity="0.048"/>
    <rect x="390" y="124" width="2" height="2" fill="#F4EFE6" opacity="0.084"/>
    <rect x="415" y="581" width="1" height="1" fill="#F4EFE6" opacity="0.052"/>
    <rect x="1017" y="571" width="1" height="1" fill="#F4EFE6" opacity="0.055"/>
    <rect x="47" y="196" width="1" height="1" fill="#F4EFE6" opacity="0.067"/>
    <rect x="999" y="529" width="1" height="1" fill="#F4EFE6" opacity="0.069"/>
    <rect x="568" y="379" width="1" height="1" fill="#F4EFE6" opacity="0.090"/>
    <rect x="1370" y="148" width="1" height="1" fill="#F4EFE6" opacity="0.093"/>
    <rect x="1176" y="461" width="1" height="1" fill="#F4EFE6" opacity="0.068"/>
    <rect x="1474" y="321" width="2" height="2" fill="#F4EFE6" opacity="0.096"/>
    <rect x="1174" y="458" width="2" height="2" fill="#F4EFE6" opacity="0.093"/>
    <rect x="638" y="548" width="1" height="1" fill="#F4EFE6" opacity="0.059"/>
    <rect x="148" y="304" width="1" height="1" fill="#F4EFE6" opacity="0.052"/>
    <rect x="486" y="462" width="1" height="1" fill="#F4EFE6" opacity="0.065"/>
    <rect x="19" y="539" width="1" height="1" fill="#F4EFE6" opacity="0.074"/>
    <rect x="24" y="527" width="1" height="1" fill="#F4EFE6" opacity="0.086"/>
    <rect x="754" y="539" width="1" height="1" fill="#F4EFE6" opacity="0.063"/>
    <rect x="1446" y="392" width="1" height="1" fill="#F4EFE6" opacity="0.087"/>
    <rect x="1314" y="395" width="1" height="1" fill="#F4EFE6" opacity="0.052"/>
    <rect x="203" y="52" width="1" height="1" fill="#F4EFE6" opacity="0.047"/>
    <rect x="408" y="475" width="1" height="1" fill="#F4EFE6" opacity="0.096"/>
    <rect x="365" y="313" width="2" height="2" fill="#F4EFE6" opacity="0.097"/>
    <rect x="1031" y="255" width="1" height="1" fill="#F4EFE6" opacity="0.076"/>
    <rect x="1139" y="172" width="1" height="1" fill="#F4EFE6" opacity="0.056"/>
    <rect x="644" y="299" width="2" height="2" fill="#F4EFE6" opacity="0.071"/>
    <rect x="436" y="94" width="2" height="2" fill="#F4EFE6" opacity="0.054"/>
    <rect x="936" y="3" width="2" height="2" fill="#F4EFE6" opacity="0.052"/>
    <rect x="198" y="133" width="1" height="1" fill="#F4EFE6" opacity="0.065"/>
    <rect x="1028" y="56" width="1" height="1" fill="#F4EFE6" opacity="0.056"/>
    <rect x="38" y="211" width="1" height="1" fill="#F4EFE6" opacity="0.076"/>
    <rect x="1108" y="169" width="1" height="1" fill="#F4EFE6" opacity="0.081"/>
    <rect x="1372" y="82" width="2" height="2" fill="#F4EFE6" opacity="0.076"/>
    <rect x="942" y="132" width="1" height="1" fill="#F4EFE6" opacity="0.083"/>
    <rect x="1462" y="151" width="2" height="2" fill="#F4EFE6" opacity="0.061"/>
    <rect x="19" y="526" width="1" height="1" fill="#F4EFE6" opacity="0.092"/>
    <rect x="702" y="260" width="2" height="2" fill="#F4EFE6" opacity="0.052"/>
    <rect x="798" y="442" width="1" height="1" fill="#F4EFE6" opacity="0.091"/>
    <rect x="198" y="49" width="1" height="1" fill="#F4EFE6" opacity="0.064"/>
    <rect x="1324" y="62" width="1" height="1" fill="#F4EFE6" opacity="0.079"/>
    <rect x="1193" y="474" width="1" height="1" fill="#F4EFE6" opacity="0.059"/>
    <rect x="814" y="396" width="1" height="1" fill="#F4EFE6" opacity="0.072"/>
    <rect x="933" y="93" width="1" height="1" fill="#F4EFE6" opacity="0.042"/>
    <rect x="641" y="168" width="1" height="1" fill="#F4EFE6" opacity="0.074"/>
    <rect x="750" y="220" width="1" height="1" fill="#F4EFE6" opacity="0.041"/>
    <rect x="481" y="210" width="1" height="1" fill="#F4EFE6" opacity="0.091"/>
    <rect x="457" y="317" width="1" height="1" fill="#F4EFE6" opacity="0.079"/>
    <rect x="1210" y="528" width="2" height="2" fill="#F4EFE6" opacity="0.061"/>
    <rect x="1113" y="494" width="1" height="1" fill="#F4EFE6" opacity="0.098"/>
    <rect x="10" y="306" width="1" height="1" fill="#F4EFE6" opacity="0.079"/>
    <rect x="357" y="548" width="1" height="1" fill="#F4EFE6" opacity="0.089"/>
    <rect x="892" y="209" width="1" height="1" fill="#F4EFE6" opacity="0.052"/>
    <rect x="823" y="448" width="2" height="2" fill="#F4EFE6" opacity="0.091"/>
    <rect x="1395" y="253" width="1" height="1" fill="#F4EFE6" opacity="0.086"/>
    <rect x="1267" y="257" width="1" height="1" fill="#F4EFE6" opacity="0.048"/>
    <rect x="362" y="176" width="1" height="1" fill="#F4EFE6" opacity="0.087"/>
    <rect x="1223" y="296" width="1" height="1" fill="#F4EFE6" opacity="0.082"/>
    <rect x="783" y="209" width="1" height="1" fill="#F4EFE6" opacity="0.093"/>
    <rect x="1333" y="379" width="1" height="1" fill="#F4EFE6" opacity="0.092"/>
    <rect x="747" y="117" width="1" height="1" fill="#F4EFE6" opacity="0.092"/>
    <rect x="746" y="61" width="1" height="1" fill="#F4EFE6" opacity="0.082"/>
    <rect x="40" y="306" width="1" height="1" fill="#F4EFE6" opacity="0.085"/>
    <rect x="891" y="583" width="1" height="1" fill="#F4EFE6" opacity="0.074"/>
    <rect x="1031" y="385" width="2" height="2" fill="#F4EFE6" opacity="0.091"/>
    <rect x="570" y="277" width="1" height="1" fill="#F4EFE6" opacity="0.069"/>
    <rect x="1077" y="530" width="2" height="2" fill="#F4EFE6" opacity="0.068"/>
    <rect x="917" y="104" width="1" height="1" fill="#F4EFE6" opacity="0.097"/>
    <rect x="1182" y="407" width="1" height="1" fill="#F4EFE6" opacity="0.095"/>
    <rect x="554" y="381" width="1" height="1" fill="#F4EFE6" opacity="0.090"/>
    <rect x="727" y="291" width="1" height="1" fill="#F4EFE6" opacity="0.044"/>
    <rect x="514" y="231" width="1" height="1" fill="#F4EFE6" opacity="0.094"/>
    <rect x="1486" y="485" width="1" height="1" fill="#F4EFE6" opacity="0.091"/>
    <rect x="632" y="192" width="1" height="1" fill="#F4EFE6" opacity="0.053"/>
    <rect x="1091" y="459" width="1" height="1" fill="#F4EFE6" opacity="0.053"/>
    <rect x="1476" y="12" width="1" height="1" fill="#F4EFE6" opacity="0.049"/>
    <rect x="79" y="181" width="1" height="1" fill="#F4EFE6" opacity="0.066"/>
    <rect x="1452" y="143" width="1" height="1" fill="#F4EFE6" opacity="0.085"/>
    <rect x="708" y="576" width="2" height="2" fill="#F4EFE6" opacity="0.092"/>
    <rect x="1383" y="216" width="2" height="2" fill="#F4EFE6" opacity="0.059"/>
    <rect x="995" y="319" width="1" height="1" fill="#F4EFE6" opacity="0.072"/>
    <rect x="1108" y="352" width="1" height="1" fill="#F4EFE6" opacity="0.063"/>
    <rect x="529" y="44" width="1" height="1" fill="#F4EFE6" opacity="0.042"/>
    <rect x="79" y="469" width="2" height="2" fill="#F4EFE6" opacity="0.099"/>
    <rect x="1436" y="21" width="2" height="2" fill="#F4EFE6" opacity="0.077"/>
    <rect x="634" y="74" width="1" height="1" fill="#F4EFE6" opacity="0.068"/>
    <rect x="406" y="258" width="1" height="1" fill="#F4EFE6" opacity="0.093"/>
    <rect x="293" y="299" width="1" height="1" fill="#F4EFE6" opacity="0.063"/>
    <rect x="1304" y="38" width="2" height="2" fill="#F4EFE6" opacity="0.048"/>
    <rect x="414" y="33" width="2" height="2" fill="#F4EFE6" opacity="0.085"/>
    <rect x="865" y="102" width="2" height="2" fill="#F4EFE6" opacity="0.086"/>
    <rect x="338" y="237" width="1" height="1" fill="#F4EFE6" opacity="0.053"/>
    <rect x="481" y="535" width="2" height="2" fill="#F4EFE6" opacity="0.068"/>
    <rect x="1266" y="109" width="1" height="1" fill="#F4EFE6" opacity="0.069"/>
    <rect x="1122" y="522" width="1" height="1" fill="#F4EFE6" opacity="0.042"/>
    <rect x="1173" y="320" width="1" height="1" fill="#F4EFE6" opacity="0.071"/>
    <rect x="1420" y="588" width="1" height="1" fill="#F4EFE6" opacity="0.056"/>
    <rect x="1088" y="354" width="2" height="2" fill="#F4EFE6" opacity="0.066"/>
    <rect x="479" y="123" width="1" height="1" fill="#F4EFE6" opacity="0.090"/>
    <rect x="352" y="468" width="2" height="2" fill="#F4EFE6" opacity="0.042"/>
    <rect x="700" y="418" width="2" height="2" fill="#F4EFE6" opacity="0.074"/>
    <rect x="634" y="539" width="1" height="1" fill="#F4EFE6" opacity="0.049"/>
    <rect x="496" y="250" width="1" height="1" fill="#F4EFE6" opacity="0.093"/>
    <rect x="1395" y="554" width="1" height="1" fill="#F4EFE6" opacity="0.084"/>
    <rect x="675" y="158" width="1" height="1" fill="#F4EFE6" opacity="0.063"/>
    <rect x="1292" y="125" width="2" height="2" fill="#F4EFE6" opacity="0.096"/>
    <rect x="1424" y="228" width="1" height="1" fill="#F4EFE6" opacity="0.044"/>
    <rect x="1307" y="299" width="2" height="2" fill="#F4EFE6" opacity="0.064"/>
  </g>

  <!-- Ombre d'encre décalée -->
  <text x="753.0063577873585" y="354.22336150082833" class="title" font-size="180"
        fill="#C73E3A" fill-opacity="0.85" text-anchor="middle" dominant-baseline="middle">CONSULTATION</text>

  <!-- Mot principal -->
  <text x="750.0" y="348.0" class="title" font-size="180"
        fill="#F4EFE6" text-anchor="middle" dominant-baseline="middle">CONSULTATION</text>

  <!-- Signature : ligne + point -->
  <line x1="180.0" y1="468.0" x2="480.0" y2="468.0" stroke="#C73E3A" stroke-width="6"/>
  <circle cx="1410.0" cy="108.0" r="12" fill="#C73E3A"/>

  <!-- Clé discrète en coin -->
  <text x="1460" y="570" font-family="ui-monospace, SFMono-Regular, Menlo, monospace" font-size="18" font-weight="500" fill="#F4EFE6" fill-opacity="0.55" text-anchor="end" letter-spacing="2">CONSULTATION</text>
</svg>
