<svg xmlns="http://www.w3.org/2000/svg" viewBox="0 0 1500 600" width="1500" height="600">
  <defs>
    <style>
      .title {
        font-family: "Helvetica Neue", "HelveticaNeue-CondensedBold", "Arial Narrow", "Impact", sans-serif;
        font-weight: 900;
        font-stretch: condensed;
        letter-spacing: -0.02em;
      }
    </style>
  </defs>

  <!-- Fond -->
  <rect width="1500" height="600" fill="#C73E3A"/>

  <!-- Grain sérigraphique -->
  <g>
    <rect x="25" y="44" width="2" height="2" fill="#F4EFE6" opacity="0.044"/>
    <rect x="487" y="380" width="1" height="1" fill="#F4EFE6" opacity="0.066"/>
    <rect x="1143" y="37" width="1" height="1" fill="#F4EFE6" opacity="0.070"/>
    <rect x="1089" y="130" width="1" height="1" fill="#F4EFE6" opacity="0.051"/>
    <rect x="1210" y="145" width="1" height="1" fill="#F4EFE6" opacity="0.100"/>
    <rect x="408" y="125" width="1" height="1" fill="#F4EFE6" opacity="0.047"/>
    <rect x="749" y="139" width="1" height="1" fill="#F4EFE6" opacity="0.075"/>
    <rect x="736" y="402" width="2" height="2" fill="#F4EFE6" opacity="0.100"/>
    <rect x="1149" y="160" width="1" height="1" fill="#F4EFE6" opacity="0.053"/>
    <rect x="475" y="417" width="2" height="2" fill="#F4EFE6" opacity="0.099"/>
    <rect x="1076" y="405" width="1" height="1" fill="#F4EFE6" opacity="0.071"/>
    <rect x="261" y="64" width="2" height="2" fill="#F4EFE6" opacity="0.058"/>
    <rect x="1157" y="244" width="2" height="2" fill="#F4EFE6" opacity="0.044"/>
    <rect x="1091" y="291" width="1" height="1" fill="#F4EFE6" opacity="0.048"/>
    <rect x="1104" y="122" width="1" height="1" fill="#F4EFE6" opacity="0.096"/>
    <rect x="1322" y="281" width="1" height="1" fill="#F4EFE6" opacity="0.048"/>
    <rect x="324" y="24" width="1" height="1" fill="#F4EFE6" opacity="0.083"/>
    <rect x="779" y="205" width="2" height="2" fill="#F4EFE6" opacity="0.069"/>
    <rect x="545" y="494" width="1" height="1" fill="#F4EFE6" opacity="0.057"/>
    <rect x="1386" y="476" width="1" height="1" fill="#F4EFE6" opacity="0.081"/>
    <rect x="792" y="84" width="1" height="1" fill="#F4EFE6" opacity="0.075"/>
    <rect x="748" y="481" width="1" height="1" fill="#F4EFE6" opacity="0.096"/>
    <rect x="137" y="100" width="1" height="1" fill="#F4EFE6" opacity="0.048"/>
    <rect x="720" y="446" width="2" height="2" fill="#F4EFE6" opacity="0.056"/>
    <rect x="644" y="232" width="1" height="1" fill="#F4EFE6" opacity="0.062"/>
    <rect x="752" y="551" width="1" height="1" fill="#F4EFE6" opacity="0.073"/>
    <rect x="640" y="280" width="1" height="1" fill="#F4EFE6" opacity="0.081"/>
    <rect x="158" y="454" width="2" height="2" fill="#F4EFE6" opacity="0.067"/>
    <rect x="1415" y="470" width="1" height="1" fill="#F4EFE6" opacity="0.046"/>
    <rect x="476" y="75" width="1" height="1" fill="#F4EFE6" opacity="0.044"/>
    <rect x="318" y="24" width="2" height="2" fill="#F4EFE6" opacity="0.092"/>
    <rect x="961" y="64" width="1" height="1" fill="#F4EFE6" opacity="0.042"/>
    <rect x="23" y="150" width="2" height="2" fill="#F4EFE6" opacity="0.099"/>
    <rect x="8" y="140" width="1" height="1" fill="#F4EFE6" opacity="0.082"/>
    <rect x="109" y="522" width="1" height="1" fill="#F4EFE6" opacity="0.061"/>
    <rect x="1282" y="150" width="1" height="1" fill="#F4EFE6" opacity="0.085"/>
    <rect x="1257" y="10" width="2" height="2" fill="#F4EFE6" opacity="0.075"/>
    <rect x="760" y="3" width="1" height="1" fill="#F4EFE6" opacity="0.044"/>
    <rect x="1169" y="539" width="2" height="2" fill="#F4EFE6" opacity="0.095"/>
    <rect x="18" y="121" width="1" height="1" fill="#F4EFE6" opacity="0.075"/>
    <rect x="1450" y="71" width="2" height="2" fill="#F4EFE6" opacity="0.071"/>
    <rect x="280" y="258" width="1" height="1" fill="#F4EFE6" opacity="0.074"/>
    <rect x="274" y="250" width="2" height="2" fill="#F4EFE6" opacity="0.080"/>
    <rect x="88" y="579" width="1" height="1" fill="#F4EFE6" opacity="0.086"/>
    <rect x="966" y="252" width="1" height="1" fill="#F4EFE6" opacity="0.062"/>
    <rect x="1284" y="307" width="1" height="1" fill="#F4EFE6" opacity="0.065"/>
    <rect x="416" y="378" width="2" height="2" fill="#F4EFE6" opacity="0.089"/>
    <rect x="88" y="210" width="1" height="1" fill="#F4EFE6" opacity="0.072"/>
    <rect x="1474" y="126" width="2" height="2" fill="#F4EFE6" opacity="0.082"/>
    <rect x="1284" y="63" width="2" height="2" fill="#F4EFE6" opacity="0.054"/>
    <rect x="24" y="137" width="1" height="1" fill="#F4EFE6" opacity="0.090"/>
    <rect x="147" y="34" width="1" height="1" fill="#F4EFE6" opacity="0.069"/>
    <rect x="1301" y="173" width="1" height="1" fill="#F4EFE6" opacity="0.099"/>
    <rect x="901" y="328" width="1" height="1" fill="#F4EFE6" opacity="0.045"/>
    <rect x="1080" y="197" width="2" height="2" fill="#F4EFE6" opacity="0.070"/>
    <rect x="277" y="115" width="1" height="1" fill="#F4EFE6" opacity="0.049"/>
    <rect x="1397" y="272" width="1" height="1" fill="#F4EFE6" opacity="0.075"/>
    <rect x="1180" y="576" width="1" height="1" fill="#F4EFE6" opacity="0.058"/>
    <rect x="1436" y="523" width="2" height="2" fill="#F4EFE6" opacity="0.094"/>
    <rect x="1108" y="273" width="1" height="1" fill="#F4EFE6" opacity="0.055"/>
    <rect x="1192" y="405" width="1" height="1" fill="#F4EFE6" opacity="0.098"/>
    <rect x="360" y="65" width="1" height="1" fill="#F4EFE6" opacity="0.058"/>
    <rect x="1460" y="468" width="2" height="2" fill="#F4EFE6" opacity="0.062"/>
    <rect x="1059" y="587" width="2" height="2" fill="#F4EFE6" opacity="0.060"/>
    <rect x="1369" y="275" width="1" height="1" fill="#F4EFE6" opacity="0.078"/>
    <rect x="301" y="335" width="2" height="2" fill="#F4EFE6" opacity="0.093"/>
    <rect x="893" y="328" width="1" height="1" fill="#F4EFE6" opacity="0.070"/>
    <rect x="595" y="350" width="1" height="1" fill="#F4EFE6" opacity="0.071"/>
    <rect x="190" y="508" width="2" height="2" fill="#F4EFE6" opacity="0.087"/>
    <rect x="4" y="597" width="2" height="2" fill="#F4EFE6" opacity="0.067"/>
    <rect x="616" y="409" width="1" height="1" fill="#F4EFE6" opacity="0.055"/>
    <rect x="107" y="552" width="1" height="1" fill="#F4EFE6" opacity="0.065"/>
    <rect x="495" y="5" width="2" height="2" fill="#F4EFE6" opacity="0.093"/>
    <rect x="307" y="593" width="2" height="2" fill="#F4EFE6" opacity="0.081"/>
    <rect x="1278" y="127" width="2" height="2" fill="#F4EFE6" opacity="0.050"/>
    <rect x="1082" y="415" width="1" height="1" fill="#F4EFE6" opacity="0.096"/>
    <rect x="1196" y="23" width="1" height="1" fill="#F4EFE6" opacity="0.060"/>
    <rect x="1099" y="350" width="1" height="1" fill="#F4EFE6" opacity="0.042"/>
    <rect x="510" y="125" width="1" height="1" fill="#F4EFE6" opacity="0.058"/>
    <rect x="267" y="10" width="1" height="1" fill="#F4EFE6" opacity="0.092"/>
    <rect x="893" y="446" width="1" height="1" fill="#F4EFE6" opacity="0.078"/>
    <rect x="161" y="594" width="1" height="1" fill="#F4EFE6" opacity="0.052"/>
    <rect x="483" y="79" width="1" height="1" fill="#F4EFE6" opacity="0.084"/>
    <rect x="1362" y="179" width="2" height="2" fill="#F4EFE6" opacity="0.084"/>
    <rect x="575" y="298" width="1" height="1" fill="#F4EFE6" opacity="0.044"/>
    <rect x="88" y="297" width="2" height="2" fill="#F4EFE6" opacity="0.059"/>
    <rect x="1477" y="113" width="2" height="2" fill="#F4EFE6" opacity="0.050"/>
    <rect x="67" y="380" width="1" height="1" fill="#F4EFE6" opacity="0.049"/>
    <rect x="1166" y="332" width="1" height="1" fill="#F4EFE6" opacity="0.077"/>
    <rect x="233" y="69" width="1" height="1" fill="#F4EFE6" opacity="0.049"/>
    <rect x="423" y="68" width="1" height="1" fill="#F4EFE6" opacity="0.075"/>
    <rect x="744" y="484" width="2" height="2" fill="#F4EFE6" opacity="0.076"/>
    <rect x="48" y="456" width="2" height="2" fill="#F4EFE6" opacity="0.052"/>
    <rect x="1452" y="590" width="1" height="1" fill="#F4EFE6" opacity="0.070"/>
    <rect x="585" y="229" width="2" height="2" fill="#F4EFE6" opacity="0.080"/>
    <rect x="69" y="287" width="1" height="1" fill="#F4EFE6" opacity="0.047"/>
    <rect x="554" y="322" width="1" height="1" fill="#F4EFE6" opacity="0.040"/>
    <rect x="290" y="387" width="1" height="1" fill="#F4EFE6" opacity="0.046"/>
    <rect x="504" y="240" width="1" height="1" fill="#F4EFE6" opacity="0.086"/>
    <rect x="904" y="206" width="1" height="1" fill="#F4EFE6" opacity="0.047"/>
    <rect x="917" y="210" width="1" height="1" fill="#F4EFE6" opacity="0.097"/>
    <rect x="845" y="246" width="1" height="1" fill="#F4EFE6" opacity="0.071"/>
    <rect x="1429" y="314" width="1" height="1" fill="#F4EFE6" opacity="0.061"/>
    <rect x="1102" y="340" width="2" height="2" fill="#F4EFE6" opacity="0.055"/>
    <rect x="282" y="240" width="1" height="1" fill="#F4EFE6" opacity="0.090"/>
    <rect x="1135" y="364" width="1" height="1" fill="#F4EFE6" opacity="0.082"/>
    <rect x="961" y="585" width="1" height="1" fill="#F4EFE6" opacity="0.071"/>
    <rect x="865" y="276" width="2" height="2" fill="#F4EFE6" opacity="0.098"/>
    <rect x="285" y="386" width="1" height="1" fill="#F4EFE6" opacity="0.046"/>
    <rect x="294" y="62" width="1" height="1" fill="#F4EFE6" opacity="0.079"/>
    <rect x="287" y="514" width="2" height="2" fill="#F4EFE6" opacity="0.085"/>
    <rect x="310" y="512" width="1" height="1" fill="#F4EFE6" opacity="0.065"/>
    <rect x="560" y="219" width="1" height="1" fill="#F4EFE6" opacity="0.042"/>
    <rect x="511" y="417" width="1" height="1" fill="#F4EFE6" opacity="0.086"/>
    <rect x="433" y="441" width="1" height="1" fill="#F4EFE6" opacity="0.059"/>
    <rect x="402" y="152" width="1" height="1" fill="#F4EFE6" opacity="0.075"/>
    <rect x="127" y="337" width="2" height="2" fill="#F4EFE6" opacity="0.094"/>
    <rect x="1336" y="381" width="1" height="1" fill="#F4EFE6" opacity="0.053"/>
    <rect x="480" y="180" width="2" height="2" fill="#F4EFE6" opacity="0.057"/>
    <rect x="1469" y="348" width="1" height="1" fill="#F4EFE6" opacity="0.092"/>
    <rect x="311" y="83" width="1" height="1" fill="#F4EFE6" opacity="0.063"/>
    <rect x="853" y="44" width="1" height="1" fill="#F4EFE6" opacity="0.058"/>
    <rect x="1255" y="310" width="1" height="1" fill="#F4EFE6" opacity="0.092"/>
    <rect x="1351" y="183" width="1" height="1" fill="#F4EFE6" opacity="0.054"/>
    <rect x="145" y="555" width="2" height="2" fill="#F4EFE6" opacity="0.080"/>
    <rect x="1444" y="341" width="2" height="2" fill="#F4EFE6" opacity="0.045"/>
    <rect x="450" y="448" width="1" height="1" fill="#F4EFE6" opacity="0.053"/>
    <rect x="89" y="0" width="1" height="1" fill="#F4EFE6" opacity="0.058"/>
    <rect x="868" y="208" width="1" height="1" fill="#F4EFE6" opacity="0.094"/>
    <rect x="1083" y="543" width="1" height="1" fill="#F4EFE6" opacity="0.086"/>
    <rect x="255" y="400" width="1" height="1" fill="#F4EFE6" opacity="0.073"/>
    <rect x="716" y="541" width="1" height="1" fill="#F4EFE6" opacity="0.089"/>
    <rect x="666" y="391" width="1" height="1" fill="#F4EFE6" opacity="0.047"/>
    <rect x="914" y="343" width="1" height="1" fill="#F4EFE6" opacity="0.095"/>
    <rect x="999" y="386" width="2" height="2" fill="#F4EFE6" opacity="0.081"/>
    <rect x="1108" y="185" width="1" height="1" fill="#F4EFE6" opacity="0.064"/>
    <rect x="226" y="123" width="1" height="1" fill="#F4EFE6" opacity="0.079"/>
    <rect x="934" y="39" width="1" height="1" fill="#F4EFE6" opacity="0.089"/>
    <rect x="1424" y="36" width="2" height="2" fill="#F4EFE6" opacity="0.076"/>
    <rect x="804" y="284" width="1" height="1" fill="#F4EFE6" opacity="0.077"/>
    <rect x="826" y="105" width="1" height="1" fill="#F4EFE6" opacity="0.044"/>
    <rect x="1481" y="580" width="2" height="2" fill="#F4EFE6" opacity="0.050"/>
    <rect x="54" y="486" width="2" height="2" fill="#F4EFE6" opacity="0.099"/>
    <rect x="1101" y="241" width="2" height="2" fill="#F4EFE6" opacity="0.046"/>
    <rect x="1029" y="142" width="2" height="2" fill="#F4EFE6" opacity="0.096"/>
    <rect x="154" y="504" width="2" height="2" fill="#F4EFE6" opacity="0.087"/>
    <rect x="836" y="266" width="2" height="2" fill="#F4EFE6" opacity="0.055"/>
    <rect x="896" y="120" width="1" height="1" fill="#F4EFE6" opacity="0.049"/>
    <rect x="775" y="343" width="1" height="1" fill="#F4EFE6" opacity="0.040"/>
    <rect x="398" y="110" width="1" height="1" fill="#F4EFE6" opacity="0.051"/>
    <rect x="21" y="401" width="1" height="1" fill="#F4EFE6" opacity="0.063"/>
    <rect x="139" y="197" width="1" height="1" fill="#F4EFE6" opacity="0.088"/>
    <rect x="499" y="98" width="2" height="2" fill="#F4EFE6" opacity="0.097"/>
    <rect x="556" y="525" width="2" height="2" fill="#F4EFE6" opacity="0.043"/>
    <rect x="215" y="21" width="1" height="1" fill="#F4EFE6" opacity="0.085"/>
    <rect x="719" y="508" width="2" height="2" fill="#F4EFE6" opacity="0.050"/>
    <rect x="420" y="556" width="1" height="1" fill="#F4EFE6" opacity="0.099"/>
    <rect x="671" y="388" width="1" height="1" fill="#F4EFE6" opacity="0.070"/>
    <rect x="1196" y="171" width="1" height="1" fill="#F4EFE6" opacity="0.077"/>
    <rect x="25" y="462" width="1" height="1" fill="#F4EFE6" opacity="0.045"/>
    <rect x="1294" y="452" width="1" height="1" fill="#F4EFE6" opacity="0.068"/>
    <rect x="833" y="158" width="1" height="1" fill="#F4EFE6" opacity="0.046"/>
    <rect x="144" y="66" width="2" height="2" fill="#F4EFE6" opacity="0.080"/>
    <rect x="1371" y="563" width="1" height="1" fill="#F4EFE6" opacity="0.072"/>
    <rect x="1357" y="561" width="1" height="1" fill="#F4EFE6" opacity="0.041"/>
    <rect x="994" y="282" width="1" height="1" fill="#F4EFE6" opacity="0.099"/>
    <rect x="115" y="505" width="1" height="1" fill="#F4EFE6" opacity="0.075"/>
    <rect x="1306" y="78" width="1" height="1" fill="#F4EFE6" opacity="0.098"/>
    <rect x="653" y="196" width="1" height="1" fill="#F4EFE6" opacity="0.063"/>
    <rect x="696" y="375" width="1" height="1" fill="#F4EFE6" opacity="0.099"/>
    <rect x="1019" y="113" width="1" height="1" fill="#F4EFE6" opacity="0.072"/>
    <rect x="1328" y="82" width="1" height="1" fill="#F4EFE6" opacity="0.093"/>
    <rect x="400" y="388" width="2" height="2" fill="#F4EFE6" opacity="0.057"/>
    <rect x="826" y="590" width="1" height="1" fill="#F4EFE6" opacity="0.085"/>
    <rect x="1127" y="375" width="2" height="2" fill="#F4EFE6" opacity="0.066"/>
    <rect x="1417" y="507" width="2" height="2" fill="#F4EFE6" opacity="0.075"/>
    <rect x="498" y="140" width="1" height="1" fill="#F4EFE6" opacity="0.074"/>
    <rect x="861" y="58" width="2" height="2" fill="#F4EFE6" opacity="0.046"/>
    <rect x="674" y="12" width="1" height="1" fill="#F4EFE6" opacity="0.050"/>
    <rect x="692" y="437" width="1" height="1" fill="#F4EFE6" opacity="0.067"/>
  </g>

  <!-- Ombre d'encre décalée -->
  <text x="753.0053236332428" y="351.71117357351477" class="title" font-size="180"
        fill="#0E0E0E" fill-opacity="0.85" text-anchor="middle" dominant-baseline="middle">CULTURE / RH</text>

  <!-- Mot principal -->
  <text x="750.0" y="348.0" class="title" font-size="180"
        fill="#F4EFE6" text-anchor="middle" dominant-baseline="middle">CULTURE / RH</text>

  <!-- Signature : ligne + point -->
  <line x1="180.0" y1="468.0" x2="480.0" y2="468.0" stroke="#0E0E0E" stroke-width="6"/>
  <circle cx="1410.0" cy="108.0" r="12" fill="#0E0E0E"/>

  <!-- Clé discrète en coin -->
  <text x="1460" y="570" font-family="ui-monospace, SFMono-Regular, Menlo, monospace" font-size="18" font-weight="500" fill="#F4EFE6" fill-opacity="0.55" text-anchor="end" letter-spacing="2">CULTURE / RH</text>
</svg>
