<svg xmlns="http://www.w3.org/2000/svg" viewBox="0 0 1500 600" width="1500" height="600">
  <defs>
    <style>
      .title {
        font-family: "Helvetica Neue", "HelveticaNeue-CondensedBold", "Arial Narrow", "Impact", sans-serif;
        font-weight: 900;
        font-stretch: condensed;
        letter-spacing: -0.02em;
      }
    </style>
  </defs>

  <!-- Fond -->
  <rect width="1500" height="600" fill="#F4EFE6"/>

  <!-- Grain sérigraphique -->
  <g>
    <rect x="891" y="205" width="1" height="1" fill="#0E0E0E" opacity="0.094"/>
    <rect x="22" y="289" width="2" height="2" fill="#0E0E0E" opacity="0.081"/>
    <rect x="981" y="307" width="2" height="2" fill="#0E0E0E" opacity="0.052"/>
    <rect x="61" y="98" width="2" height="2" fill="#0E0E0E" opacity="0.083"/>
    <rect x="300" y="44" width="2" height="2" fill="#0E0E0E" opacity="0.048"/>
    <rect x="1440" y="558" width="1" height="1" fill="#0E0E0E" opacity="0.086"/>
    <rect x="1081" y="598" width="1" height="1" fill="#0E0E0E" opacity="0.086"/>
    <rect x="1302" y="75" width="2" height="2" fill="#0E0E0E" opacity="0.074"/>
    <rect x="531" y="441" width="1" height="1" fill="#0E0E0E" opacity="0.088"/>
    <rect x="652" y="147" width="1" height="1" fill="#0E0E0E" opacity="0.090"/>
    <rect x="563" y="316" width="1" height="1" fill="#0E0E0E" opacity="0.082"/>
    <rect x="1101" y="348" width="1" height="1" fill="#0E0E0E" opacity="0.096"/>
    <rect x="355" y="305" width="1" height="1" fill="#0E0E0E" opacity="0.068"/>
    <rect x="1309" y="112" width="1" height="1" fill="#0E0E0E" opacity="0.092"/>
    <rect x="1106" y="354" width="1" height="1" fill="#0E0E0E" opacity="0.071"/>
    <rect x="551" y="574" width="1" height="1" fill="#0E0E0E" opacity="0.085"/>
    <rect x="1366" y="353" width="2" height="2" fill="#0E0E0E" opacity="0.097"/>
    <rect x="340" y="364" width="2" height="2" fill="#0E0E0E" opacity="0.087"/>
    <rect x="1103" y="47" width="1" height="1" fill="#0E0E0E" opacity="0.100"/>
    <rect x="1408" y="78" width="2" height="2" fill="#0E0E0E" opacity="0.045"/>
    <rect x="176" y="59" width="1" height="1" fill="#0E0E0E" opacity="0.067"/>
    <rect x="895" y="88" width="2" height="2" fill="#0E0E0E" opacity="0.085"/>
    <rect x="677" y="583" width="1" height="1" fill="#0E0E0E" opacity="0.065"/>
    <rect x="850" y="261" width="1" height="1" fill="#0E0E0E" opacity="0.084"/>
    <rect x="1400" y="490" width="1" height="1" fill="#0E0E0E" opacity="0.053"/>
    <rect x="20" y="134" width="1" height="1" fill="#0E0E0E" opacity="0.061"/>
    <rect x="339" y="393" width="1" height="1" fill="#0E0E0E" opacity="0.042"/>
    <rect x="826" y="508" width="1" height="1" fill="#0E0E0E" opacity="0.063"/>
    <rect x="626" y="541" width="1" height="1" fill="#0E0E0E" opacity="0.056"/>
    <rect x="838" y="588" width="2" height="2" fill="#0E0E0E" opacity="0.066"/>
    <rect x="1069" y="537" width="1" height="1" fill="#0E0E0E" opacity="0.098"/>
    <rect x="890" y="204" width="1" height="1" fill="#0E0E0E" opacity="0.060"/>
    <rect x="821" y="423" width="1" height="1" fill="#0E0E0E" opacity="0.073"/>
    <rect x="613" y="261" width="1" height="1" fill="#0E0E0E" opacity="0.079"/>
    <rect x="876" y="329" width="1" height="1" fill="#0E0E0E" opacity="0.050"/>
    <rect x="324" y="132" width="1" height="1" fill="#0E0E0E" opacity="0.098"/>
    <rect x="77" y="416" width="1" height="1" fill="#0E0E0E" opacity="0.058"/>
    <rect x="373" y="113" width="2" height="2" fill="#0E0E0E" opacity="0.071"/>
    <rect x="261" y="203" width="1" height="1" fill="#0E0E0E" opacity="0.089"/>
    <rect x="42" y="340" width="1" height="1" fill="#0E0E0E" opacity="0.091"/>
    <rect x="505" y="227" width="1" height="1" fill="#0E0E0E" opacity="0.080"/>
    <rect x="62" y="268" width="1" height="1" fill="#0E0E0E" opacity="0.070"/>
    <rect x="77" y="218" width="1" height="1" fill="#0E0E0E" opacity="0.097"/>
    <rect x="871" y="183" width="1" height="1" fill="#0E0E0E" opacity="0.055"/>
    <rect x="922" y="2" width="2" height="2" fill="#0E0E0E" opacity="0.058"/>
    <rect x="668" y="258" width="1" height="1" fill="#0E0E0E" opacity="0.050"/>
    <rect x="304" y="118" width="1" height="1" fill="#0E0E0E" opacity="0.046"/>
    <rect x="1441" y="109" width="1" height="1" fill="#0E0E0E" opacity="0.071"/>
    <rect x="1215" y="325" width="2" height="2" fill="#0E0E0E" opacity="0.099"/>
    <rect x="613" y="285" width="1" height="1" fill="#0E0E0E" opacity="0.080"/>
    <rect x="356" y="304" width="2" height="2" fill="#0E0E0E" opacity="0.057"/>
    <rect x="1266" y="525" width="1" height="1" fill="#0E0E0E" opacity="0.081"/>
    <rect x="267" y="311" width="2" height="2" fill="#0E0E0E" opacity="0.098"/>
    <rect x="544" y="555" width="1" height="1" fill="#0E0E0E" opacity="0.069"/>
    <rect x="1431" y="519" width="2" height="2" fill="#0E0E0E" opacity="0.097"/>
    <rect x="715" y="313" width="2" height="2" fill="#0E0E0E" opacity="0.068"/>
    <rect x="776" y="353" width="1" height="1" fill="#0E0E0E" opacity="0.083"/>
    <rect x="1015" y="165" width="2" height="2" fill="#0E0E0E" opacity="0.041"/>
    <rect x="777" y="28" width="2" height="2" fill="#0E0E0E" opacity="0.081"/>
    <rect x="1375" y="1" width="1" height="1" fill="#0E0E0E" opacity="0.067"/>
    <rect x="349" y="263" width="2" height="2" fill="#0E0E0E" opacity="0.096"/>
    <rect x="100" y="437" width="2" height="2" fill="#0E0E0E" opacity="0.075"/>
    <rect x="974" y="401" width="2" height="2" fill="#0E0E0E" opacity="0.082"/>
    <rect x="1477" y="373" width="1" height="1" fill="#0E0E0E" opacity="0.099"/>
    <rect x="603" y="412" width="1" height="1" fill="#0E0E0E" opacity="0.097"/>
    <rect x="1271" y="0" width="1" height="1" fill="#0E0E0E" opacity="0.091"/>
    <rect x="473" y="507" width="2" height="2" fill="#0E0E0E" opacity="0.041"/>
    <rect x="148" y="584" width="1" height="1" fill="#0E0E0E" opacity="0.072"/>
    <rect x="1285" y="84" width="2" height="2" fill="#0E0E0E" opacity="0.081"/>
    <rect x="1351" y="10" width="1" height="1" fill="#0E0E0E" opacity="0.090"/>
    <rect x="304" y="154" width="1" height="1" fill="#0E0E0E" opacity="0.048"/>
    <rect x="1160" y="108" width="1" height="1" fill="#0E0E0E" opacity="0.064"/>
    <rect x="1278" y="311" width="1" height="1" fill="#0E0E0E" opacity="0.093"/>
    <rect x="973" y="396" width="1" height="1" fill="#0E0E0E" opacity="0.094"/>
    <rect x="504" y="197" width="1" height="1" fill="#0E0E0E" opacity="0.098"/>
    <rect x="730" y="590" width="2" height="2" fill="#0E0E0E" opacity="0.072"/>
    <rect x="1346" y="410" width="1" height="1" fill="#0E0E0E" opacity="0.088"/>
    <rect x="558" y="6" width="2" height="2" fill="#0E0E0E" opacity="0.067"/>
    <rect x="487" y="215" width="1" height="1" fill="#0E0E0E" opacity="0.073"/>
    <rect x="1342" y="5" width="1" height="1" fill="#0E0E0E" opacity="0.053"/>
    <rect x="729" y="250" width="1" height="1" fill="#0E0E0E" opacity="0.080"/>
    <rect x="846" y="441" width="1" height="1" fill="#0E0E0E" opacity="0.084"/>
    <rect x="167" y="338" width="2" height="2" fill="#0E0E0E" opacity="0.065"/>
    <rect x="427" y="379" width="1" height="1" fill="#0E0E0E" opacity="0.080"/>
    <rect x="92" y="369" width="2" height="2" fill="#0E0E0E" opacity="0.054"/>
    <rect x="155" y="594" width="1" height="1" fill="#0E0E0E" opacity="0.062"/>
    <rect x="820" y="483" width="1" height="1" fill="#0E0E0E" opacity="0.064"/>
    <rect x="726" y="254" width="2" height="2" fill="#0E0E0E" opacity="0.059"/>
    <rect x="738" y="396" width="2" height="2" fill="#0E0E0E" opacity="0.058"/>
    <rect x="608" y="8" width="2" height="2" fill="#0E0E0E" opacity="0.044"/>
    <rect x="703" y="100" width="1" height="1" fill="#0E0E0E" opacity="0.086"/>
    <rect x="745" y="24" width="1" height="1" fill="#0E0E0E" opacity="0.058"/>
    <rect x="458" y="57" width="2" height="2" fill="#0E0E0E" opacity="0.060"/>
    <rect x="1244" y="427" width="1" height="1" fill="#0E0E0E" opacity="0.043"/>
    <rect x="509" y="392" width="1" height="1" fill="#0E0E0E" opacity="0.083"/>
    <rect x="333" y="124" width="2" height="2" fill="#0E0E0E" opacity="0.043"/>
    <rect x="406" y="339" width="2" height="2" fill="#0E0E0E" opacity="0.088"/>
    <rect x="1017" y="390" width="2" height="2" fill="#0E0E0E" opacity="0.055"/>
    <rect x="635" y="392" width="2" height="2" fill="#0E0E0E" opacity="0.075"/>
    <rect x="1308" y="454" width="1" height="1" fill="#0E0E0E" opacity="0.095"/>
    <rect x="296" y="457" width="1" height="1" fill="#0E0E0E" opacity="0.061"/>
    <rect x="9" y="51" width="1" height="1" fill="#0E0E0E" opacity="0.075"/>
    <rect x="1180" y="138" width="1" height="1" fill="#0E0E0E" opacity="0.081"/>
    <rect x="1113" y="27" width="2" height="2" fill="#0E0E0E" opacity="0.040"/>
    <rect x="595" y="373" width="2" height="2" fill="#0E0E0E" opacity="0.092"/>
    <rect x="678" y="61" width="1" height="1" fill="#0E0E0E" opacity="0.083"/>
    <rect x="970" y="269" width="1" height="1" fill="#0E0E0E" opacity="0.048"/>
    <rect x="960" y="168" width="1" height="1" fill="#0E0E0E" opacity="0.081"/>
    <rect x="1286" y="527" width="1" height="1" fill="#0E0E0E" opacity="0.049"/>
    <rect x="370" y="368" width="1" height="1" fill="#0E0E0E" opacity="0.081"/>
    <rect x="664" y="480" width="2" height="2" fill="#0E0E0E" opacity="0.041"/>
    <rect x="832" y="268" width="1" height="1" fill="#0E0E0E" opacity="0.081"/>
    <rect x="406" y="233" width="1" height="1" fill="#0E0E0E" opacity="0.055"/>
    <rect x="510" y="224" width="1" height="1" fill="#0E0E0E" opacity="0.050"/>
    <rect x="960" y="440" width="2" height="2" fill="#0E0E0E" opacity="0.076"/>
    <rect x="1115" y="449" width="1" height="1" fill="#0E0E0E" opacity="0.072"/>
    <rect x="1181" y="241" width="1" height="1" fill="#0E0E0E" opacity="0.096"/>
    <rect x="433" y="566" width="2" height="2" fill="#0E0E0E" opacity="0.073"/>
    <rect x="1188" y="600" width="1" height="1" fill="#0E0E0E" opacity="0.040"/>
    <rect x="1475" y="295" width="1" height="1" fill="#0E0E0E" opacity="0.044"/>
    <rect x="989" y="599" width="1" height="1" fill="#0E0E0E" opacity="0.046"/>
    <rect x="1363" y="404" width="2" height="2" fill="#0E0E0E" opacity="0.046"/>
    <rect x="213" y="88" width="2" height="2" fill="#0E0E0E" opacity="0.074"/>
    <rect x="1335" y="515" width="1" height="1" fill="#0E0E0E" opacity="0.057"/>
    <rect x="649" y="404" width="1" height="1" fill="#0E0E0E" opacity="0.080"/>
    <rect x="363" y="558" width="1" height="1" fill="#0E0E0E" opacity="0.050"/>
    <rect x="852" y="385" width="1" height="1" fill="#0E0E0E" opacity="0.060"/>
    <rect x="1470" y="115" width="1" height="1" fill="#0E0E0E" opacity="0.092"/>
    <rect x="890" y="264" width="1" height="1" fill="#0E0E0E" opacity="0.051"/>
    <rect x="1244" y="372" width="1" height="1" fill="#0E0E0E" opacity="0.096"/>
    <rect x="272" y="82" width="2" height="2" fill="#0E0E0E" opacity="0.045"/>
    <rect x="970" y="44" width="1" height="1" fill="#0E0E0E" opacity="0.075"/>
    <rect x="447" y="16" width="2" height="2" fill="#0E0E0E" opacity="0.089"/>
    <rect x="983" y="202" width="1" height="1" fill="#0E0E0E" opacity="0.078"/>
    <rect x="398" y="49" width="2" height="2" fill="#0E0E0E" opacity="0.050"/>
    <rect x="324" y="355" width="2" height="2" fill="#0E0E0E" opacity="0.060"/>
    <rect x="315" y="245" width="1" height="1" fill="#0E0E0E" opacity="0.059"/>
    <rect x="1466" y="339" width="1" height="1" fill="#0E0E0E" opacity="0.049"/>
    <rect x="1009" y="345" width="1" height="1" fill="#0E0E0E" opacity="0.094"/>
    <rect x="482" y="459" width="2" height="2" fill="#0E0E0E" opacity="0.078"/>
    <rect x="285" y="9" width="1" height="1" fill="#0E0E0E" opacity="0.099"/>
    <rect x="671" y="111" width="1" height="1" fill="#0E0E0E" opacity="0.064"/>
    <rect x="290" y="594" width="2" height="2" fill="#0E0E0E" opacity="0.094"/>
    <rect x="1088" y="4" width="1" height="1" fill="#0E0E0E" opacity="0.051"/>
    <rect x="1018" y="118" width="1" height="1" fill="#0E0E0E" opacity="0.049"/>
    <rect x="430" y="184" width="2" height="2" fill="#0E0E0E" opacity="0.099"/>
    <rect x="1046" y="317" width="1" height="1" fill="#0E0E0E" opacity="0.065"/>
    <rect x="1499" y="7" width="1" height="1" fill="#0E0E0E" opacity="0.058"/>
    <rect x="905" y="429" width="1" height="1" fill="#0E0E0E" opacity="0.074"/>
    <rect x="1185" y="18" width="1" height="1" fill="#0E0E0E" opacity="0.079"/>
    <rect x="244" y="162" width="2" height="2" fill="#0E0E0E" opacity="0.091"/>
    <rect x="364" y="337" width="1" height="1" fill="#0E0E0E" opacity="0.097"/>
    <rect x="619" y="325" width="2" height="2" fill="#0E0E0E" opacity="0.058"/>
    <rect x="800" y="477" width="2" height="2" fill="#0E0E0E" opacity="0.058"/>
    <rect x="1412" y="162" width="1" height="1" fill="#0E0E0E" opacity="0.055"/>
    <rect x="93" y="512" width="1" height="1" fill="#0E0E0E" opacity="0.074"/>
    <rect x="708" y="509" width="1" height="1" fill="#0E0E0E" opacity="0.069"/>
    <rect x="196" y="582" width="1" height="1" fill="#0E0E0E" opacity="0.063"/>
    <rect x="1183" y="329" width="2" height="2" fill="#0E0E0E" opacity="0.053"/>
    <rect x="29" y="295" width="2" height="2" fill="#0E0E0E" opacity="0.047"/>
    <rect x="1242" y="85" width="1" height="1" fill="#0E0E0E" opacity="0.088"/>
    <rect x="1429" y="81" width="2" height="2" fill="#0E0E0E" opacity="0.060"/>
    <rect x="655" y="353" width="2" height="2" fill="#0E0E0E" opacity="0.100"/>
    <rect x="912" y="148" width="1" height="1" fill="#0E0E0E" opacity="0.045"/>
    <rect x="1171" y="177" width="2" height="2" fill="#0E0E0E" opacity="0.086"/>
    <rect x="1363" y="444" width="1" height="1" fill="#0E0E0E" opacity="0.076"/>
    <rect x="524" y="213" width="1" height="1" fill="#0E0E0E" opacity="0.078"/>
    <rect x="1159" y="108" width="1" height="1" fill="#0E0E0E" opacity="0.065"/>
    <rect x="1107" y="185" width="2" height="2" fill="#0E0E0E" opacity="0.062"/>
    <rect x="287" y="223" width="1" height="1" fill="#0E0E0E" opacity="0.049"/>
    <rect x="1305" y="529" width="2" height="2" fill="#0E0E0E" opacity="0.053"/>
    <rect x="286" y="54" width="1" height="1" fill="#0E0E0E" opacity="0.048"/>
    <rect x="54" y="272" width="1" height="1" fill="#0E0E0E" opacity="0.062"/>
    <rect x="913" y="343" width="1" height="1" fill="#0E0E0E" opacity="0.055"/>
    <rect x="836" y="569" width="2" height="2" fill="#0E0E0E" opacity="0.094"/>
    <rect x="1302" y="151" width="2" height="2" fill="#0E0E0E" opacity="0.051"/>
    <rect x="724" y="205" width="1" height="1" fill="#0E0E0E" opacity="0.094"/>
    <rect x="1137" y="286" width="1" height="1" fill="#0E0E0E" opacity="0.090"/>
    <rect x="560" y="140" width="2" height="2" fill="#0E0E0E" opacity="0.066"/>
    <rect x="187" y="313" width="2" height="2" fill="#0E0E0E" opacity="0.054"/>
  </g>

  <!-- Ombre d'encre décalée -->
  <text x="755.8662756220889" y="354.67558507559994" class="title" font-size="180"
        fill="#C73E3A" fill-opacity="0.85" text-anchor="middle" dominant-baseline="middle">INSPIRATION</text>

  <!-- Mot principal -->
  <text x="750.0" y="348.0" class="title" font-size="180"
        fill="#0E0E0E" text-anchor="middle" dominant-baseline="middle">INSPIRATION</text>

  <!-- Signature : ligne + point -->
  <line x1="180.0" y1="468.0" x2="480.0" y2="468.0" stroke="#C73E3A" stroke-width="6"/>
  <circle cx="1410.0" cy="108.0" r="12" fill="#C73E3A"/>

  <!-- Clé discrète en coin -->
  <text x="1460" y="570" font-family="ui-monospace, SFMono-Regular, Menlo, monospace" font-size="18" font-weight="500" fill="#0E0E0E" fill-opacity="0.55" text-anchor="end" letter-spacing="2">DEFAULT</text>
</svg>
