<svg xmlns="http://www.w3.org/2000/svg" viewBox="0 0 1500 600" width="1500" height="600">
  <defs>
    <style>
      .title {
        font-family: "Helvetica Neue", "HelveticaNeue-CondensedBold", "Arial Narrow", "Impact", sans-serif;
        font-weight: 900;
        font-stretch: condensed;
        letter-spacing: -0.02em;
      }
    </style>
  </defs>

  <!-- Fond -->
  <rect width="1500" height="600" fill="#0E0E0E"/>

  <!-- Grain sérigraphique -->
  <g>
    <rect x="968" y="511" width="2" height="2" fill="#F4EFE6" opacity="0.095"/>
    <rect x="337" y="298" width="1" height="1" fill="#F4EFE6" opacity="0.059"/>
    <rect x="902" y="583" width="1" height="1" fill="#F4EFE6" opacity="0.060"/>
    <rect x="493" y="91" width="1" height="1" fill="#F4EFE6" opacity="0.064"/>
    <rect x="109" y="385" width="1" height="1" fill="#F4EFE6" opacity="0.077"/>
    <rect x="145" y="437" width="1" height="1" fill="#F4EFE6" opacity="0.098"/>
    <rect x="849" y="389" width="2" height="2" fill="#F4EFE6" opacity="0.096"/>
    <rect x="80" y="352" width="1" height="1" fill="#F4EFE6" opacity="0.054"/>
    <rect x="768" y="500" width="1" height="1" fill="#F4EFE6" opacity="0.083"/>
    <rect x="172" y="93" width="2" height="2" fill="#F4EFE6" opacity="0.049"/>
    <rect x="264" y="554" width="1" height="1" fill="#F4EFE6" opacity="0.046"/>
    <rect x="1095" y="192" width="2" height="2" fill="#F4EFE6" opacity="0.086"/>
    <rect x="102" y="120" width="1" height="1" fill="#F4EFE6" opacity="0.085"/>
    <rect x="302" y="148" width="1" height="1" fill="#F4EFE6" opacity="0.093"/>
    <rect x="962" y="468" width="1" height="1" fill="#F4EFE6" opacity="0.060"/>
    <rect x="482" y="35" width="2" height="2" fill="#F4EFE6" opacity="0.082"/>
    <rect x="1006" y="296" width="1" height="1" fill="#F4EFE6" opacity="0.056"/>
    <rect x="407" y="271" width="2" height="2" fill="#F4EFE6" opacity="0.044"/>
    <rect x="1322" y="369" width="1" height="1" fill="#F4EFE6" opacity="0.054"/>
    <rect x="636" y="61" width="2" height="2" fill="#F4EFE6" opacity="0.065"/>
    <rect x="510" y="322" width="2" height="2" fill="#F4EFE6" opacity="0.045"/>
    <rect x="686" y="13" width="2" height="2" fill="#F4EFE6" opacity="0.095"/>
    <rect x="119" y="523" width="1" height="1" fill="#F4EFE6" opacity="0.044"/>
    <rect x="9" y="237" width="2" height="2" fill="#F4EFE6" opacity="0.043"/>
    <rect x="1020" y="151" width="2" height="2" fill="#F4EFE6" opacity="0.047"/>
    <rect x="849" y="583" width="1" height="1" fill="#F4EFE6" opacity="0.066"/>
    <rect x="282" y="242" width="1" height="1" fill="#F4EFE6" opacity="0.079"/>
    <rect x="429" y="466" width="1" height="1" fill="#F4EFE6" opacity="0.041"/>
    <rect x="641" y="557" width="2" height="2" fill="#F4EFE6" opacity="0.051"/>
    <rect x="821" y="46" width="2" height="2" fill="#F4EFE6" opacity="0.063"/>
    <rect x="1094" y="62" width="1" height="1" fill="#F4EFE6" opacity="0.088"/>
    <rect x="468" y="231" width="2" height="2" fill="#F4EFE6" opacity="0.100"/>
    <rect x="956" y="449" width="2" height="2" fill="#F4EFE6" opacity="0.076"/>
    <rect x="319" y="216" width="1" height="1" fill="#F4EFE6" opacity="0.073"/>
    <rect x="1244" y="295" width="1" height="1" fill="#F4EFE6" opacity="0.051"/>
    <rect x="798" y="441" width="1" height="1" fill="#F4EFE6" opacity="0.099"/>
    <rect x="462" y="183" width="1" height="1" fill="#F4EFE6" opacity="0.065"/>
    <rect x="1134" y="104" width="1" height="1" fill="#F4EFE6" opacity="0.059"/>
    <rect x="556" y="45" width="2" height="2" fill="#F4EFE6" opacity="0.069"/>
    <rect x="1013" y="56" width="1" height="1" fill="#F4EFE6" opacity="0.060"/>
    <rect x="1441" y="195" width="1" height="1" fill="#F4EFE6" opacity="0.074"/>
    <rect x="1431" y="109" width="1" height="1" fill="#F4EFE6" opacity="0.051"/>
    <rect x="161" y="551" width="1" height="1" fill="#F4EFE6" opacity="0.046"/>
    <rect x="349" y="83" width="1" height="1" fill="#F4EFE6" opacity="0.077"/>
    <rect x="1304" y="396" width="1" height="1" fill="#F4EFE6" opacity="0.091"/>
    <rect x="1489" y="317" width="1" height="1" fill="#F4EFE6" opacity="0.078"/>
    <rect x="1244" y="204" width="2" height="2" fill="#F4EFE6" opacity="0.053"/>
    <rect x="212" y="6" width="1" height="1" fill="#F4EFE6" opacity="0.065"/>
    <rect x="1017" y="395" width="1" height="1" fill="#F4EFE6" opacity="0.088"/>
    <rect x="1230" y="157" width="1" height="1" fill="#F4EFE6" opacity="0.071"/>
    <rect x="738" y="203" width="2" height="2" fill="#F4EFE6" opacity="0.064"/>
    <rect x="776" y="232" width="1" height="1" fill="#F4EFE6" opacity="0.047"/>
    <rect x="902" y="427" width="2" height="2" fill="#F4EFE6" opacity="0.084"/>
    <rect x="299" y="292" width="1" height="1" fill="#F4EFE6" opacity="0.043"/>
    <rect x="1299" y="342" width="2" height="2" fill="#F4EFE6" opacity="0.081"/>
    <rect x="1328" y="200" width="1" height="1" fill="#F4EFE6" opacity="0.055"/>
    <rect x="424" y="394" width="1" height="1" fill="#F4EFE6" opacity="0.058"/>
    <rect x="1086" y="33" width="1" height="1" fill="#F4EFE6" opacity="0.046"/>
    <rect x="126" y="294" width="1" height="1" fill="#F4EFE6" opacity="0.057"/>
    <rect x="467" y="524" width="1" height="1" fill="#F4EFE6" opacity="0.070"/>
    <rect x="49" y="456" width="1" height="1" fill="#F4EFE6" opacity="0.086"/>
    <rect x="363" y="531" width="1" height="1" fill="#F4EFE6" opacity="0.046"/>
    <rect x="350" y="559" width="1" height="1" fill="#F4EFE6" opacity="0.063"/>
    <rect x="895" y="111" width="1" height="1" fill="#F4EFE6" opacity="0.078"/>
    <rect x="873" y="385" width="2" height="2" fill="#F4EFE6" opacity="0.063"/>
    <rect x="801" y="133" width="1" height="1" fill="#F4EFE6" opacity="0.094"/>
    <rect x="657" y="265" width="1" height="1" fill="#F4EFE6" opacity="0.044"/>
    <rect x="247" y="513" width="1" height="1" fill="#F4EFE6" opacity="0.055"/>
    <rect x="876" y="265" width="2" height="2" fill="#F4EFE6" opacity="0.064"/>
    <rect x="1021" y="442" width="2" height="2" fill="#F4EFE6" opacity="0.096"/>
    <rect x="1299" y="482" width="2" height="2" fill="#F4EFE6" opacity="0.088"/>
    <rect x="586" y="455" width="2" height="2" fill="#F4EFE6" opacity="0.066"/>
    <rect x="1278" y="14" width="2" height="2" fill="#F4EFE6" opacity="0.073"/>
    <rect x="867" y="529" width="1" height="1" fill="#F4EFE6" opacity="0.042"/>
    <rect x="19" y="120" width="1" height="1" fill="#F4EFE6" opacity="0.070"/>
    <rect x="258" y="231" width="2" height="2" fill="#F4EFE6" opacity="0.079"/>
    <rect x="931" y="115" width="1" height="1" fill="#F4EFE6" opacity="0.089"/>
    <rect x="726" y="350" width="2" height="2" fill="#F4EFE6" opacity="0.066"/>
    <rect x="1400" y="121" width="2" height="2" fill="#F4EFE6" opacity="0.055"/>
    <rect x="43" y="342" width="1" height="1" fill="#F4EFE6" opacity="0.092"/>
    <rect x="1271" y="301" width="1" height="1" fill="#F4EFE6" opacity="0.079"/>
    <rect x="1310" y="256" width="1" height="1" fill="#F4EFE6" opacity="0.075"/>
    <rect x="195" y="199" width="1" height="1" fill="#F4EFE6" opacity="0.062"/>
    <rect x="1052" y="566" width="1" height="1" fill="#F4EFE6" opacity="0.078"/>
    <rect x="46" y="179" width="2" height="2" fill="#F4EFE6" opacity="0.078"/>
    <rect x="1389" y="276" width="1" height="1" fill="#F4EFE6" opacity="0.075"/>
    <rect x="1141" y="580" width="1" height="1" fill="#F4EFE6" opacity="0.069"/>
    <rect x="120" y="341" width="2" height="2" fill="#F4EFE6" opacity="0.069"/>
    <rect x="187" y="104" width="2" height="2" fill="#F4EFE6" opacity="0.071"/>
    <rect x="921" y="422" width="2" height="2" fill="#F4EFE6" opacity="0.079"/>
    <rect x="640" y="419" width="2" height="2" fill="#F4EFE6" opacity="0.054"/>
    <rect x="733" y="553" width="1" height="1" fill="#F4EFE6" opacity="0.042"/>
    <rect x="457" y="148" width="1" height="1" fill="#F4EFE6" opacity="0.042"/>
    <rect x="1026" y="431" width="1" height="1" fill="#F4EFE6" opacity="0.085"/>
    <rect x="58" y="550" width="1" height="1" fill="#F4EFE6" opacity="0.085"/>
    <rect x="221" y="427" width="1" height="1" fill="#F4EFE6" opacity="0.096"/>
    <rect x="937" y="551" width="1" height="1" fill="#F4EFE6" opacity="0.075"/>
    <rect x="127" y="428" width="1" height="1" fill="#F4EFE6" opacity="0.088"/>
    <rect x="187" y="498" width="1" height="1" fill="#F4EFE6" opacity="0.078"/>
    <rect x="842" y="370" width="1" height="1" fill="#F4EFE6" opacity="0.072"/>
    <rect x="1213" y="528" width="1" height="1" fill="#F4EFE6" opacity="0.087"/>
    <rect x="1180" y="51" width="2" height="2" fill="#F4EFE6" opacity="0.059"/>
    <rect x="912" y="589" width="1" height="1" fill="#F4EFE6" opacity="0.059"/>
    <rect x="1187" y="380" width="2" height="2" fill="#F4EFE6" opacity="0.056"/>
    <rect x="1068" y="235" width="1" height="1" fill="#F4EFE6" opacity="0.088"/>
    <rect x="654" y="368" width="1" height="1" fill="#F4EFE6" opacity="0.066"/>
    <rect x="1258" y="588" width="2" height="2" fill="#F4EFE6" opacity="0.050"/>
    <rect x="657" y="133" width="1" height="1" fill="#F4EFE6" opacity="0.099"/>
    <rect x="1173" y="15" width="1" height="1" fill="#F4EFE6" opacity="0.054"/>
    <rect x="587" y="152" width="1" height="1" fill="#F4EFE6" opacity="0.042"/>
    <rect x="192" y="474" width="2" height="2" fill="#F4EFE6" opacity="0.058"/>
    <rect x="521" y="66" width="2" height="2" fill="#F4EFE6" opacity="0.055"/>
    <rect x="965" y="158" width="1" height="1" fill="#F4EFE6" opacity="0.088"/>
    <rect x="983" y="278" width="1" height="1" fill="#F4EFE6" opacity="0.081"/>
    <rect x="1453" y="245" width="1" height="1" fill="#F4EFE6" opacity="0.068"/>
    <rect x="663" y="7" width="2" height="2" fill="#F4EFE6" opacity="0.090"/>
    <rect x="263" y="438" width="1" height="1" fill="#F4EFE6" opacity="0.099"/>
    <rect x="1365" y="127" width="1" height="1" fill="#F4EFE6" opacity="0.076"/>
    <rect x="610" y="272" width="1" height="1" fill="#F4EFE6" opacity="0.059"/>
    <rect x="15" y="193" width="1" height="1" fill="#F4EFE6" opacity="0.049"/>
    <rect x="78" y="423" width="1" height="1" fill="#F4EFE6" opacity="0.048"/>
    <rect x="1026" y="6" width="2" height="2" fill="#F4EFE6" opacity="0.070"/>
    <rect x="201" y="193" width="1" height="1" fill="#F4EFE6" opacity="0.061"/>
    <rect x="1339" y="349" width="1" height="1" fill="#F4EFE6" opacity="0.053"/>
    <rect x="1429" y="27" width="2" height="2" fill="#F4EFE6" opacity="0.047"/>
    <rect x="1269" y="573" width="1" height="1" fill="#F4EFE6" opacity="0.074"/>
    <rect x="924" y="138" width="1" height="1" fill="#F4EFE6" opacity="0.082"/>
    <rect x="80" y="334" width="1" height="1" fill="#F4EFE6" opacity="0.044"/>
    <rect x="1292" y="401" width="1" height="1" fill="#F4EFE6" opacity="0.073"/>
    <rect x="895" y="194" width="1" height="1" fill="#F4EFE6" opacity="0.044"/>
    <rect x="461" y="421" width="1" height="1" fill="#F4EFE6" opacity="0.081"/>
    <rect x="803" y="71" width="2" height="2" fill="#F4EFE6" opacity="0.089"/>
    <rect x="1123" y="328" width="1" height="1" fill="#F4EFE6" opacity="0.088"/>
    <rect x="1261" y="65" width="2" height="2" fill="#F4EFE6" opacity="0.076"/>
    <rect x="155" y="392" width="2" height="2" fill="#F4EFE6" opacity="0.098"/>
    <rect x="733" y="198" width="1" height="1" fill="#F4EFE6" opacity="0.071"/>
    <rect x="1153" y="101" width="1" height="1" fill="#F4EFE6" opacity="0.051"/>
    <rect x="996" y="291" width="1" height="1" fill="#F4EFE6" opacity="0.067"/>
    <rect x="886" y="573" width="1" height="1" fill="#F4EFE6" opacity="0.086"/>
    <rect x="1317" y="462" width="1" height="1" fill="#F4EFE6" opacity="0.053"/>
    <rect x="1313" y="343" width="2" height="2" fill="#F4EFE6" opacity="0.071"/>
    <rect x="1187" y="316" width="2" height="2" fill="#F4EFE6" opacity="0.080"/>
    <rect x="387" y="570" width="1" height="1" fill="#F4EFE6" opacity="0.070"/>
    <rect x="441" y="470" width="1" height="1" fill="#F4EFE6" opacity="0.089"/>
    <rect x="419" y="299" width="1" height="1" fill="#F4EFE6" opacity="0.073"/>
    <rect x="761" y="583" width="2" height="2" fill="#F4EFE6" opacity="0.050"/>
    <rect x="1087" y="150" width="1" height="1" fill="#F4EFE6" opacity="0.095"/>
    <rect x="193" y="58" width="2" height="2" fill="#F4EFE6" opacity="0.057"/>
    <rect x="324" y="210" width="2" height="2" fill="#F4EFE6" opacity="0.067"/>
    <rect x="162" y="552" width="1" height="1" fill="#F4EFE6" opacity="0.046"/>
    <rect x="143" y="236" width="1" height="1" fill="#F4EFE6" opacity="0.082"/>
    <rect x="1264" y="149" width="2" height="2" fill="#F4EFE6" opacity="0.067"/>
    <rect x="390" y="347" width="2" height="2" fill="#F4EFE6" opacity="0.061"/>
    <rect x="533" y="422" width="1" height="1" fill="#F4EFE6" opacity="0.058"/>
    <rect x="91" y="53" width="1" height="1" fill="#F4EFE6" opacity="0.097"/>
    <rect x="1355" y="292" width="1" height="1" fill="#F4EFE6" opacity="0.079"/>
    <rect x="1248" y="406" width="2" height="2" fill="#F4EFE6" opacity="0.069"/>
    <rect x="1101" y="144" width="1" height="1" fill="#F4EFE6" opacity="0.069"/>
    <rect x="226" y="596" width="2" height="2" fill="#F4EFE6" opacity="0.049"/>
    <rect x="1426" y="228" width="1" height="1" fill="#F4EFE6" opacity="0.059"/>
    <rect x="1219" y="394" width="1" height="1" fill="#F4EFE6" opacity="0.048"/>
    <rect x="1002" y="80" width="1" height="1" fill="#F4EFE6" opacity="0.067"/>
    <rect x="399" y="204" width="1" height="1" fill="#F4EFE6" opacity="0.093"/>
    <rect x="652" y="97" width="1" height="1" fill="#F4EFE6" opacity="0.081"/>
    <rect x="140" y="186" width="2" height="2" fill="#F4EFE6" opacity="0.065"/>
    <rect x="1147" y="484" width="1" height="1" fill="#F4EFE6" opacity="0.048"/>
    <rect x="839" y="255" width="2" height="2" fill="#F4EFE6" opacity="0.066"/>
    <rect x="1332" y="379" width="1" height="1" fill="#F4EFE6" opacity="0.082"/>
    <rect x="470" y="340" width="1" height="1" fill="#F4EFE6" opacity="0.089"/>
    <rect x="760" y="241" width="2" height="2" fill="#F4EFE6" opacity="0.091"/>
    <rect x="154" y="161" width="1" height="1" fill="#F4EFE6" opacity="0.057"/>
    <rect x="1267" y="155" width="1" height="1" fill="#F4EFE6" opacity="0.052"/>
    <rect x="871" y="388" width="1" height="1" fill="#F4EFE6" opacity="0.084"/>
    <rect x="288" y="139" width="1" height="1" fill="#F4EFE6" opacity="0.058"/>
    <rect x="650" y="295" width="2" height="2" fill="#F4EFE6" opacity="0.089"/>
    <rect x="1175" y="597" width="1" height="1" fill="#F4EFE6" opacity="0.053"/>
    <rect x="626" y="557" width="2" height="2" fill="#F4EFE6" opacity="0.072"/>
    <rect x="721" y="95" width="1" height="1" fill="#F4EFE6" opacity="0.095"/>
    <rect x="1096" y="322" width="1" height="1" fill="#F4EFE6" opacity="0.065"/>
    <rect x="1197" y="139" width="1" height="1" fill="#F4EFE6" opacity="0.041"/>
  </g>

  <!-- Ombre d'encre décalée -->
  <text x="755.9955494518543" y="354.17903656332373" class="title" font-size="140"
        fill="#C73E3A" fill-opacity="0.85" text-anchor="middle" dominant-baseline="middle">DIALOGUE SOCIAL</text>

  <!-- Mot principal -->
  <text x="750.0" y="348.0" class="title" font-size="140"
        fill="#F4EFE6" text-anchor="middle" dominant-baseline="middle">DIALOGUE SOCIAL</text>

  <!-- Signature : ligne + point -->
  <line x1="180.0" y1="468.0" x2="480.0" y2="468.0" stroke="#C73E3A" stroke-width="6"/>
  <circle cx="1410.0" cy="108.0" r="12" fill="#C73E3A"/>

  <!-- Clé discrète en coin -->
  <text x="1460" y="570" font-family="ui-monospace, SFMono-Regular, Menlo, monospace" font-size="18" font-weight="500" fill="#F4EFE6" fill-opacity="0.55" text-anchor="end" letter-spacing="2">DIALOGUE / SOCIAL</text>
</svg>
