<svg xmlns="http://www.w3.org/2000/svg" viewBox="0 0 1500 600" width="1500" height="600">
  <defs>
    <style>
      .title {
        font-family: "Helvetica Neue", "HelveticaNeue-CondensedBold", "Arial Narrow", "Impact", sans-serif;
        font-weight: 900;
        font-stretch: condensed;
        letter-spacing: -0.02em;
      }
    </style>
  </defs>

  <!-- Fond -->
  <rect width="1500" height="600" fill="#1E4E8C"/>

  <!-- Grain sérigraphique -->
  <g>
    <rect x="545" y="24" width="1" height="1" fill="#F4EFE6" opacity="0.093"/>
    <rect x="709" y="29" width="1" height="1" fill="#F4EFE6" opacity="0.095"/>
    <rect x="482" y="547" width="1" height="1" fill="#F4EFE6" opacity="0.089"/>
    <rect x="921" y="250" width="1" height="1" fill="#F4EFE6" opacity="0.066"/>
    <rect x="825" y="214" width="1" height="1" fill="#F4EFE6" opacity="0.095"/>
    <rect x="580" y="254" width="1" height="1" fill="#F4EFE6" opacity="0.092"/>
    <rect x="979" y="560" width="2" height="2" fill="#F4EFE6" opacity="0.043"/>
    <rect x="664" y="533" width="1" height="1" fill="#F4EFE6" opacity="0.079"/>
    <rect x="590" y="323" width="1" height="1" fill="#F4EFE6" opacity="0.058"/>
    <rect x="347" y="558" width="1" height="1" fill="#F4EFE6" opacity="0.081"/>
    <rect x="1283" y="314" width="2" height="2" fill="#F4EFE6" opacity="0.051"/>
    <rect x="572" y="274" width="2" height="2" fill="#F4EFE6" opacity="0.079"/>
    <rect x="1174" y="531" width="1" height="1" fill="#F4EFE6" opacity="0.090"/>
    <rect x="38" y="169" width="1" height="1" fill="#F4EFE6" opacity="0.054"/>
    <rect x="915" y="221" width="1" height="1" fill="#F4EFE6" opacity="0.050"/>
    <rect x="663" y="125" width="1" height="1" fill="#F4EFE6" opacity="0.065"/>
    <rect x="986" y="116" width="1" height="1" fill="#F4EFE6" opacity="0.060"/>
    <rect x="277" y="56" width="2" height="2" fill="#F4EFE6" opacity="0.059"/>
    <rect x="560" y="449" width="2" height="2" fill="#F4EFE6" opacity="0.086"/>
    <rect x="1091" y="271" width="1" height="1" fill="#F4EFE6" opacity="0.047"/>
    <rect x="1055" y="224" width="1" height="1" fill="#F4EFE6" opacity="0.046"/>
    <rect x="284" y="251" width="1" height="1" fill="#F4EFE6" opacity="0.099"/>
    <rect x="739" y="286" width="1" height="1" fill="#F4EFE6" opacity="0.045"/>
    <rect x="608" y="27" width="2" height="2" fill="#F4EFE6" opacity="0.095"/>
    <rect x="131" y="17" width="1" height="1" fill="#F4EFE6" opacity="0.078"/>
    <rect x="554" y="353" width="2" height="2" fill="#F4EFE6" opacity="0.093"/>
    <rect x="916" y="340" width="1" height="1" fill="#F4EFE6" opacity="0.043"/>
    <rect x="618" y="400" width="2" height="2" fill="#F4EFE6" opacity="0.077"/>
    <rect x="1109" y="278" width="1" height="1" fill="#F4EFE6" opacity="0.094"/>
    <rect x="1254" y="339" width="1" height="1" fill="#F4EFE6" opacity="0.060"/>
    <rect x="128" y="290" width="1" height="1" fill="#F4EFE6" opacity="0.080"/>
    <rect x="1079" y="117" width="1" height="1" fill="#F4EFE6" opacity="0.047"/>
    <rect x="710" y="116" width="1" height="1" fill="#F4EFE6" opacity="0.078"/>
    <rect x="807" y="232" width="1" height="1" fill="#F4EFE6" opacity="0.058"/>
    <rect x="710" y="118" width="1" height="1" fill="#F4EFE6" opacity="0.070"/>
    <rect x="446" y="71" width="2" height="2" fill="#F4EFE6" opacity="0.053"/>
    <rect x="116" y="94" width="2" height="2" fill="#F4EFE6" opacity="0.051"/>
    <rect x="168" y="130" width="1" height="1" fill="#F4EFE6" opacity="0.092"/>
    <rect x="267" y="43" width="1" height="1" fill="#F4EFE6" opacity="0.045"/>
    <rect x="540" y="396" width="1" height="1" fill="#F4EFE6" opacity="0.081"/>
    <rect x="1083" y="418" width="2" height="2" fill="#F4EFE6" opacity="0.063"/>
    <rect x="184" y="572" width="1" height="1" fill="#F4EFE6" opacity="0.045"/>
    <rect x="6" y="12" width="1" height="1" fill="#F4EFE6" opacity="0.049"/>
    <rect x="238" y="341" width="1" height="1" fill="#F4EFE6" opacity="0.080"/>
    <rect x="419" y="536" width="2" height="2" fill="#F4EFE6" opacity="0.088"/>
    <rect x="413" y="371" width="1" height="1" fill="#F4EFE6" opacity="0.047"/>
    <rect x="1363" y="168" width="1" height="1" fill="#F4EFE6" opacity="0.083"/>
    <rect x="674" y="36" width="2" height="2" fill="#F4EFE6" opacity="0.075"/>
    <rect x="543" y="599" width="2" height="2" fill="#F4EFE6" opacity="0.089"/>
    <rect x="795" y="504" width="1" height="1" fill="#F4EFE6" opacity="0.074"/>
    <rect x="597" y="123" width="2" height="2" fill="#F4EFE6" opacity="0.041"/>
    <rect x="1290" y="508" width="1" height="1" fill="#F4EFE6" opacity="0.086"/>
    <rect x="1432" y="165" width="1" height="1" fill="#F4EFE6" opacity="0.078"/>
    <rect x="783" y="287" width="1" height="1" fill="#F4EFE6" opacity="0.051"/>
    <rect x="570" y="265" width="1" height="1" fill="#F4EFE6" opacity="0.054"/>
    <rect x="785" y="575" width="1" height="1" fill="#F4EFE6" opacity="0.051"/>
    <rect x="953" y="517" width="1" height="1" fill="#F4EFE6" opacity="0.077"/>
    <rect x="44" y="538" width="2" height="2" fill="#F4EFE6" opacity="0.081"/>
    <rect x="291" y="480" width="1" height="1" fill="#F4EFE6" opacity="0.046"/>
    <rect x="918" y="580" width="1" height="1" fill="#F4EFE6" opacity="0.083"/>
    <rect x="1149" y="3" width="2" height="2" fill="#F4EFE6" opacity="0.095"/>
    <rect x="1242" y="471" width="1" height="1" fill="#F4EFE6" opacity="0.041"/>
    <rect x="54" y="389" width="1" height="1" fill="#F4EFE6" opacity="0.074"/>
    <rect x="263" y="147" width="1" height="1" fill="#F4EFE6" opacity="0.061"/>
    <rect x="213" y="142" width="1" height="1" fill="#F4EFE6" opacity="0.044"/>
    <rect x="633" y="423" width="1" height="1" fill="#F4EFE6" opacity="0.067"/>
    <rect x="610" y="211" width="1" height="1" fill="#F4EFE6" opacity="0.090"/>
    <rect x="954" y="523" width="1" height="1" fill="#F4EFE6" opacity="0.063"/>
    <rect x="1070" y="406" width="1" height="1" fill="#F4EFE6" opacity="0.050"/>
    <rect x="729" y="330" width="1" height="1" fill="#F4EFE6" opacity="0.089"/>
    <rect x="139" y="495" width="2" height="2" fill="#F4EFE6" opacity="0.094"/>
    <rect x="111" y="83" width="2" height="2" fill="#F4EFE6" opacity="0.084"/>
    <rect x="415" y="221" width="1" height="1" fill="#F4EFE6" opacity="0.062"/>
    <rect x="488" y="243" width="1" height="1" fill="#F4EFE6" opacity="0.092"/>
    <rect x="279" y="485" width="1" height="1" fill="#F4EFE6" opacity="0.066"/>
    <rect x="960" y="438" width="1" height="1" fill="#F4EFE6" opacity="0.053"/>
    <rect x="224" y="441" width="1" height="1" fill="#F4EFE6" opacity="0.062"/>
    <rect x="725" y="566" width="2" height="2" fill="#F4EFE6" opacity="0.044"/>
    <rect x="449" y="347" width="1" height="1" fill="#F4EFE6" opacity="0.048"/>
    <rect x="623" y="514" width="1" height="1" fill="#F4EFE6" opacity="0.043"/>
    <rect x="714" y="542" width="1" height="1" fill="#F4EFE6" opacity="0.065"/>
    <rect x="1358" y="72" width="2" height="2" fill="#F4EFE6" opacity="0.094"/>
    <rect x="618" y="226" width="1" height="1" fill="#F4EFE6" opacity="0.044"/>
    <rect x="86" y="119" width="2" height="2" fill="#F4EFE6" opacity="0.072"/>
    <rect x="221" y="7" width="1" height="1" fill="#F4EFE6" opacity="0.051"/>
    <rect x="1287" y="269" width="2" height="2" fill="#F4EFE6" opacity="0.070"/>
    <rect x="319" y="11" width="1" height="1" fill="#F4EFE6" opacity="0.097"/>
    <rect x="944" y="266" width="1" height="1" fill="#F4EFE6" opacity="0.042"/>
    <rect x="553" y="117" width="2" height="2" fill="#F4EFE6" opacity="0.078"/>
    <rect x="1283" y="388" width="1" height="1" fill="#F4EFE6" opacity="0.094"/>
    <rect x="1367" y="444" width="1" height="1" fill="#F4EFE6" opacity="0.053"/>
    <rect x="1099" y="405" width="1" height="1" fill="#F4EFE6" opacity="0.044"/>
    <rect x="1135" y="473" width="1" height="1" fill="#F4EFE6" opacity="0.049"/>
    <rect x="1366" y="323" width="1" height="1" fill="#F4EFE6" opacity="0.064"/>
    <rect x="1" y="147" width="2" height="2" fill="#F4EFE6" opacity="0.094"/>
    <rect x="761" y="270" width="1" height="1" fill="#F4EFE6" opacity="0.043"/>
    <rect x="707" y="36" width="2" height="2" fill="#F4EFE6" opacity="0.045"/>
    <rect x="625" y="340" width="1" height="1" fill="#F4EFE6" opacity="0.077"/>
    <rect x="100" y="184" width="1" height="1" fill="#F4EFE6" opacity="0.068"/>
    <rect x="334" y="507" width="2" height="2" fill="#F4EFE6" opacity="0.097"/>
    <rect x="100" y="154" width="2" height="2" fill="#F4EFE6" opacity="0.099"/>
    <rect x="367" y="147" width="2" height="2" fill="#F4EFE6" opacity="0.059"/>
    <rect x="67" y="165" width="1" height="1" fill="#F4EFE6" opacity="0.045"/>
    <rect x="247" y="548" width="2" height="2" fill="#F4EFE6" opacity="0.098"/>
    <rect x="343" y="526" width="1" height="1" fill="#F4EFE6" opacity="0.090"/>
    <rect x="785" y="428" width="2" height="2" fill="#F4EFE6" opacity="0.098"/>
    <rect x="797" y="256" width="2" height="2" fill="#F4EFE6" opacity="0.041"/>
    <rect x="1016" y="112" width="2" height="2" fill="#F4EFE6" opacity="0.046"/>
    <rect x="1184" y="442" width="1" height="1" fill="#F4EFE6" opacity="0.051"/>
    <rect x="1423" y="153" width="1" height="1" fill="#F4EFE6" opacity="0.093"/>
    <rect x="1419" y="533" width="1" height="1" fill="#F4EFE6" opacity="0.077"/>
    <rect x="1118" y="568" width="1" height="1" fill="#F4EFE6" opacity="0.095"/>
    <rect x="686" y="62" width="1" height="1" fill="#F4EFE6" opacity="0.084"/>
    <rect x="1224" y="228" width="2" height="2" fill="#F4EFE6" opacity="0.054"/>
    <rect x="1397" y="321" width="1" height="1" fill="#F4EFE6" opacity="0.086"/>
    <rect x="498" y="528" width="1" height="1" fill="#F4EFE6" opacity="0.083"/>
    <rect x="513" y="462" width="2" height="2" fill="#F4EFE6" opacity="0.046"/>
    <rect x="503" y="224" width="1" height="1" fill="#F4EFE6" opacity="0.099"/>
    <rect x="196" y="564" width="2" height="2" fill="#F4EFE6" opacity="0.041"/>
    <rect x="97" y="558" width="1" height="1" fill="#F4EFE6" opacity="0.055"/>
    <rect x="1265" y="92" width="2" height="2" fill="#F4EFE6" opacity="0.041"/>
    <rect x="1151" y="324" width="1" height="1" fill="#F4EFE6" opacity="0.097"/>
    <rect x="1023" y="351" width="1" height="1" fill="#F4EFE6" opacity="0.079"/>
    <rect x="495" y="311" width="1" height="1" fill="#F4EFE6" opacity="0.087"/>
    <rect x="592" y="79" width="2" height="2" fill="#F4EFE6" opacity="0.074"/>
    <rect x="90" y="408" width="1" height="1" fill="#F4EFE6" opacity="0.056"/>
    <rect x="1055" y="595" width="1" height="1" fill="#F4EFE6" opacity="0.056"/>
    <rect x="614" y="526" width="1" height="1" fill="#F4EFE6" opacity="0.071"/>
    <rect x="1269" y="593" width="1" height="1" fill="#F4EFE6" opacity="0.092"/>
    <rect x="240" y="478" width="1" height="1" fill="#F4EFE6" opacity="0.092"/>
    <rect x="422" y="217" width="1" height="1" fill="#F4EFE6" opacity="0.061"/>
    <rect x="876" y="111" width="1" height="1" fill="#F4EFE6" opacity="0.093"/>
    <rect x="939" y="127" width="1" height="1" fill="#F4EFE6" opacity="0.043"/>
    <rect x="834" y="487" width="2" height="2" fill="#F4EFE6" opacity="0.092"/>
    <rect x="217" y="30" width="1" height="1" fill="#F4EFE6" opacity="0.075"/>
    <rect x="1428" y="389" width="1" height="1" fill="#F4EFE6" opacity="0.086"/>
    <rect x="1182" y="561" width="1" height="1" fill="#F4EFE6" opacity="0.046"/>
    <rect x="889" y="70" width="2" height="2" fill="#F4EFE6" opacity="0.079"/>
    <rect x="452" y="261" width="1" height="1" fill="#F4EFE6" opacity="0.045"/>
    <rect x="1413" y="213" width="1" height="1" fill="#F4EFE6" opacity="0.083"/>
    <rect x="683" y="544" width="2" height="2" fill="#F4EFE6" opacity="0.088"/>
    <rect x="40" y="472" width="2" height="2" fill="#F4EFE6" opacity="0.060"/>
    <rect x="1220" y="46" width="1" height="1" fill="#F4EFE6" opacity="0.095"/>
    <rect x="24" y="450" width="1" height="1" fill="#F4EFE6" opacity="0.074"/>
    <rect x="336" y="588" width="1" height="1" fill="#F4EFE6" opacity="0.059"/>
    <rect x="731" y="526" width="2" height="2" fill="#F4EFE6" opacity="0.090"/>
    <rect x="355" y="142" width="1" height="1" fill="#F4EFE6" opacity="0.049"/>
    <rect x="96" y="398" width="2" height="2" fill="#F4EFE6" opacity="0.080"/>
    <rect x="1341" y="481" width="1" height="1" fill="#F4EFE6" opacity="0.067"/>
    <rect x="1035" y="443" width="2" height="2" fill="#F4EFE6" opacity="0.052"/>
    <rect x="852" y="553" width="1" height="1" fill="#F4EFE6" opacity="0.065"/>
    <rect x="991" y="15" width="1" height="1" fill="#F4EFE6" opacity="0.076"/>
    <rect x="478" y="137" width="1" height="1" fill="#F4EFE6" opacity="0.050"/>
    <rect x="133" y="427" width="2" height="2" fill="#F4EFE6" opacity="0.089"/>
    <rect x="895" y="546" width="2" height="2" fill="#F4EFE6" opacity="0.065"/>
    <rect x="1346" y="497" width="2" height="2" fill="#F4EFE6" opacity="0.085"/>
    <rect x="935" y="133" width="1" height="1" fill="#F4EFE6" opacity="0.054"/>
    <rect x="1303" y="14" width="2" height="2" fill="#F4EFE6" opacity="0.053"/>
    <rect x="273" y="377" width="1" height="1" fill="#F4EFE6" opacity="0.046"/>
    <rect x="208" y="566" width="1" height="1" fill="#F4EFE6" opacity="0.088"/>
    <rect x="941" y="544" width="1" height="1" fill="#F4EFE6" opacity="0.061"/>
    <rect x="875" y="418" width="1" height="1" fill="#F4EFE6" opacity="0.042"/>
    <rect x="1407" y="83" width="1" height="1" fill="#F4EFE6" opacity="0.055"/>
    <rect x="1015" y="83" width="1" height="1" fill="#F4EFE6" opacity="0.079"/>
    <rect x="837" y="211" width="1" height="1" fill="#F4EFE6" opacity="0.095"/>
    <rect x="1405" y="427" width="1" height="1" fill="#F4EFE6" opacity="0.076"/>
    <rect x="87" y="299" width="1" height="1" fill="#F4EFE6" opacity="0.093"/>
    <rect x="1103" y="1" width="1" height="1" fill="#F4EFE6" opacity="0.064"/>
    <rect x="86" y="380" width="1" height="1" fill="#F4EFE6" opacity="0.063"/>
    <rect x="1126" y="43" width="1" height="1" fill="#F4EFE6" opacity="0.061"/>
    <rect x="104" y="327" width="1" height="1" fill="#F4EFE6" opacity="0.074"/>
    <rect x="509" y="502" width="1" height="1" fill="#F4EFE6" opacity="0.052"/>
    <rect x="1211" y="80" width="1" height="1" fill="#F4EFE6" opacity="0.087"/>
    <rect x="653" y="330" width="2" height="2" fill="#F4EFE6" opacity="0.073"/>
    <rect x="324" y="270" width="1" height="1" fill="#F4EFE6" opacity="0.076"/>
    <rect x="1159" y="296" width="1" height="1" fill="#F4EFE6" opacity="0.063"/>
    <rect x="1485" y="193" width="2" height="2" fill="#F4EFE6" opacity="0.045"/>
    <rect x="1192" y="7" width="1" height="1" fill="#F4EFE6" opacity="0.070"/>
    <rect x="469" y="458" width="2" height="2" fill="#F4EFE6" opacity="0.097"/>
    <rect x="961" y="524" width="1" height="1" fill="#F4EFE6" opacity="0.078"/>
  </g>

  <!-- Ombre d'encre décalée -->
  <text x="755.7168286218346" y="353.0817112344153" class="title" font-size="240"
        fill="#F5C518" fill-opacity="0.85" text-anchor="middle" dominant-baseline="middle">ÉCONOMIE</text>

  <!-- Mot principal -->
  <text x="750.0" y="348.0" class="title" font-size="240"
        fill="#F4EFE6" text-anchor="middle" dominant-baseline="middle">ÉCONOMIE</text>

  <!-- Signature : ligne + point -->
  <line x1="180.0" y1="468.0" x2="480.0" y2="468.0" stroke="#F5C518" stroke-width="6"/>
  <circle cx="1410.0" cy="108.0" r="12" fill="#F5C518"/>

  <!-- Clé discrète en coin -->
  <text x="1460" y="570" font-family="ui-monospace, SFMono-Regular, Menlo, monospace" font-size="18" font-weight="500" fill="#F4EFE6" fill-opacity="0.55" text-anchor="end" letter-spacing="2">ECONOMIE</text>
</svg>
