<svg xmlns="http://www.w3.org/2000/svg" viewBox="0 0 1500 600" width="1500" height="600">
  <defs>
    <style>
      .title {
        font-family: "Helvetica Neue", "HelveticaNeue-CondensedBold", "Arial Narrow", "Impact", sans-serif;
        font-weight: 900;
        font-stretch: condensed;
        letter-spacing: -0.02em;
      }
    </style>
  </defs>

  <!-- Fond -->
  <rect width="1500" height="600" fill="#0E0E0E"/>

  <!-- Grain sérigraphique -->
  <g>
    <rect x="385" y="54" width="1" height="1" fill="#F4EFE6" opacity="0.064"/>
    <rect x="774" y="227" width="1" height="1" fill="#F4EFE6" opacity="0.058"/>
    <rect x="481" y="85" width="2" height="2" fill="#F4EFE6" opacity="0.084"/>
    <rect x="1091" y="449" width="1" height="1" fill="#F4EFE6" opacity="0.092"/>
    <rect x="707" y="441" width="1" height="1" fill="#F4EFE6" opacity="0.047"/>
    <rect x="1437" y="35" width="1" height="1" fill="#F4EFE6" opacity="0.042"/>
    <rect x="554" y="122" width="1" height="1" fill="#F4EFE6" opacity="0.069"/>
    <rect x="352" y="305" width="2" height="2" fill="#F4EFE6" opacity="0.088"/>
    <rect x="1259" y="290" width="1" height="1" fill="#F4EFE6" opacity="0.040"/>
    <rect x="276" y="358" width="1" height="1" fill="#F4EFE6" opacity="0.070"/>
    <rect x="204" y="176" width="1" height="1" fill="#F4EFE6" opacity="0.070"/>
    <rect x="265" y="162" width="1" height="1" fill="#F4EFE6" opacity="0.043"/>
    <rect x="1079" y="159" width="1" height="1" fill="#F4EFE6" opacity="0.064"/>
    <rect x="36" y="323" width="1" height="1" fill="#F4EFE6" opacity="0.087"/>
    <rect x="443" y="332" width="1" height="1" fill="#F4EFE6" opacity="0.045"/>
    <rect x="1081" y="385" width="2" height="2" fill="#F4EFE6" opacity="0.066"/>
    <rect x="340" y="375" width="2" height="2" fill="#F4EFE6" opacity="0.042"/>
    <rect x="1378" y="66" width="1" height="1" fill="#F4EFE6" opacity="0.048"/>
    <rect x="1092" y="83" width="2" height="2" fill="#F4EFE6" opacity="0.067"/>
    <rect x="1151" y="488" width="1" height="1" fill="#F4EFE6" opacity="0.084"/>
    <rect x="829" y="399" width="1" height="1" fill="#F4EFE6" opacity="0.099"/>
    <rect x="987" y="162" width="1" height="1" fill="#F4EFE6" opacity="0.062"/>
    <rect x="681" y="18" width="1" height="1" fill="#F4EFE6" opacity="0.067"/>
    <rect x="696" y="276" width="2" height="2" fill="#F4EFE6" opacity="0.065"/>
    <rect x="870" y="581" width="2" height="2" fill="#F4EFE6" opacity="0.100"/>
    <rect x="408" y="489" width="1" height="1" fill="#F4EFE6" opacity="0.070"/>
    <rect x="1168" y="543" width="2" height="2" fill="#F4EFE6" opacity="0.060"/>
    <rect x="638" y="430" width="1" height="1" fill="#F4EFE6" opacity="0.058"/>
    <rect x="1356" y="367" width="1" height="1" fill="#F4EFE6" opacity="0.092"/>
    <rect x="1485" y="358" width="1" height="1" fill="#F4EFE6" opacity="0.045"/>
    <rect x="858" y="566" width="2" height="2" fill="#F4EFE6" opacity="0.057"/>
    <rect x="1257" y="177" width="1" height="1" fill="#F4EFE6" opacity="0.082"/>
    <rect x="1058" y="4" width="1" height="1" fill="#F4EFE6" opacity="0.073"/>
    <rect x="1206" y="105" width="2" height="2" fill="#F4EFE6" opacity="0.056"/>
    <rect x="650" y="17" width="2" height="2" fill="#F4EFE6" opacity="0.099"/>
    <rect x="619" y="564" width="1" height="1" fill="#F4EFE6" opacity="0.099"/>
    <rect x="1121" y="300" width="1" height="1" fill="#F4EFE6" opacity="0.048"/>
    <rect x="1220" y="97" width="1" height="1" fill="#F4EFE6" opacity="0.093"/>
    <rect x="659" y="156" width="1" height="1" fill="#F4EFE6" opacity="0.053"/>
    <rect x="557" y="271" width="2" height="2" fill="#F4EFE6" opacity="0.083"/>
    <rect x="221" y="95" width="2" height="2" fill="#F4EFE6" opacity="0.054"/>
    <rect x="560" y="183" width="1" height="1" fill="#F4EFE6" opacity="0.060"/>
    <rect x="660" y="279" width="1" height="1" fill="#F4EFE6" opacity="0.092"/>
    <rect x="284" y="560" width="2" height="2" fill="#F4EFE6" opacity="0.061"/>
    <rect x="1134" y="208" width="1" height="1" fill="#F4EFE6" opacity="0.073"/>
    <rect x="152" y="414" width="1" height="1" fill="#F4EFE6" opacity="0.074"/>
    <rect x="171" y="14" width="1" height="1" fill="#F4EFE6" opacity="0.099"/>
    <rect x="1168" y="291" width="1" height="1" fill="#F4EFE6" opacity="0.089"/>
    <rect x="413" y="487" width="1" height="1" fill="#F4EFE6" opacity="0.083"/>
    <rect x="372" y="353" width="1" height="1" fill="#F4EFE6" opacity="0.068"/>
    <rect x="738" y="547" width="1" height="1" fill="#F4EFE6" opacity="0.065"/>
    <rect x="263" y="237" width="1" height="1" fill="#F4EFE6" opacity="0.084"/>
    <rect x="1405" y="407" width="1" height="1" fill="#F4EFE6" opacity="0.099"/>
    <rect x="637" y="290" width="1" height="1" fill="#F4EFE6" opacity="0.066"/>
    <rect x="1338" y="278" width="1" height="1" fill="#F4EFE6" opacity="0.080"/>
    <rect x="179" y="279" width="1" height="1" fill="#F4EFE6" opacity="0.062"/>
    <rect x="1253" y="579" width="2" height="2" fill="#F4EFE6" opacity="0.091"/>
    <rect x="732" y="436" width="1" height="1" fill="#F4EFE6" opacity="0.099"/>
    <rect x="1091" y="227" width="2" height="2" fill="#F4EFE6" opacity="0.100"/>
    <rect x="415" y="290" width="1" height="1" fill="#F4EFE6" opacity="0.047"/>
    <rect x="396" y="469" width="2" height="2" fill="#F4EFE6" opacity="0.070"/>
    <rect x="1358" y="470" width="1" height="1" fill="#F4EFE6" opacity="0.087"/>
    <rect x="720" y="391" width="2" height="2" fill="#F4EFE6" opacity="0.056"/>
    <rect x="52" y="572" width="1" height="1" fill="#F4EFE6" opacity="0.098"/>
    <rect x="4" y="597" width="1" height="1" fill="#F4EFE6" opacity="0.060"/>
    <rect x="1122" y="281" width="1" height="1" fill="#F4EFE6" opacity="0.091"/>
    <rect x="972" y="227" width="1" height="1" fill="#F4EFE6" opacity="0.068"/>
    <rect x="1130" y="599" width="1" height="1" fill="#F4EFE6" opacity="0.060"/>
    <rect x="332" y="361" width="1" height="1" fill="#F4EFE6" opacity="0.082"/>
    <rect x="82" y="131" width="1" height="1" fill="#F4EFE6" opacity="0.075"/>
    <rect x="324" y="303" width="1" height="1" fill="#F4EFE6" opacity="0.054"/>
    <rect x="1116" y="253" width="2" height="2" fill="#F4EFE6" opacity="0.097"/>
    <rect x="545" y="443" width="1" height="1" fill="#F4EFE6" opacity="0.053"/>
    <rect x="531" y="103" width="1" height="1" fill="#F4EFE6" opacity="0.065"/>
    <rect x="480" y="312" width="1" height="1" fill="#F4EFE6" opacity="0.079"/>
    <rect x="597" y="395" width="1" height="1" fill="#F4EFE6" opacity="0.067"/>
    <rect x="10" y="581" width="1" height="1" fill="#F4EFE6" opacity="0.065"/>
    <rect x="579" y="21" width="1" height="1" fill="#F4EFE6" opacity="0.091"/>
    <rect x="78" y="283" width="1" height="1" fill="#F4EFE6" opacity="0.095"/>
    <rect x="450" y="524" width="2" height="2" fill="#F4EFE6" opacity="0.093"/>
    <rect x="1278" y="448" width="1" height="1" fill="#F4EFE6" opacity="0.076"/>
    <rect x="277" y="225" width="2" height="2" fill="#F4EFE6" opacity="0.081"/>
    <rect x="514" y="170" width="1" height="1" fill="#F4EFE6" opacity="0.083"/>
    <rect x="100" y="49" width="1" height="1" fill="#F4EFE6" opacity="0.063"/>
    <rect x="973" y="328" width="2" height="2" fill="#F4EFE6" opacity="0.057"/>
    <rect x="493" y="586" width="1" height="1" fill="#F4EFE6" opacity="0.066"/>
    <rect x="840" y="445" width="2" height="2" fill="#F4EFE6" opacity="0.075"/>
    <rect x="1018" y="501" width="2" height="2" fill="#F4EFE6" opacity="0.062"/>
    <rect x="1116" y="479" width="1" height="1" fill="#F4EFE6" opacity="0.087"/>
    <rect x="1278" y="529" width="2" height="2" fill="#F4EFE6" opacity="0.043"/>
    <rect x="382" y="157" width="2" height="2" fill="#F4EFE6" opacity="0.062"/>
    <rect x="638" y="439" width="2" height="2" fill="#F4EFE6" opacity="0.070"/>
    <rect x="698" y="218" width="1" height="1" fill="#F4EFE6" opacity="0.054"/>
    <rect x="753" y="419" width="2" height="2" fill="#F4EFE6" opacity="0.098"/>
    <rect x="407" y="484" width="1" height="1" fill="#F4EFE6" opacity="0.053"/>
    <rect x="440" y="127" width="2" height="2" fill="#F4EFE6" opacity="0.082"/>
    <rect x="1288" y="101" width="1" height="1" fill="#F4EFE6" opacity="0.041"/>
    <rect x="546" y="192" width="1" height="1" fill="#F4EFE6" opacity="0.069"/>
    <rect x="1010" y="257" width="1" height="1" fill="#F4EFE6" opacity="0.088"/>
    <rect x="804" y="213" width="1" height="1" fill="#F4EFE6" opacity="0.086"/>
    <rect x="1066" y="108" width="1" height="1" fill="#F4EFE6" opacity="0.090"/>
    <rect x="910" y="431" width="1" height="1" fill="#F4EFE6" opacity="0.083"/>
    <rect x="1377" y="42" width="1" height="1" fill="#F4EFE6" opacity="0.055"/>
    <rect x="467" y="113" width="1" height="1" fill="#F4EFE6" opacity="0.080"/>
    <rect x="768" y="375" width="2" height="2" fill="#F4EFE6" opacity="0.095"/>
    <rect x="436" y="18" width="1" height="1" fill="#F4EFE6" opacity="0.057"/>
    <rect x="307" y="123" width="1" height="1" fill="#F4EFE6" opacity="0.068"/>
    <rect x="844" y="46" width="2" height="2" fill="#F4EFE6" opacity="0.061"/>
    <rect x="533" y="238" width="1" height="1" fill="#F4EFE6" opacity="0.041"/>
    <rect x="1307" y="215" width="1" height="1" fill="#F4EFE6" opacity="0.073"/>
    <rect x="991" y="564" width="2" height="2" fill="#F4EFE6" opacity="0.085"/>
    <rect x="209" y="578" width="2" height="2" fill="#F4EFE6" opacity="0.069"/>
    <rect x="619" y="186" width="1" height="1" fill="#F4EFE6" opacity="0.046"/>
    <rect x="413" y="264" width="1" height="1" fill="#F4EFE6" opacity="0.062"/>
    <rect x="1401" y="108" width="1" height="1" fill="#F4EFE6" opacity="0.074"/>
    <rect x="1057" y="251" width="1" height="1" fill="#F4EFE6" opacity="0.043"/>
    <rect x="895" y="500" width="1" height="1" fill="#F4EFE6" opacity="0.042"/>
    <rect x="1138" y="168" width="2" height="2" fill="#F4EFE6" opacity="0.061"/>
    <rect x="720" y="224" width="1" height="1" fill="#F4EFE6" opacity="0.055"/>
    <rect x="158" y="106" width="1" height="1" fill="#F4EFE6" opacity="0.042"/>
    <rect x="506" y="117" width="1" height="1" fill="#F4EFE6" opacity="0.084"/>
    <rect x="864" y="172" width="1" height="1" fill="#F4EFE6" opacity="0.044"/>
    <rect x="208" y="8" width="1" height="1" fill="#F4EFE6" opacity="0.052"/>
    <rect x="255" y="271" width="1" height="1" fill="#F4EFE6" opacity="0.078"/>
    <rect x="1418" y="27" width="2" height="2" fill="#F4EFE6" opacity="0.093"/>
    <rect x="1425" y="117" width="1" height="1" fill="#F4EFE6" opacity="0.094"/>
    <rect x="1086" y="96" width="2" height="2" fill="#F4EFE6" opacity="0.093"/>
    <rect x="1262" y="484" width="1" height="1" fill="#F4EFE6" opacity="0.066"/>
    <rect x="139" y="360" width="1" height="1" fill="#F4EFE6" opacity="0.061"/>
    <rect x="876" y="413" width="2" height="2" fill="#F4EFE6" opacity="0.057"/>
    <rect x="691" y="452" width="1" height="1" fill="#F4EFE6" opacity="0.069"/>
    <rect x="1381" y="534" width="1" height="1" fill="#F4EFE6" opacity="0.054"/>
    <rect x="1270" y="42" width="1" height="1" fill="#F4EFE6" opacity="0.064"/>
    <rect x="745" y="520" width="1" height="1" fill="#F4EFE6" opacity="0.061"/>
    <rect x="3" y="212" width="1" height="1" fill="#F4EFE6" opacity="0.066"/>
    <rect x="386" y="251" width="1" height="1" fill="#F4EFE6" opacity="0.099"/>
    <rect x="701" y="448" width="2" height="2" fill="#F4EFE6" opacity="0.087"/>
    <rect x="1092" y="180" width="2" height="2" fill="#F4EFE6" opacity="0.052"/>
    <rect x="1257" y="243" width="1" height="1" fill="#F4EFE6" opacity="0.064"/>
    <rect x="1324" y="140" width="1" height="1" fill="#F4EFE6" opacity="0.075"/>
    <rect x="903" y="255" width="1" height="1" fill="#F4EFE6" opacity="0.071"/>
    <rect x="388" y="324" width="1" height="1" fill="#F4EFE6" opacity="0.048"/>
    <rect x="1266" y="278" width="1" height="1" fill="#F4EFE6" opacity="0.065"/>
    <rect x="912" y="211" width="2" height="2" fill="#F4EFE6" opacity="0.077"/>
    <rect x="1320" y="538" width="1" height="1" fill="#F4EFE6" opacity="0.084"/>
    <rect x="1176" y="363" width="1" height="1" fill="#F4EFE6" opacity="0.099"/>
    <rect x="242" y="279" width="2" height="2" fill="#F4EFE6" opacity="0.050"/>
    <rect x="639" y="217" width="2" height="2" fill="#F4EFE6" opacity="0.041"/>
    <rect x="368" y="502" width="1" height="1" fill="#F4EFE6" opacity="0.050"/>
    <rect x="582" y="409" width="1" height="1" fill="#F4EFE6" opacity="0.088"/>
    <rect x="344" y="94" width="2" height="2" fill="#F4EFE6" opacity="0.051"/>
    <rect x="567" y="320" width="1" height="1" fill="#F4EFE6" opacity="0.050"/>
    <rect x="1089" y="242" width="1" height="1" fill="#F4EFE6" opacity="0.040"/>
    <rect x="1166" y="549" width="2" height="2" fill="#F4EFE6" opacity="0.041"/>
    <rect x="1286" y="509" width="1" height="1" fill="#F4EFE6" opacity="0.096"/>
    <rect x="1471" y="228" width="2" height="2" fill="#F4EFE6" opacity="0.063"/>
    <rect x="816" y="312" width="2" height="2" fill="#F4EFE6" opacity="0.045"/>
    <rect x="532" y="494" width="1" height="1" fill="#F4EFE6" opacity="0.042"/>
    <rect x="110" y="323" width="2" height="2" fill="#F4EFE6" opacity="0.084"/>
    <rect x="406" y="425" width="2" height="2" fill="#F4EFE6" opacity="0.093"/>
    <rect x="1342" y="13" width="1" height="1" fill="#F4EFE6" opacity="0.053"/>
    <rect x="481" y="523" width="1" height="1" fill="#F4EFE6" opacity="0.067"/>
    <rect x="91" y="387" width="1" height="1" fill="#F4EFE6" opacity="0.049"/>
    <rect x="1423" y="295" width="1" height="1" fill="#F4EFE6" opacity="0.044"/>
    <rect x="798" y="226" width="1" height="1" fill="#F4EFE6" opacity="0.071"/>
    <rect x="385" y="455" width="1" height="1" fill="#F4EFE6" opacity="0.090"/>
    <rect x="1027" y="182" width="1" height="1" fill="#F4EFE6" opacity="0.061"/>
    <rect x="1330" y="472" width="1" height="1" fill="#F4EFE6" opacity="0.042"/>
    <rect x="67" y="452" width="1" height="1" fill="#F4EFE6" opacity="0.055"/>
    <rect x="951" y="387" width="2" height="2" fill="#F4EFE6" opacity="0.078"/>
    <rect x="290" y="160" width="2" height="2" fill="#F4EFE6" opacity="0.081"/>
    <rect x="1465" y="55" width="2" height="2" fill="#F4EFE6" opacity="0.041"/>
    <rect x="518" y="301" width="1" height="1" fill="#F4EFE6" opacity="0.085"/>
    <rect x="88" y="111" width="1" height="1" fill="#F4EFE6" opacity="0.097"/>
    <rect x="317" y="447" width="1" height="1" fill="#F4EFE6" opacity="0.047"/>
    <rect x="1225" y="402" width="2" height="2" fill="#F4EFE6" opacity="0.094"/>
    <rect x="791" y="243" width="1" height="1" fill="#F4EFE6" opacity="0.093"/>
    <rect x="607" y="543" width="1" height="1" fill="#F4EFE6" opacity="0.046"/>
    <rect x="222" y="473" width="2" height="2" fill="#F4EFE6" opacity="0.068"/>
    <rect x="1188" y="315" width="1" height="1" fill="#F4EFE6" opacity="0.078"/>
  </g>

  <!-- Ombre d'encre décalée -->
  <text x="754.3930359930991" y="353.20718328306015" class="title" font-size="300"
        fill="#1E4E8C" fill-opacity="0.85" text-anchor="middle" dominant-baseline="middle">ÉTHIQUE</text>

  <!-- Mot principal -->
  <text x="750.0" y="348.0" class="title" font-size="300"
        fill="#F4EFE6" text-anchor="middle" dominant-baseline="middle">ÉTHIQUE</text>

  <!-- Signature : ligne + point -->
  <line x1="180.0" y1="468.0" x2="480.0" y2="468.0" stroke="#1E4E8C" stroke-width="6"/>
  <circle cx="1410.0" cy="108.0" r="12" fill="#1E4E8C"/>

  <!-- Clé discrète en coin -->
  <text x="1460" y="570" font-family="ui-monospace, SFMono-Regular, Menlo, monospace" font-size="18" font-weight="500" fill="#F4EFE6" fill-opacity="0.55" text-anchor="end" letter-spacing="2">ETHIQUE</text>
</svg>
