<svg xmlns="http://www.w3.org/2000/svg" viewBox="0 0 1500 600" width="1500" height="600">
  <defs>
    <style>
      .title {
        font-family: "Helvetica Neue", "HelveticaNeue-CondensedBold", "Arial Narrow", "Impact", sans-serif;
        font-weight: 900;
        font-stretch: condensed;
        letter-spacing: -0.02em;
      }
    </style>
  </defs>

  <!-- Fond -->
  <rect width="1500" height="600" fill="#F5C518"/>

  <!-- Grain sérigraphique -->
  <g>
    <rect x="1069" y="454" width="1" height="1" fill="#0E0E0E" opacity="0.066"/>
    <rect x="762" y="498" width="1" height="1" fill="#0E0E0E" opacity="0.055"/>
    <rect x="185" y="530" width="1" height="1" fill="#0E0E0E" opacity="0.043"/>
    <rect x="508" y="144" width="2" height="2" fill="#0E0E0E" opacity="0.071"/>
    <rect x="438" y="490" width="2" height="2" fill="#0E0E0E" opacity="0.063"/>
    <rect x="1275" y="195" width="2" height="2" fill="#0E0E0E" opacity="0.042"/>
    <rect x="436" y="598" width="2" height="2" fill="#0E0E0E" opacity="0.055"/>
    <rect x="991" y="186" width="1" height="1" fill="#0E0E0E" opacity="0.045"/>
    <rect x="528" y="126" width="1" height="1" fill="#0E0E0E" opacity="0.098"/>
    <rect x="1458" y="163" width="1" height="1" fill="#0E0E0E" opacity="0.074"/>
    <rect x="995" y="154" width="2" height="2" fill="#0E0E0E" opacity="0.050"/>
    <rect x="140" y="365" width="2" height="2" fill="#0E0E0E" opacity="0.079"/>
    <rect x="1438" y="219" width="1" height="1" fill="#0E0E0E" opacity="0.054"/>
    <rect x="1252" y="468" width="2" height="2" fill="#0E0E0E" opacity="0.074"/>
    <rect x="1363" y="196" width="2" height="2" fill="#0E0E0E" opacity="0.083"/>
    <rect x="680" y="40" width="1" height="1" fill="#0E0E0E" opacity="0.080"/>
    <rect x="781" y="518" width="2" height="2" fill="#0E0E0E" opacity="0.068"/>
    <rect x="1116" y="437" width="2" height="2" fill="#0E0E0E" opacity="0.046"/>
    <rect x="612" y="114" width="1" height="1" fill="#0E0E0E" opacity="0.087"/>
    <rect x="1405" y="337" width="1" height="1" fill="#0E0E0E" opacity="0.097"/>
    <rect x="574" y="389" width="2" height="2" fill="#0E0E0E" opacity="0.074"/>
    <rect x="1360" y="411" width="1" height="1" fill="#0E0E0E" opacity="0.091"/>
    <rect x="493" y="500" width="1" height="1" fill="#0E0E0E" opacity="0.074"/>
    <rect x="233" y="549" width="1" height="1" fill="#0E0E0E" opacity="0.070"/>
    <rect x="1226" y="50" width="2" height="2" fill="#0E0E0E" opacity="0.043"/>
    <rect x="621" y="45" width="1" height="1" fill="#0E0E0E" opacity="0.041"/>
    <rect x="977" y="334" width="1" height="1" fill="#0E0E0E" opacity="0.073"/>
    <rect x="528" y="407" width="1" height="1" fill="#0E0E0E" opacity="0.058"/>
    <rect x="579" y="581" width="1" height="1" fill="#0E0E0E" opacity="0.086"/>
    <rect x="957" y="128" width="1" height="1" fill="#0E0E0E" opacity="0.080"/>
    <rect x="1217" y="63" width="1" height="1" fill="#0E0E0E" opacity="0.097"/>
    <rect x="1302" y="342" width="1" height="1" fill="#0E0E0E" opacity="0.062"/>
    <rect x="1289" y="55" width="1" height="1" fill="#0E0E0E" opacity="0.050"/>
    <rect x="1140" y="215" width="2" height="2" fill="#0E0E0E" opacity="0.088"/>
    <rect x="1040" y="455" width="2" height="2" fill="#0E0E0E" opacity="0.061"/>
    <rect x="732" y="8" width="1" height="1" fill="#0E0E0E" opacity="0.072"/>
    <rect x="111" y="167" width="1" height="1" fill="#0E0E0E" opacity="0.092"/>
    <rect x="1417" y="354" width="2" height="2" fill="#0E0E0E" opacity="0.042"/>
    <rect x="1178" y="509" width="1" height="1" fill="#0E0E0E" opacity="0.080"/>
    <rect x="1054" y="300" width="1" height="1" fill="#0E0E0E" opacity="0.068"/>
    <rect x="1373" y="310" width="1" height="1" fill="#0E0E0E" opacity="0.045"/>
    <rect x="457" y="90" width="2" height="2" fill="#0E0E0E" opacity="0.066"/>
    <rect x="911" y="573" width="1" height="1" fill="#0E0E0E" opacity="0.098"/>
    <rect x="1034" y="456" width="2" height="2" fill="#0E0E0E" opacity="0.070"/>
    <rect x="541" y="217" width="1" height="1" fill="#0E0E0E" opacity="0.079"/>
    <rect x="1453" y="359" width="1" height="1" fill="#0E0E0E" opacity="0.095"/>
    <rect x="1452" y="222" width="1" height="1" fill="#0E0E0E" opacity="0.072"/>
    <rect x="550" y="163" width="1" height="1" fill="#0E0E0E" opacity="0.087"/>
    <rect x="727" y="211" width="1" height="1" fill="#0E0E0E" opacity="0.097"/>
    <rect x="237" y="242" width="1" height="1" fill="#0E0E0E" opacity="0.080"/>
    <rect x="1134" y="396" width="2" height="2" fill="#0E0E0E" opacity="0.042"/>
    <rect x="1003" y="164" width="2" height="2" fill="#0E0E0E" opacity="0.060"/>
    <rect x="510" y="324" width="2" height="2" fill="#0E0E0E" opacity="0.040"/>
    <rect x="584" y="47" width="1" height="1" fill="#0E0E0E" opacity="0.052"/>
    <rect x="63" y="179" width="1" height="1" fill="#0E0E0E" opacity="0.069"/>
    <rect x="390" y="162" width="1" height="1" fill="#0E0E0E" opacity="0.044"/>
    <rect x="695" y="565" width="2" height="2" fill="#0E0E0E" opacity="0.099"/>
    <rect x="533" y="438" width="1" height="1" fill="#0E0E0E" opacity="0.087"/>
    <rect x="85" y="276" width="1" height="1" fill="#0E0E0E" opacity="0.056"/>
    <rect x="489" y="588" width="1" height="1" fill="#0E0E0E" opacity="0.081"/>
    <rect x="1422" y="31" width="1" height="1" fill="#0E0E0E" opacity="0.058"/>
    <rect x="666" y="247" width="2" height="2" fill="#0E0E0E" opacity="0.069"/>
    <rect x="612" y="360" width="2" height="2" fill="#0E0E0E" opacity="0.075"/>
    <rect x="27" y="383" width="1" height="1" fill="#0E0E0E" opacity="0.042"/>
    <rect x="226" y="473" width="2" height="2" fill="#0E0E0E" opacity="0.092"/>
    <rect x="96" y="599" width="1" height="1" fill="#0E0E0E" opacity="0.067"/>
    <rect x="962" y="148" width="2" height="2" fill="#0E0E0E" opacity="0.049"/>
    <rect x="1402" y="253" width="1" height="1" fill="#0E0E0E" opacity="0.075"/>
    <rect x="93" y="424" width="1" height="1" fill="#0E0E0E" opacity="0.079"/>
    <rect x="837" y="176" width="1" height="1" fill="#0E0E0E" opacity="0.048"/>
    <rect x="686" y="308" width="1" height="1" fill="#0E0E0E" opacity="0.045"/>
    <rect x="1322" y="13" width="1" height="1" fill="#0E0E0E" opacity="0.082"/>
    <rect x="212" y="363" width="1" height="1" fill="#0E0E0E" opacity="0.095"/>
    <rect x="1144" y="376" width="1" height="1" fill="#0E0E0E" opacity="0.096"/>
    <rect x="965" y="262" width="1" height="1" fill="#0E0E0E" opacity="0.095"/>
    <rect x="19" y="415" width="1" height="1" fill="#0E0E0E" opacity="0.062"/>
    <rect x="312" y="526" width="2" height="2" fill="#0E0E0E" opacity="0.068"/>
    <rect x="112" y="190" width="2" height="2" fill="#0E0E0E" opacity="0.057"/>
    <rect x="1453" y="326" width="1" height="1" fill="#0E0E0E" opacity="0.061"/>
    <rect x="1357" y="494" width="1" height="1" fill="#0E0E0E" opacity="0.074"/>
    <rect x="570" y="49" width="1" height="1" fill="#0E0E0E" opacity="0.048"/>
    <rect x="289" y="545" width="1" height="1" fill="#0E0E0E" opacity="0.044"/>
    <rect x="822" y="464" width="1" height="1" fill="#0E0E0E" opacity="0.049"/>
    <rect x="1252" y="268" width="1" height="1" fill="#0E0E0E" opacity="0.093"/>
    <rect x="1191" y="282" width="1" height="1" fill="#0E0E0E" opacity="0.093"/>
    <rect x="325" y="178" width="1" height="1" fill="#0E0E0E" opacity="0.043"/>
    <rect x="518" y="533" width="1" height="1" fill="#0E0E0E" opacity="0.090"/>
    <rect x="742" y="324" width="2" height="2" fill="#0E0E0E" opacity="0.040"/>
    <rect x="284" y="387" width="2" height="2" fill="#0E0E0E" opacity="0.066"/>
    <rect x="1362" y="296" width="1" height="1" fill="#0E0E0E" opacity="0.089"/>
    <rect x="459" y="120" width="2" height="2" fill="#0E0E0E" opacity="0.085"/>
    <rect x="261" y="102" width="2" height="2" fill="#0E0E0E" opacity="0.073"/>
    <rect x="641" y="340" width="1" height="1" fill="#0E0E0E" opacity="0.076"/>
    <rect x="899" y="207" width="1" height="1" fill="#0E0E0E" opacity="0.091"/>
    <rect x="317" y="369" width="1" height="1" fill="#0E0E0E" opacity="0.079"/>
    <rect x="420" y="413" width="2" height="2" fill="#0E0E0E" opacity="0.070"/>
    <rect x="263" y="294" width="1" height="1" fill="#0E0E0E" opacity="0.080"/>
    <rect x="404" y="22" width="1" height="1" fill="#0E0E0E" opacity="0.074"/>
    <rect x="758" y="14" width="2" height="2" fill="#0E0E0E" opacity="0.092"/>
    <rect x="621" y="586" width="1" height="1" fill="#0E0E0E" opacity="0.100"/>
    <rect x="1474" y="492" width="1" height="1" fill="#0E0E0E" opacity="0.065"/>
    <rect x="691" y="118" width="1" height="1" fill="#0E0E0E" opacity="0.058"/>
    <rect x="588" y="535" width="1" height="1" fill="#0E0E0E" opacity="0.068"/>
    <rect x="306" y="135" width="1" height="1" fill="#0E0E0E" opacity="0.100"/>
    <rect x="896" y="440" width="1" height="1" fill="#0E0E0E" opacity="0.043"/>
    <rect x="319" y="162" width="2" height="2" fill="#0E0E0E" opacity="0.082"/>
    <rect x="956" y="31" width="1" height="1" fill="#0E0E0E" opacity="0.065"/>
    <rect x="366" y="36" width="1" height="1" fill="#0E0E0E" opacity="0.091"/>
    <rect x="830" y="353" width="1" height="1" fill="#0E0E0E" opacity="0.050"/>
    <rect x="678" y="99" width="1" height="1" fill="#0E0E0E" opacity="0.055"/>
    <rect x="100" y="287" width="2" height="2" fill="#0E0E0E" opacity="0.091"/>
    <rect x="1368" y="471" width="1" height="1" fill="#0E0E0E" opacity="0.080"/>
    <rect x="881" y="168" width="2" height="2" fill="#0E0E0E" opacity="0.094"/>
    <rect x="1171" y="394" width="2" height="2" fill="#0E0E0E" opacity="0.054"/>
    <rect x="103" y="311" width="1" height="1" fill="#0E0E0E" opacity="0.060"/>
    <rect x="710" y="394" width="1" height="1" fill="#0E0E0E" opacity="0.047"/>
    <rect x="37" y="451" width="2" height="2" fill="#0E0E0E" opacity="0.088"/>
    <rect x="618" y="178" width="1" height="1" fill="#0E0E0E" opacity="0.068"/>
    <rect x="1320" y="10" width="2" height="2" fill="#0E0E0E" opacity="0.083"/>
    <rect x="1266" y="400" width="1" height="1" fill="#0E0E0E" opacity="0.055"/>
    <rect x="862" y="6" width="2" height="2" fill="#0E0E0E" opacity="0.054"/>
    <rect x="135" y="288" width="1" height="1" fill="#0E0E0E" opacity="0.059"/>
    <rect x="1189" y="94" width="1" height="1" fill="#0E0E0E" opacity="0.050"/>
    <rect x="173" y="250" width="1" height="1" fill="#0E0E0E" opacity="0.059"/>
    <rect x="1483" y="176" width="1" height="1" fill="#0E0E0E" opacity="0.082"/>
    <rect x="1390" y="274" width="1" height="1" fill="#0E0E0E" opacity="0.041"/>
    <rect x="1389" y="554" width="1" height="1" fill="#0E0E0E" opacity="0.045"/>
    <rect x="1400" y="388" width="2" height="2" fill="#0E0E0E" opacity="0.084"/>
    <rect x="17" y="436" width="1" height="1" fill="#0E0E0E" opacity="0.044"/>
    <rect x="350" y="229" width="2" height="2" fill="#0E0E0E" opacity="0.072"/>
    <rect x="320" y="535" width="2" height="2" fill="#0E0E0E" opacity="0.063"/>
    <rect x="654" y="503" width="2" height="2" fill="#0E0E0E" opacity="0.041"/>
    <rect x="1363" y="518" width="2" height="2" fill="#0E0E0E" opacity="0.043"/>
    <rect x="127" y="47" width="1" height="1" fill="#0E0E0E" opacity="0.095"/>
    <rect x="501" y="362" width="2" height="2" fill="#0E0E0E" opacity="0.046"/>
    <rect x="835" y="471" width="1" height="1" fill="#0E0E0E" opacity="0.098"/>
    <rect x="219" y="56" width="1" height="1" fill="#0E0E0E" opacity="0.077"/>
    <rect x="972" y="125" width="1" height="1" fill="#0E0E0E" opacity="0.055"/>
    <rect x="543" y="350" width="1" height="1" fill="#0E0E0E" opacity="0.080"/>
    <rect x="214" y="276" width="2" height="2" fill="#0E0E0E" opacity="0.080"/>
    <rect x="472" y="394" width="1" height="1" fill="#0E0E0E" opacity="0.097"/>
    <rect x="1131" y="266" width="1" height="1" fill="#0E0E0E" opacity="0.077"/>
    <rect x="447" y="20" width="1" height="1" fill="#0E0E0E" opacity="0.058"/>
    <rect x="632" y="552" width="2" height="2" fill="#0E0E0E" opacity="0.072"/>
    <rect x="457" y="523" width="1" height="1" fill="#0E0E0E" opacity="0.072"/>
    <rect x="411" y="144" width="2" height="2" fill="#0E0E0E" opacity="0.069"/>
    <rect x="1103" y="271" width="1" height="1" fill="#0E0E0E" opacity="0.045"/>
    <rect x="465" y="567" width="1" height="1" fill="#0E0E0E" opacity="0.050"/>
    <rect x="704" y="265" width="2" height="2" fill="#0E0E0E" opacity="0.066"/>
    <rect x="1075" y="467" width="1" height="1" fill="#0E0E0E" opacity="0.048"/>
    <rect x="1485" y="132" width="2" height="2" fill="#0E0E0E" opacity="0.046"/>
    <rect x="1368" y="495" width="1" height="1" fill="#0E0E0E" opacity="0.048"/>
    <rect x="822" y="498" width="2" height="2" fill="#0E0E0E" opacity="0.049"/>
    <rect x="1136" y="245" width="1" height="1" fill="#0E0E0E" opacity="0.049"/>
    <rect x="66" y="137" width="2" height="2" fill="#0E0E0E" opacity="0.050"/>
    <rect x="1357" y="190" width="1" height="1" fill="#0E0E0E" opacity="0.066"/>
    <rect x="497" y="482" width="1" height="1" fill="#0E0E0E" opacity="0.057"/>
    <rect x="1263" y="137" width="2" height="2" fill="#0E0E0E" opacity="0.067"/>
    <rect x="1096" y="31" width="2" height="2" fill="#0E0E0E" opacity="0.086"/>
    <rect x="103" y="214" width="1" height="1" fill="#0E0E0E" opacity="0.081"/>
    <rect x="1343" y="159" width="1" height="1" fill="#0E0E0E" opacity="0.086"/>
    <rect x="576" y="381" width="1" height="1" fill="#0E0E0E" opacity="0.045"/>
    <rect x="1478" y="419" width="1" height="1" fill="#0E0E0E" opacity="0.043"/>
    <rect x="1090" y="149" width="2" height="2" fill="#0E0E0E" opacity="0.078"/>
    <rect x="1248" y="55" width="1" height="1" fill="#0E0E0E" opacity="0.070"/>
    <rect x="1308" y="90" width="1" height="1" fill="#0E0E0E" opacity="0.062"/>
    <rect x="1108" y="371" width="1" height="1" fill="#0E0E0E" opacity="0.056"/>
    <rect x="24" y="473" width="2" height="2" fill="#0E0E0E" opacity="0.095"/>
    <rect x="1312" y="58" width="1" height="1" fill="#0E0E0E" opacity="0.094"/>
    <rect x="1376" y="174" width="1" height="1" fill="#0E0E0E" opacity="0.044"/>
    <rect x="39" y="531" width="2" height="2" fill="#0E0E0E" opacity="0.091"/>
    <rect x="207" y="260" width="2" height="2" fill="#0E0E0E" opacity="0.096"/>
    <rect x="986" y="536" width="1" height="1" fill="#0E0E0E" opacity="0.047"/>
    <rect x="647" y="212" width="2" height="2" fill="#0E0E0E" opacity="0.078"/>
    <rect x="1018" y="510" width="2" height="2" fill="#0E0E0E" opacity="0.060"/>
    <rect x="1079" y="401" width="1" height="1" fill="#0E0E0E" opacity="0.042"/>
    <rect x="1412" y="102" width="1" height="1" fill="#0E0E0E" opacity="0.080"/>
    <rect x="1234" y="135" width="2" height="2" fill="#0E0E0E" opacity="0.087"/>
    <rect x="640" y="296" width="2" height="2" fill="#0E0E0E" opacity="0.069"/>
    <rect x="84" y="283" width="2" height="2" fill="#0E0E0E" opacity="0.096"/>
  </g>

  <!-- Ombre d'encre décalée -->
  <text x="756.273162552321" y="353.1944654943361" class="title" font-size="180"
        fill="#C73E3A" fill-opacity="0.85" text-anchor="middle" dominant-baseline="middle">IA & MÉTIER</text>

  <!-- Mot principal -->
  <text x="750.0" y="348.0" class="title" font-size="180"
        fill="#0E0E0E" text-anchor="middle" dominant-baseline="middle">IA & MÉTIER</text>

  <!-- Signature : ligne + point -->
  <line x1="180.0" y1="468.0" x2="480.0" y2="468.0" stroke="#C73E3A" stroke-width="6"/>
  <circle cx="1410.0" cy="108.0" r="12" fill="#C73E3A"/>

  <!-- Clé discrète en coin -->
  <text x="1460" y="570" font-family="ui-monospace, SFMono-Regular, Menlo, monospace" font-size="18" font-weight="500" fill="#0E0E0E" fill-opacity="0.55" text-anchor="end" letter-spacing="2">IA / PRATIQUE</text>
</svg>
