<svg xmlns="http://www.w3.org/2000/svg" viewBox="0 0 1500 600" width="1500" height="600">
  <defs>
    <style>
      .title {
        font-family: "Helvetica Neue", "HelveticaNeue-CondensedBold", "Arial Narrow", "Impact", sans-serif;
        font-weight: 900;
        font-stretch: condensed;
        letter-spacing: -0.02em;
      }
    </style>
  </defs>

  <!-- Fond -->
  <rect width="1500" height="600" fill="#F5C518"/>

  <!-- Grain sérigraphique -->
  <g>
    <rect x="1139" y="83" width="2" height="2" fill="#0E0E0E" opacity="0.077"/>
    <rect x="707" y="64" width="1" height="1" fill="#0E0E0E" opacity="0.056"/>
    <rect x="73" y="173" width="2" height="2" fill="#0E0E0E" opacity="0.093"/>
    <rect x="219" y="523" width="1" height="1" fill="#0E0E0E" opacity="0.068"/>
    <rect x="1316" y="382" width="1" height="1" fill="#0E0E0E" opacity="0.075"/>
    <rect x="581" y="576" width="2" height="2" fill="#0E0E0E" opacity="0.050"/>
    <rect x="291" y="375" width="1" height="1" fill="#0E0E0E" opacity="0.053"/>
    <rect x="851" y="35" width="2" height="2" fill="#0E0E0E" opacity="0.044"/>
    <rect x="1329" y="204" width="1" height="1" fill="#0E0E0E" opacity="0.068"/>
    <rect x="519" y="258" width="1" height="1" fill="#0E0E0E" opacity="0.059"/>
    <rect x="1193" y="159" width="1" height="1" fill="#0E0E0E" opacity="0.060"/>
    <rect x="152" y="441" width="1" height="1" fill="#0E0E0E" opacity="0.088"/>
    <rect x="842" y="237" width="1" height="1" fill="#0E0E0E" opacity="0.066"/>
    <rect x="1386" y="464" width="1" height="1" fill="#0E0E0E" opacity="0.063"/>
    <rect x="87" y="397" width="1" height="1" fill="#0E0E0E" opacity="0.078"/>
    <rect x="1022" y="321" width="1" height="1" fill="#0E0E0E" opacity="0.041"/>
    <rect x="1254" y="45" width="1" height="1" fill="#0E0E0E" opacity="0.062"/>
    <rect x="121" y="264" width="1" height="1" fill="#0E0E0E" opacity="0.050"/>
    <rect x="242" y="201" width="1" height="1" fill="#0E0E0E" opacity="0.092"/>
    <rect x="1338" y="404" width="2" height="2" fill="#0E0E0E" opacity="0.045"/>
    <rect x="84" y="456" width="1" height="1" fill="#0E0E0E" opacity="0.100"/>
    <rect x="972" y="67" width="1" height="1" fill="#0E0E0E" opacity="0.078"/>
    <rect x="4" y="441" width="2" height="2" fill="#0E0E0E" opacity="0.076"/>
    <rect x="1218" y="404" width="1" height="1" fill="#0E0E0E" opacity="0.053"/>
    <rect x="951" y="167" width="2" height="2" fill="#0E0E0E" opacity="0.044"/>
    <rect x="452" y="280" width="2" height="2" fill="#0E0E0E" opacity="0.069"/>
    <rect x="445" y="315" width="1" height="1" fill="#0E0E0E" opacity="0.072"/>
    <rect x="1313" y="31" width="1" height="1" fill="#0E0E0E" opacity="0.076"/>
    <rect x="880" y="130" width="1" height="1" fill="#0E0E0E" opacity="0.088"/>
    <rect x="199" y="256" width="2" height="2" fill="#0E0E0E" opacity="0.080"/>
    <rect x="530" y="296" width="1" height="1" fill="#0E0E0E" opacity="0.082"/>
    <rect x="1176" y="307" width="2" height="2" fill="#0E0E0E" opacity="0.058"/>
    <rect x="1178" y="352" width="2" height="2" fill="#0E0E0E" opacity="0.064"/>
    <rect x="593" y="381" width="1" height="1" fill="#0E0E0E" opacity="0.065"/>
    <rect x="135" y="78" width="1" height="1" fill="#0E0E0E" opacity="0.070"/>
    <rect x="659" y="181" width="1" height="1" fill="#0E0E0E" opacity="0.059"/>
    <rect x="1137" y="250" width="1" height="1" fill="#0E0E0E" opacity="0.066"/>
    <rect x="244" y="126" width="2" height="2" fill="#0E0E0E" opacity="0.046"/>
    <rect x="781" y="247" width="1" height="1" fill="#0E0E0E" opacity="0.086"/>
    <rect x="297" y="492" width="1" height="1" fill="#0E0E0E" opacity="0.085"/>
    <rect x="1374" y="94" width="1" height="1" fill="#0E0E0E" opacity="0.065"/>
    <rect x="1466" y="95" width="2" height="2" fill="#0E0E0E" opacity="0.043"/>
    <rect x="991" y="175" width="1" height="1" fill="#0E0E0E" opacity="0.073"/>
    <rect x="1317" y="419" width="1" height="1" fill="#0E0E0E" opacity="0.072"/>
    <rect x="1469" y="422" width="2" height="2" fill="#0E0E0E" opacity="0.059"/>
    <rect x="437" y="190" width="1" height="1" fill="#0E0E0E" opacity="0.094"/>
    <rect x="474" y="415" width="2" height="2" fill="#0E0E0E" opacity="0.040"/>
    <rect x="1239" y="241" width="1" height="1" fill="#0E0E0E" opacity="0.043"/>
    <rect x="951" y="502" width="1" height="1" fill="#0E0E0E" opacity="0.095"/>
    <rect x="9" y="532" width="1" height="1" fill="#0E0E0E" opacity="0.055"/>
    <rect x="328" y="594" width="2" height="2" fill="#0E0E0E" opacity="0.041"/>
    <rect x="182" y="566" width="1" height="1" fill="#0E0E0E" opacity="0.046"/>
    <rect x="428" y="278" width="2" height="2" fill="#0E0E0E" opacity="0.065"/>
    <rect x="437" y="278" width="1" height="1" fill="#0E0E0E" opacity="0.095"/>
    <rect x="470" y="593" width="1" height="1" fill="#0E0E0E" opacity="0.051"/>
    <rect x="1141" y="600" width="1" height="1" fill="#0E0E0E" opacity="0.044"/>
    <rect x="140" y="546" width="1" height="1" fill="#0E0E0E" opacity="0.062"/>
    <rect x="16" y="3" width="1" height="1" fill="#0E0E0E" opacity="0.056"/>
    <rect x="812" y="94" width="1" height="1" fill="#0E0E0E" opacity="0.065"/>
    <rect x="1316" y="125" width="1" height="1" fill="#0E0E0E" opacity="0.062"/>
    <rect x="628" y="33" width="1" height="1" fill="#0E0E0E" opacity="0.086"/>
    <rect x="1121" y="569" width="1" height="1" fill="#0E0E0E" opacity="0.087"/>
    <rect x="1206" y="29" width="1" height="1" fill="#0E0E0E" opacity="0.088"/>
    <rect x="495" y="122" width="1" height="1" fill="#0E0E0E" opacity="0.085"/>
    <rect x="400" y="477" width="1" height="1" fill="#0E0E0E" opacity="0.051"/>
    <rect x="58" y="52" width="2" height="2" fill="#0E0E0E" opacity="0.098"/>
    <rect x="318" y="406" width="2" height="2" fill="#0E0E0E" opacity="0.076"/>
    <rect x="1003" y="197" width="1" height="1" fill="#0E0E0E" opacity="0.049"/>
    <rect x="529" y="420" width="2" height="2" fill="#0E0E0E" opacity="0.085"/>
    <rect x="1479" y="162" width="1" height="1" fill="#0E0E0E" opacity="0.083"/>
    <rect x="22" y="212" width="1" height="1" fill="#0E0E0E" opacity="0.094"/>
    <rect x="29" y="463" width="2" height="2" fill="#0E0E0E" opacity="0.055"/>
    <rect x="588" y="263" width="2" height="2" fill="#0E0E0E" opacity="0.073"/>
    <rect x="287" y="65" width="2" height="2" fill="#0E0E0E" opacity="0.053"/>
    <rect x="670" y="424" width="1" height="1" fill="#0E0E0E" opacity="0.058"/>
    <rect x="1228" y="165" width="1" height="1" fill="#0E0E0E" opacity="0.077"/>
    <rect x="1177" y="427" width="2" height="2" fill="#0E0E0E" opacity="0.047"/>
    <rect x="174" y="283" width="1" height="1" fill="#0E0E0E" opacity="0.056"/>
    <rect x="640" y="393" width="1" height="1" fill="#0E0E0E" opacity="0.081"/>
    <rect x="101" y="47" width="1" height="1" fill="#0E0E0E" opacity="0.046"/>
    <rect x="1108" y="200" width="1" height="1" fill="#0E0E0E" opacity="0.095"/>
    <rect x="884" y="461" width="1" height="1" fill="#0E0E0E" opacity="0.055"/>
    <rect x="75" y="395" width="1" height="1" fill="#0E0E0E" opacity="0.058"/>
    <rect x="493" y="459" width="2" height="2" fill="#0E0E0E" opacity="0.077"/>
    <rect x="1355" y="548" width="2" height="2" fill="#0E0E0E" opacity="0.062"/>
    <rect x="684" y="302" width="1" height="1" fill="#0E0E0E" opacity="0.096"/>
    <rect x="264" y="384" width="2" height="2" fill="#0E0E0E" opacity="0.077"/>
    <rect x="1341" y="466" width="1" height="1" fill="#0E0E0E" opacity="0.083"/>
    <rect x="85" y="253" width="1" height="1" fill="#0E0E0E" opacity="0.073"/>
    <rect x="1342" y="600" width="1" height="1" fill="#0E0E0E" opacity="0.098"/>
    <rect x="35" y="107" width="1" height="1" fill="#0E0E0E" opacity="0.090"/>
    <rect x="204" y="114" width="1" height="1" fill="#0E0E0E" opacity="0.094"/>
    <rect x="357" y="399" width="2" height="2" fill="#0E0E0E" opacity="0.090"/>
    <rect x="450" y="290" width="1" height="1" fill="#0E0E0E" opacity="0.073"/>
    <rect x="856" y="478" width="1" height="1" fill="#0E0E0E" opacity="0.042"/>
    <rect x="70" y="598" width="2" height="2" fill="#0E0E0E" opacity="0.097"/>
    <rect x="25" y="566" width="1" height="1" fill="#0E0E0E" opacity="0.066"/>
    <rect x="855" y="57" width="1" height="1" fill="#0E0E0E" opacity="0.048"/>
    <rect x="1329" y="342" width="2" height="2" fill="#0E0E0E" opacity="0.048"/>
    <rect x="1161" y="158" width="1" height="1" fill="#0E0E0E" opacity="0.064"/>
    <rect x="664" y="532" width="1" height="1" fill="#0E0E0E" opacity="0.081"/>
    <rect x="1414" y="504" width="1" height="1" fill="#0E0E0E" opacity="0.088"/>
    <rect x="536" y="250" width="1" height="1" fill="#0E0E0E" opacity="0.043"/>
    <rect x="115" y="412" width="2" height="2" fill="#0E0E0E" opacity="0.052"/>
    <rect x="748" y="224" width="1" height="1" fill="#0E0E0E" opacity="0.084"/>
    <rect x="884" y="543" width="2" height="2" fill="#0E0E0E" opacity="0.084"/>
    <rect x="18" y="247" width="1" height="1" fill="#0E0E0E" opacity="0.074"/>
    <rect x="387" y="241" width="1" height="1" fill="#0E0E0E" opacity="0.064"/>
    <rect x="1020" y="227" width="1" height="1" fill="#0E0E0E" opacity="0.056"/>
    <rect x="848" y="450" width="2" height="2" fill="#0E0E0E" opacity="0.040"/>
    <rect x="697" y="226" width="2" height="2" fill="#0E0E0E" opacity="0.052"/>
    <rect x="1012" y="577" width="1" height="1" fill="#0E0E0E" opacity="0.057"/>
    <rect x="830" y="386" width="1" height="1" fill="#0E0E0E" opacity="0.089"/>
    <rect x="1273" y="517" width="1" height="1" fill="#0E0E0E" opacity="0.068"/>
    <rect x="849" y="29" width="1" height="1" fill="#0E0E0E" opacity="0.041"/>
    <rect x="995" y="528" width="1" height="1" fill="#0E0E0E" opacity="0.097"/>
    <rect x="284" y="450" width="2" height="2" fill="#0E0E0E" opacity="0.097"/>
    <rect x="171" y="196" width="2" height="2" fill="#0E0E0E" opacity="0.067"/>
    <rect x="377" y="4" width="2" height="2" fill="#0E0E0E" opacity="0.066"/>
    <rect x="578" y="337" width="2" height="2" fill="#0E0E0E" opacity="0.042"/>
    <rect x="1455" y="565" width="1" height="1" fill="#0E0E0E" opacity="0.047"/>
    <rect x="1236" y="372" width="2" height="2" fill="#0E0E0E" opacity="0.076"/>
    <rect x="1165" y="308" width="1" height="1" fill="#0E0E0E" opacity="0.071"/>
    <rect x="495" y="101" width="1" height="1" fill="#0E0E0E" opacity="0.048"/>
    <rect x="559" y="201" width="1" height="1" fill="#0E0E0E" opacity="0.056"/>
    <rect x="114" y="473" width="1" height="1" fill="#0E0E0E" opacity="0.095"/>
    <rect x="1462" y="89" width="1" height="1" fill="#0E0E0E" opacity="0.096"/>
    <rect x="558" y="485" width="2" height="2" fill="#0E0E0E" opacity="0.092"/>
    <rect x="811" y="172" width="1" height="1" fill="#0E0E0E" opacity="0.087"/>
    <rect x="1193" y="350" width="2" height="2" fill="#0E0E0E" opacity="0.064"/>
    <rect x="48" y="110" width="1" height="1" fill="#0E0E0E" opacity="0.056"/>
    <rect x="1175" y="425" width="2" height="2" fill="#0E0E0E" opacity="0.066"/>
    <rect x="1426" y="246" width="2" height="2" fill="#0E0E0E" opacity="0.091"/>
    <rect x="948" y="172" width="2" height="2" fill="#0E0E0E" opacity="0.084"/>
    <rect x="143" y="593" width="1" height="1" fill="#0E0E0E" opacity="0.049"/>
    <rect x="141" y="293" width="2" height="2" fill="#0E0E0E" opacity="0.085"/>
    <rect x="295" y="220" width="2" height="2" fill="#0E0E0E" opacity="0.052"/>
    <rect x="1064" y="456" width="1" height="1" fill="#0E0E0E" opacity="0.073"/>
    <rect x="1419" y="105" width="1" height="1" fill="#0E0E0E" opacity="0.052"/>
    <rect x="690" y="46" width="2" height="2" fill="#0E0E0E" opacity="0.045"/>
    <rect x="1087" y="446" width="1" height="1" fill="#0E0E0E" opacity="0.049"/>
    <rect x="789" y="189" width="1" height="1" fill="#0E0E0E" opacity="0.064"/>
    <rect x="364" y="16" width="1" height="1" fill="#0E0E0E" opacity="0.056"/>
    <rect x="973" y="287" width="1" height="1" fill="#0E0E0E" opacity="0.068"/>
    <rect x="547" y="95" width="2" height="2" fill="#0E0E0E" opacity="0.080"/>
    <rect x="157" y="218" width="2" height="2" fill="#0E0E0E" opacity="0.072"/>
    <rect x="610" y="591" width="2" height="2" fill="#0E0E0E" opacity="0.064"/>
    <rect x="1420" y="152" width="1" height="1" fill="#0E0E0E" opacity="0.049"/>
    <rect x="158" y="221" width="2" height="2" fill="#0E0E0E" opacity="0.050"/>
    <rect x="789" y="433" width="2" height="2" fill="#0E0E0E" opacity="0.076"/>
    <rect x="1202" y="564" width="1" height="1" fill="#0E0E0E" opacity="0.087"/>
    <rect x="249" y="264" width="1" height="1" fill="#0E0E0E" opacity="0.081"/>
    <rect x="580" y="471" width="1" height="1" fill="#0E0E0E" opacity="0.078"/>
    <rect x="1157" y="233" width="2" height="2" fill="#0E0E0E" opacity="0.073"/>
    <rect x="1117" y="570" width="2" height="2" fill="#0E0E0E" opacity="0.049"/>
    <rect x="540" y="389" width="1" height="1" fill="#0E0E0E" opacity="0.087"/>
    <rect x="883" y="342" width="2" height="2" fill="#0E0E0E" opacity="0.046"/>
    <rect x="346" y="301" width="1" height="1" fill="#0E0E0E" opacity="0.064"/>
    <rect x="61" y="417" width="1" height="1" fill="#0E0E0E" opacity="0.089"/>
    <rect x="1321" y="62" width="1" height="1" fill="#0E0E0E" opacity="0.073"/>
    <rect x="47" y="328" width="1" height="1" fill="#0E0E0E" opacity="0.084"/>
    <rect x="1135" y="286" width="2" height="2" fill="#0E0E0E" opacity="0.051"/>
    <rect x="221" y="441" width="2" height="2" fill="#0E0E0E" opacity="0.065"/>
    <rect x="64" y="415" width="1" height="1" fill="#0E0E0E" opacity="0.051"/>
    <rect x="1104" y="442" width="1" height="1" fill="#0E0E0E" opacity="0.099"/>
    <rect x="447" y="134" width="1" height="1" fill="#0E0E0E" opacity="0.041"/>
    <rect x="37" y="364" width="1" height="1" fill="#0E0E0E" opacity="0.048"/>
    <rect x="816" y="126" width="1" height="1" fill="#0E0E0E" opacity="0.044"/>
    <rect x="844" y="504" width="2" height="2" fill="#0E0E0E" opacity="0.060"/>
    <rect x="1352" y="354" width="1" height="1" fill="#0E0E0E" opacity="0.070"/>
    <rect x="433" y="63" width="1" height="1" fill="#0E0E0E" opacity="0.089"/>
    <rect x="545" y="444" width="1" height="1" fill="#0E0E0E" opacity="0.073"/>
    <rect x="1393" y="210" width="1" height="1" fill="#0E0E0E" opacity="0.085"/>
    <rect x="214" y="138" width="1" height="1" fill="#0E0E0E" opacity="0.098"/>
    <rect x="1302" y="9" width="1" height="1" fill="#0E0E0E" opacity="0.074"/>
    <rect x="283" y="499" width="2" height="2" fill="#0E0E0E" opacity="0.084"/>
    <rect x="1171" y="493" width="1" height="1" fill="#0E0E0E" opacity="0.049"/>
    <rect x="679" y="541" width="1" height="1" fill="#0E0E0E" opacity="0.081"/>
    <rect x="231" y="100" width="1" height="1" fill="#0E0E0E" opacity="0.082"/>
    <rect x="870" y="580" width="1" height="1" fill="#0E0E0E" opacity="0.062"/>
  </g>

  <!-- Ombre d'encre décalée -->
  <text x="754.5094872829181" y="352.24690117761344" class="title" font-size="360"
        fill="#0E0E0E" fill-opacity="0.85" text-anchor="middle" dominant-baseline="middle">IA</text>

  <!-- Mot principal -->
  <text x="750.0" y="348.0" class="title" font-size="360"
        fill="#0E0E0E" text-anchor="middle" dominant-baseline="middle">IA</text>

  <!-- Signature : ligne + point -->
  <line x1="180.0" y1="468.0" x2="480.0" y2="468.0" stroke="#0E0E0E" stroke-width="6"/>
  <circle cx="1410.0" cy="108.0" r="12" fill="#0E0E0E"/>

  <!-- Clé discrète en coin -->
  <text x="1460" y="570" font-family="ui-monospace, SFMono-Regular, Menlo, monospace" font-size="18" font-weight="500" fill="#0E0E0E" fill-opacity="0.55" text-anchor="end" letter-spacing="2">IA</text>
</svg>
