<svg xmlns="http://www.w3.org/2000/svg" viewBox="0 0 1500 600" width="1500" height="600">
  <defs>
    <style>
      .title {
        font-family: "Helvetica Neue", "HelveticaNeue-CondensedBold", "Arial Narrow", "Impact", sans-serif;
        font-weight: 900;
        font-stretch: condensed;
        letter-spacing: -0.02em;
      }
    </style>
  </defs>

  <!-- Fond -->
  <rect width="1500" height="600" fill="#F5C518"/>

  <!-- Grain sérigraphique -->
  <g>
    <rect x="749" y="376" width="1" height="1" fill="#0E0E0E" opacity="0.085"/>
    <rect x="40" y="328" width="1" height="1" fill="#0E0E0E" opacity="0.088"/>
    <rect x="381" y="370" width="1" height="1" fill="#0E0E0E" opacity="0.051"/>
    <rect x="226" y="437" width="1" height="1" fill="#0E0E0E" opacity="0.092"/>
    <rect x="546" y="199" width="1" height="1" fill="#0E0E0E" opacity="0.094"/>
    <rect x="1479" y="184" width="1" height="1" fill="#0E0E0E" opacity="0.091"/>
    <rect x="880" y="249" width="1" height="1" fill="#0E0E0E" opacity="0.088"/>
    <rect x="122" y="126" width="1" height="1" fill="#0E0E0E" opacity="0.063"/>
    <rect x="488" y="95" width="1" height="1" fill="#0E0E0E" opacity="0.046"/>
    <rect x="377" y="42" width="1" height="1" fill="#0E0E0E" opacity="0.050"/>
    <rect x="837" y="89" width="2" height="2" fill="#0E0E0E" opacity="0.090"/>
    <rect x="46" y="329" width="1" height="1" fill="#0E0E0E" opacity="0.061"/>
    <rect x="770" y="256" width="1" height="1" fill="#0E0E0E" opacity="0.094"/>
    <rect x="693" y="112" width="1" height="1" fill="#0E0E0E" opacity="0.046"/>
    <rect x="974" y="169" width="1" height="1" fill="#0E0E0E" opacity="0.088"/>
    <rect x="863" y="257" width="1" height="1" fill="#0E0E0E" opacity="0.063"/>
    <rect x="1273" y="587" width="1" height="1" fill="#0E0E0E" opacity="0.060"/>
    <rect x="1253" y="228" width="1" height="1" fill="#0E0E0E" opacity="0.083"/>
    <rect x="248" y="278" width="2" height="2" fill="#0E0E0E" opacity="0.063"/>
    <rect x="110" y="315" width="2" height="2" fill="#0E0E0E" opacity="0.071"/>
    <rect x="667" y="386" width="1" height="1" fill="#0E0E0E" opacity="0.093"/>
    <rect x="970" y="600" width="1" height="1" fill="#0E0E0E" opacity="0.067"/>
    <rect x="672" y="163" width="1" height="1" fill="#0E0E0E" opacity="0.097"/>
    <rect x="514" y="8" width="2" height="2" fill="#0E0E0E" opacity="0.057"/>
    <rect x="728" y="241" width="1" height="1" fill="#0E0E0E" opacity="0.097"/>
    <rect x="1028" y="420" width="1" height="1" fill="#0E0E0E" opacity="0.069"/>
    <rect x="1208" y="144" width="1" height="1" fill="#0E0E0E" opacity="0.076"/>
    <rect x="724" y="469" width="1" height="1" fill="#0E0E0E" opacity="0.064"/>
    <rect x="565" y="494" width="2" height="2" fill="#0E0E0E" opacity="0.060"/>
    <rect x="852" y="235" width="1" height="1" fill="#0E0E0E" opacity="0.050"/>
    <rect x="1091" y="147" width="2" height="2" fill="#0E0E0E" opacity="0.057"/>
    <rect x="768" y="445" width="1" height="1" fill="#0E0E0E" opacity="0.050"/>
    <rect x="248" y="71" width="1" height="1" fill="#0E0E0E" opacity="0.063"/>
    <rect x="1028" y="492" width="2" height="2" fill="#0E0E0E" opacity="0.087"/>
    <rect x="585" y="166" width="1" height="1" fill="#0E0E0E" opacity="0.043"/>
    <rect x="1345" y="506" width="2" height="2" fill="#0E0E0E" opacity="0.063"/>
    <rect x="1354" y="438" width="1" height="1" fill="#0E0E0E" opacity="0.098"/>
    <rect x="661" y="18" width="1" height="1" fill="#0E0E0E" opacity="0.067"/>
    <rect x="753" y="202" width="2" height="2" fill="#0E0E0E" opacity="0.066"/>
    <rect x="114" y="523" width="1" height="1" fill="#0E0E0E" opacity="0.065"/>
    <rect x="268" y="269" width="1" height="1" fill="#0E0E0E" opacity="0.074"/>
    <rect x="1285" y="32" width="1" height="1" fill="#0E0E0E" opacity="0.081"/>
    <rect x="208" y="539" width="1" height="1" fill="#0E0E0E" opacity="0.080"/>
    <rect x="290" y="579" width="2" height="2" fill="#0E0E0E" opacity="0.096"/>
    <rect x="1477" y="250" width="1" height="1" fill="#0E0E0E" opacity="0.064"/>
    <rect x="1280" y="512" width="2" height="2" fill="#0E0E0E" opacity="0.063"/>
    <rect x="122" y="535" width="1" height="1" fill="#0E0E0E" opacity="0.075"/>
    <rect x="832" y="327" width="1" height="1" fill="#0E0E0E" opacity="0.050"/>
    <rect x="783" y="100" width="1" height="1" fill="#0E0E0E" opacity="0.067"/>
    <rect x="546" y="247" width="1" height="1" fill="#0E0E0E" opacity="0.055"/>
    <rect x="1122" y="560" width="2" height="2" fill="#0E0E0E" opacity="0.068"/>
    <rect x="1475" y="156" width="2" height="2" fill="#0E0E0E" opacity="0.048"/>
    <rect x="1177" y="187" width="1" height="1" fill="#0E0E0E" opacity="0.093"/>
    <rect x="831" y="104" width="1" height="1" fill="#0E0E0E" opacity="0.050"/>
    <rect x="1260" y="484" width="1" height="1" fill="#0E0E0E" opacity="0.065"/>
    <rect x="1416" y="514" width="2" height="2" fill="#0E0E0E" opacity="0.045"/>
    <rect x="1302" y="232" width="1" height="1" fill="#0E0E0E" opacity="0.057"/>
    <rect x="924" y="550" width="1" height="1" fill="#0E0E0E" opacity="0.078"/>
    <rect x="761" y="30" width="2" height="2" fill="#0E0E0E" opacity="0.047"/>
    <rect x="349" y="431" width="2" height="2" fill="#0E0E0E" opacity="0.054"/>
    <rect x="885" y="371" width="1" height="1" fill="#0E0E0E" opacity="0.069"/>
    <rect x="1304" y="169" width="1" height="1" fill="#0E0E0E" opacity="0.089"/>
    <rect x="1034" y="373" width="1" height="1" fill="#0E0E0E" opacity="0.089"/>
    <rect x="1375" y="220" width="1" height="1" fill="#0E0E0E" opacity="0.056"/>
    <rect x="974" y="375" width="1" height="1" fill="#0E0E0E" opacity="0.072"/>
    <rect x="846" y="548" width="2" height="2" fill="#0E0E0E" opacity="0.082"/>
    <rect x="890" y="123" width="1" height="1" fill="#0E0E0E" opacity="0.085"/>
    <rect x="624" y="212" width="1" height="1" fill="#0E0E0E" opacity="0.067"/>
    <rect x="1193" y="599" width="1" height="1" fill="#0E0E0E" opacity="0.094"/>
    <rect x="57" y="6" width="1" height="1" fill="#0E0E0E" opacity="0.063"/>
    <rect x="24" y="569" width="2" height="2" fill="#0E0E0E" opacity="0.081"/>
    <rect x="95" y="72" width="1" height="1" fill="#0E0E0E" opacity="0.072"/>
    <rect x="1042" y="198" width="2" height="2" fill="#0E0E0E" opacity="0.086"/>
    <rect x="460" y="66" width="1" height="1" fill="#0E0E0E" opacity="0.083"/>
    <rect x="894" y="432" width="1" height="1" fill="#0E0E0E" opacity="0.082"/>
    <rect x="544" y="395" width="1" height="1" fill="#0E0E0E" opacity="0.045"/>
    <rect x="723" y="163" width="2" height="2" fill="#0E0E0E" opacity="0.055"/>
    <rect x="493" y="425" width="2" height="2" fill="#0E0E0E" opacity="0.081"/>
    <rect x="392" y="251" width="1" height="1" fill="#0E0E0E" opacity="0.067"/>
    <rect x="1264" y="373" width="1" height="1" fill="#0E0E0E" opacity="0.073"/>
    <rect x="1429" y="595" width="2" height="2" fill="#0E0E0E" opacity="0.042"/>
    <rect x="888" y="196" width="1" height="1" fill="#0E0E0E" opacity="0.081"/>
    <rect x="1357" y="272" width="2" height="2" fill="#0E0E0E" opacity="0.096"/>
    <rect x="1259" y="360" width="1" height="1" fill="#0E0E0E" opacity="0.059"/>
    <rect x="541" y="20" width="1" height="1" fill="#0E0E0E" opacity="0.073"/>
    <rect x="700" y="244" width="2" height="2" fill="#0E0E0E" opacity="0.047"/>
    <rect x="852" y="565" width="1" height="1" fill="#0E0E0E" opacity="0.091"/>
    <rect x="1364" y="235" width="1" height="1" fill="#0E0E0E" opacity="0.044"/>
    <rect x="756" y="49" width="1" height="1" fill="#0E0E0E" opacity="0.098"/>
    <rect x="932" y="268" width="1" height="1" fill="#0E0E0E" opacity="0.044"/>
    <rect x="845" y="430" width="1" height="1" fill="#0E0E0E" opacity="0.047"/>
    <rect x="206" y="91" width="1" height="1" fill="#0E0E0E" opacity="0.064"/>
    <rect x="872" y="588" width="1" height="1" fill="#0E0E0E" opacity="0.082"/>
    <rect x="1200" y="449" width="2" height="2" fill="#0E0E0E" opacity="0.048"/>
    <rect x="1491" y="205" width="1" height="1" fill="#0E0E0E" opacity="0.070"/>
    <rect x="680" y="360" width="1" height="1" fill="#0E0E0E" opacity="0.096"/>
    <rect x="1236" y="187" width="2" height="2" fill="#0E0E0E" opacity="0.073"/>
    <rect x="836" y="402" width="2" height="2" fill="#0E0E0E" opacity="0.079"/>
    <rect x="531" y="67" width="1" height="1" fill="#0E0E0E" opacity="0.046"/>
    <rect x="7" y="152" width="1" height="1" fill="#0E0E0E" opacity="0.067"/>
    <rect x="1102" y="165" width="1" height="1" fill="#0E0E0E" opacity="0.070"/>
    <rect x="965" y="357" width="2" height="2" fill="#0E0E0E" opacity="0.087"/>
    <rect x="631" y="593" width="2" height="2" fill="#0E0E0E" opacity="0.086"/>
    <rect x="864" y="76" width="1" height="1" fill="#0E0E0E" opacity="0.080"/>
    <rect x="1254" y="305" width="2" height="2" fill="#0E0E0E" opacity="0.097"/>
    <rect x="403" y="74" width="2" height="2" fill="#0E0E0E" opacity="0.045"/>
    <rect x="693" y="46" width="1" height="1" fill="#0E0E0E" opacity="0.041"/>
    <rect x="279" y="185" width="2" height="2" fill="#0E0E0E" opacity="0.087"/>
    <rect x="1002" y="477" width="1" height="1" fill="#0E0E0E" opacity="0.047"/>
    <rect x="1104" y="308" width="1" height="1" fill="#0E0E0E" opacity="0.040"/>
    <rect x="388" y="76" width="1" height="1" fill="#0E0E0E" opacity="0.058"/>
    <rect x="353" y="90" width="1" height="1" fill="#0E0E0E" opacity="0.044"/>
    <rect x="379" y="265" width="1" height="1" fill="#0E0E0E" opacity="0.098"/>
    <rect x="386" y="201" width="1" height="1" fill="#0E0E0E" opacity="0.090"/>
    <rect x="111" y="282" width="2" height="2" fill="#0E0E0E" opacity="0.043"/>
    <rect x="1070" y="68" width="1" height="1" fill="#0E0E0E" opacity="0.054"/>
    <rect x="33" y="464" width="1" height="1" fill="#0E0E0E" opacity="0.053"/>
    <rect x="684" y="520" width="1" height="1" fill="#0E0E0E" opacity="0.074"/>
    <rect x="1095" y="346" width="1" height="1" fill="#0E0E0E" opacity="0.079"/>
    <rect x="999" y="443" width="1" height="1" fill="#0E0E0E" opacity="0.080"/>
    <rect x="37" y="436" width="1" height="1" fill="#0E0E0E" opacity="0.062"/>
    <rect x="1341" y="274" width="1" height="1" fill="#0E0E0E" opacity="0.088"/>
    <rect x="842" y="319" width="1" height="1" fill="#0E0E0E" opacity="0.044"/>
    <rect x="1090" y="50" width="2" height="2" fill="#0E0E0E" opacity="0.041"/>
    <rect x="48" y="340" width="2" height="2" fill="#0E0E0E" opacity="0.086"/>
    <rect x="831" y="496" width="2" height="2" fill="#0E0E0E" opacity="0.048"/>
    <rect x="509" y="279" width="1" height="1" fill="#0E0E0E" opacity="0.045"/>
    <rect x="792" y="267" width="2" height="2" fill="#0E0E0E" opacity="0.080"/>
    <rect x="1054" y="233" width="1" height="1" fill="#0E0E0E" opacity="0.095"/>
    <rect x="1211" y="358" width="2" height="2" fill="#0E0E0E" opacity="0.098"/>
    <rect x="652" y="62" width="1" height="1" fill="#0E0E0E" opacity="0.092"/>
    <rect x="1254" y="263" width="1" height="1" fill="#0E0E0E" opacity="0.098"/>
    <rect x="190" y="22" width="1" height="1" fill="#0E0E0E" opacity="0.046"/>
    <rect x="318" y="467" width="2" height="2" fill="#0E0E0E" opacity="0.078"/>
    <rect x="434" y="219" width="1" height="1" fill="#0E0E0E" opacity="0.058"/>
    <rect x="1046" y="537" width="1" height="1" fill="#0E0E0E" opacity="0.055"/>
    <rect x="1346" y="111" width="2" height="2" fill="#0E0E0E" opacity="0.072"/>
    <rect x="747" y="456" width="1" height="1" fill="#0E0E0E" opacity="0.041"/>
    <rect x="348" y="384" width="1" height="1" fill="#0E0E0E" opacity="0.092"/>
    <rect x="248" y="417" width="2" height="2" fill="#0E0E0E" opacity="0.076"/>
    <rect x="975" y="336" width="2" height="2" fill="#0E0E0E" opacity="0.094"/>
    <rect x="824" y="75" width="1" height="1" fill="#0E0E0E" opacity="0.074"/>
    <rect x="373" y="293" width="2" height="2" fill="#0E0E0E" opacity="0.084"/>
    <rect x="1027" y="87" width="1" height="1" fill="#0E0E0E" opacity="0.050"/>
    <rect x="612" y="65" width="2" height="2" fill="#0E0E0E" opacity="0.053"/>
    <rect x="1121" y="575" width="1" height="1" fill="#0E0E0E" opacity="0.072"/>
    <rect x="391" y="393" width="2" height="2" fill="#0E0E0E" opacity="0.068"/>
    <rect x="1262" y="105" width="1" height="1" fill="#0E0E0E" opacity="0.063"/>
    <rect x="673" y="504" width="2" height="2" fill="#0E0E0E" opacity="0.096"/>
    <rect x="601" y="456" width="1" height="1" fill="#0E0E0E" opacity="0.095"/>
    <rect x="1371" y="303" width="2" height="2" fill="#0E0E0E" opacity="0.099"/>
    <rect x="547" y="197" width="2" height="2" fill="#0E0E0E" opacity="0.082"/>
    <rect x="513" y="282" width="2" height="2" fill="#0E0E0E" opacity="0.078"/>
    <rect x="210" y="86" width="1" height="1" fill="#0E0E0E" opacity="0.047"/>
    <rect x="15" y="59" width="2" height="2" fill="#0E0E0E" opacity="0.065"/>
    <rect x="1384" y="469" width="1" height="1" fill="#0E0E0E" opacity="0.043"/>
    <rect x="317" y="431" width="2" height="2" fill="#0E0E0E" opacity="0.053"/>
    <rect x="833" y="527" width="1" height="1" fill="#0E0E0E" opacity="0.065"/>
    <rect x="1104" y="314" width="1" height="1" fill="#0E0E0E" opacity="0.075"/>
    <rect x="218" y="336" width="2" height="2" fill="#0E0E0E" opacity="0.043"/>
    <rect x="801" y="347" width="1" height="1" fill="#0E0E0E" opacity="0.070"/>
    <rect x="1466" y="468" width="2" height="2" fill="#0E0E0E" opacity="0.087"/>
    <rect x="684" y="566" width="1" height="1" fill="#0E0E0E" opacity="0.077"/>
    <rect x="1032" y="357" width="1" height="1" fill="#0E0E0E" opacity="0.059"/>
    <rect x="1041" y="66" width="2" height="2" fill="#0E0E0E" opacity="0.092"/>
    <rect x="857" y="377" width="1" height="1" fill="#0E0E0E" opacity="0.048"/>
    <rect x="521" y="241" width="2" height="2" fill="#0E0E0E" opacity="0.093"/>
    <rect x="513" y="137" width="2" height="2" fill="#0E0E0E" opacity="0.057"/>
    <rect x="991" y="152" width="1" height="1" fill="#0E0E0E" opacity="0.096"/>
    <rect x="1350" y="511" width="1" height="1" fill="#0E0E0E" opacity="0.089"/>
    <rect x="297" y="15" width="1" height="1" fill="#0E0E0E" opacity="0.055"/>
    <rect x="958" y="520" width="1" height="1" fill="#0E0E0E" opacity="0.089"/>
    <rect x="309" y="129" width="1" height="1" fill="#0E0E0E" opacity="0.083"/>
    <rect x="235" y="421" width="1" height="1" fill="#0E0E0E" opacity="0.093"/>
    <rect x="549" y="520" width="1" height="1" fill="#0E0E0E" opacity="0.048"/>
    <rect x="298" y="73" width="2" height="2" fill="#0E0E0E" opacity="0.043"/>
    <rect x="1205" y="310" width="1" height="1" fill="#0E0E0E" opacity="0.078"/>
    <rect x="1426" y="377" width="1" height="1" fill="#0E0E0E" opacity="0.078"/>
    <rect x="477" y="27" width="1" height="1" fill="#0E0E0E" opacity="0.099"/>
    <rect x="293" y="325" width="2" height="2" fill="#0E0E0E" opacity="0.094"/>
  </g>

  <!-- Ombre d'encre décalée -->
  <text x="753.7366872903175" y="354.1605392678552" class="title" font-size="240"
        fill="#C73E3A" fill-opacity="0.85" text-anchor="middle" dominant-baseline="middle">INNOVATION</text>

  <!-- Mot principal -->
  <text x="750.0" y="348.0" class="title" font-size="240"
        fill="#0E0E0E" text-anchor="middle" dominant-baseline="middle">INNOVATION</text>

  <!-- Signature : ligne + point -->
  <line x1="180.0" y1="468.0" x2="480.0" y2="468.0" stroke="#C73E3A" stroke-width="6"/>
  <circle cx="1410.0" cy="108.0" r="12" fill="#C73E3A"/>

  <!-- Clé discrète en coin -->
  <text x="1460" y="570" font-family="ui-monospace, SFMono-Regular, Menlo, monospace" font-size="18" font-weight="500" fill="#0E0E0E" fill-opacity="0.55" text-anchor="end" letter-spacing="2">INNOVATION</text>
</svg>
