<svg xmlns="http://www.w3.org/2000/svg" viewBox="0 0 1500 600" width="1500" height="600">
  <defs>
    <style>
      .title {
        font-family: "Helvetica Neue", "HelveticaNeue-CondensedBold", "Arial Narrow", "Impact", sans-serif;
        font-weight: 900;
        font-stretch: condensed;
        letter-spacing: -0.02em;
      }
    </style>
  </defs>

  <!-- Fond -->
  <rect width="1500" height="600" fill="#C73E3A"/>

  <!-- Grain sérigraphique -->
  <g>
    <rect x="453" y="308" width="1" height="1" fill="#F4EFE6" opacity="0.058"/>
    <rect x="187" y="323" width="1" height="1" fill="#F4EFE6" opacity="0.093"/>
    <rect x="134" y="139" width="2" height="2" fill="#F4EFE6" opacity="0.084"/>
    <rect x="1206" y="429" width="1" height="1" fill="#F4EFE6" opacity="0.087"/>
    <rect x="109" y="347" width="1" height="1" fill="#F4EFE6" opacity="0.081"/>
    <rect x="769" y="476" width="2" height="2" fill="#F4EFE6" opacity="0.063"/>
    <rect x="96" y="242" width="1" height="1" fill="#F4EFE6" opacity="0.094"/>
    <rect x="1491" y="223" width="2" height="2" fill="#F4EFE6" opacity="0.068"/>
    <rect x="912" y="409" width="1" height="1" fill="#F4EFE6" opacity="0.078"/>
    <rect x="1252" y="347" width="1" height="1" fill="#F4EFE6" opacity="0.055"/>
    <rect x="662" y="244" width="1" height="1" fill="#F4EFE6" opacity="0.066"/>
    <rect x="929" y="299" width="1" height="1" fill="#F4EFE6" opacity="0.071"/>
    <rect x="250" y="134" width="1" height="1" fill="#F4EFE6" opacity="0.061"/>
    <rect x="1248" y="225" width="1" height="1" fill="#F4EFE6" opacity="0.088"/>
    <rect x="775" y="214" width="2" height="2" fill="#F4EFE6" opacity="0.061"/>
    <rect x="1397" y="251" width="1" height="1" fill="#F4EFE6" opacity="0.093"/>
    <rect x="581" y="13" width="2" height="2" fill="#F4EFE6" opacity="0.048"/>
    <rect x="1177" y="286" width="2" height="2" fill="#F4EFE6" opacity="0.081"/>
    <rect x="960" y="421" width="1" height="1" fill="#F4EFE6" opacity="0.051"/>
    <rect x="1312" y="432" width="2" height="2" fill="#F4EFE6" opacity="0.091"/>
    <rect x="15" y="540" width="1" height="1" fill="#F4EFE6" opacity="0.079"/>
    <rect x="1482" y="220" width="2" height="2" fill="#F4EFE6" opacity="0.057"/>
    <rect x="7" y="37" width="1" height="1" fill="#F4EFE6" opacity="0.066"/>
    <rect x="247" y="596" width="2" height="2" fill="#F4EFE6" opacity="0.081"/>
    <rect x="220" y="168" width="1" height="1" fill="#F4EFE6" opacity="0.063"/>
    <rect x="1332" y="535" width="1" height="1" fill="#F4EFE6" opacity="0.080"/>
    <rect x="720" y="567" width="2" height="2" fill="#F4EFE6" opacity="0.089"/>
    <rect x="1342" y="461" width="1" height="1" fill="#F4EFE6" opacity="0.098"/>
    <rect x="1476" y="75" width="1" height="1" fill="#F4EFE6" opacity="0.051"/>
    <rect x="253" y="168" width="1" height="1" fill="#F4EFE6" opacity="0.086"/>
    <rect x="71" y="370" width="1" height="1" fill="#F4EFE6" opacity="0.060"/>
    <rect x="924" y="226" width="1" height="1" fill="#F4EFE6" opacity="0.054"/>
    <rect x="546" y="591" width="1" height="1" fill="#F4EFE6" opacity="0.057"/>
    <rect x="638" y="505" width="1" height="1" fill="#F4EFE6" opacity="0.066"/>
    <rect x="1163" y="243" width="1" height="1" fill="#F4EFE6" opacity="0.046"/>
    <rect x="957" y="354" width="2" height="2" fill="#F4EFE6" opacity="0.049"/>
    <rect x="1316" y="466" width="1" height="1" fill="#F4EFE6" opacity="0.045"/>
    <rect x="201" y="54" width="1" height="1" fill="#F4EFE6" opacity="0.063"/>
    <rect x="850" y="400" width="2" height="2" fill="#F4EFE6" opacity="0.098"/>
    <rect x="612" y="130" width="1" height="1" fill="#F4EFE6" opacity="0.043"/>
    <rect x="865" y="137" width="1" height="1" fill="#F4EFE6" opacity="0.086"/>
    <rect x="822" y="130" width="1" height="1" fill="#F4EFE6" opacity="0.070"/>
    <rect x="1057" y="406" width="1" height="1" fill="#F4EFE6" opacity="0.045"/>
    <rect x="919" y="87" width="2" height="2" fill="#F4EFE6" opacity="0.040"/>
    <rect x="1362" y="42" width="1" height="1" fill="#F4EFE6" opacity="0.067"/>
    <rect x="945" y="373" width="1" height="1" fill="#F4EFE6" opacity="0.046"/>
    <rect x="664" y="191" width="2" height="2" fill="#F4EFE6" opacity="0.095"/>
    <rect x="748" y="155" width="1" height="1" fill="#F4EFE6" opacity="0.063"/>
    <rect x="1001" y="318" width="1" height="1" fill="#F4EFE6" opacity="0.054"/>
    <rect x="510" y="216" width="2" height="2" fill="#F4EFE6" opacity="0.068"/>
    <rect x="474" y="517" width="2" height="2" fill="#F4EFE6" opacity="0.076"/>
    <rect x="343" y="153" width="1" height="1" fill="#F4EFE6" opacity="0.053"/>
    <rect x="1397" y="182" width="1" height="1" fill="#F4EFE6" opacity="0.066"/>
    <rect x="1445" y="95" width="1" height="1" fill="#F4EFE6" opacity="0.097"/>
    <rect x="828" y="410" width="2" height="2" fill="#F4EFE6" opacity="0.048"/>
    <rect x="523" y="501" width="1" height="1" fill="#F4EFE6" opacity="0.083"/>
    <rect x="439" y="166" width="1" height="1" fill="#F4EFE6" opacity="0.060"/>
    <rect x="282" y="286" width="1" height="1" fill="#F4EFE6" opacity="0.047"/>
    <rect x="953" y="192" width="1" height="1" fill="#F4EFE6" opacity="0.051"/>
    <rect x="841" y="351" width="1" height="1" fill="#F4EFE6" opacity="0.082"/>
    <rect x="898" y="385" width="1" height="1" fill="#F4EFE6" opacity="0.043"/>
    <rect x="632" y="6" width="1" height="1" fill="#F4EFE6" opacity="0.080"/>
    <rect x="803" y="395" width="2" height="2" fill="#F4EFE6" opacity="0.042"/>
    <rect x="1135" y="471" width="1" height="1" fill="#F4EFE6" opacity="0.080"/>
    <rect x="907" y="271" width="1" height="1" fill="#F4EFE6" opacity="0.040"/>
    <rect x="150" y="347" width="1" height="1" fill="#F4EFE6" opacity="0.071"/>
    <rect x="262" y="133" width="1" height="1" fill="#F4EFE6" opacity="0.090"/>
    <rect x="341" y="122" width="1" height="1" fill="#F4EFE6" opacity="0.074"/>
    <rect x="489" y="223" width="2" height="2" fill="#F4EFE6" opacity="0.079"/>
    <rect x="366" y="324" width="1" height="1" fill="#F4EFE6" opacity="0.091"/>
    <rect x="408" y="62" width="1" height="1" fill="#F4EFE6" opacity="0.098"/>
    <rect x="680" y="86" width="2" height="2" fill="#F4EFE6" opacity="0.075"/>
    <rect x="856" y="534" width="1" height="1" fill="#F4EFE6" opacity="0.047"/>
    <rect x="395" y="316" width="1" height="1" fill="#F4EFE6" opacity="0.089"/>
    <rect x="298" y="251" width="2" height="2" fill="#F4EFE6" opacity="0.073"/>
    <rect x="396" y="51" width="2" height="2" fill="#F4EFE6" opacity="0.089"/>
    <rect x="375" y="268" width="1" height="1" fill="#F4EFE6" opacity="0.072"/>
    <rect x="1009" y="533" width="1" height="1" fill="#F4EFE6" opacity="0.069"/>
    <rect x="23" y="189" width="1" height="1" fill="#F4EFE6" opacity="0.053"/>
    <rect x="921" y="379" width="1" height="1" fill="#F4EFE6" opacity="0.071"/>
    <rect x="1410" y="227" width="1" height="1" fill="#F4EFE6" opacity="0.093"/>
    <rect x="787" y="502" width="2" height="2" fill="#F4EFE6" opacity="0.097"/>
    <rect x="61" y="250" width="2" height="2" fill="#F4EFE6" opacity="0.064"/>
    <rect x="153" y="508" width="1" height="1" fill="#F4EFE6" opacity="0.045"/>
    <rect x="849" y="495" width="2" height="2" fill="#F4EFE6" opacity="0.094"/>
    <rect x="1403" y="318" width="1" height="1" fill="#F4EFE6" opacity="0.074"/>
    <rect x="993" y="497" width="1" height="1" fill="#F4EFE6" opacity="0.045"/>
    <rect x="264" y="422" width="1" height="1" fill="#F4EFE6" opacity="0.063"/>
    <rect x="432" y="553" width="1" height="1" fill="#F4EFE6" opacity="0.053"/>
    <rect x="1397" y="299" width="1" height="1" fill="#F4EFE6" opacity="0.056"/>
    <rect x="776" y="449" width="1" height="1" fill="#F4EFE6" opacity="0.066"/>
    <rect x="1083" y="17" width="1" height="1" fill="#F4EFE6" opacity="0.056"/>
    <rect x="960" y="230" width="1" height="1" fill="#F4EFE6" opacity="0.092"/>
    <rect x="1197" y="359" width="2" height="2" fill="#F4EFE6" opacity="0.079"/>
    <rect x="236" y="194" width="1" height="1" fill="#F4EFE6" opacity="0.045"/>
    <rect x="556" y="522" width="1" height="1" fill="#F4EFE6" opacity="0.055"/>
    <rect x="692" y="34" width="1" height="1" fill="#F4EFE6" opacity="0.088"/>
    <rect x="1497" y="363" width="1" height="1" fill="#F4EFE6" opacity="0.061"/>
    <rect x="1278" y="289" width="1" height="1" fill="#F4EFE6" opacity="0.073"/>
    <rect x="1058" y="221" width="2" height="2" fill="#F4EFE6" opacity="0.073"/>
    <rect x="912" y="393" width="1" height="1" fill="#F4EFE6" opacity="0.041"/>
    <rect x="448" y="523" width="1" height="1" fill="#F4EFE6" opacity="0.056"/>
    <rect x="410" y="51" width="1" height="1" fill="#F4EFE6" opacity="0.049"/>
    <rect x="1462" y="429" width="1" height="1" fill="#F4EFE6" opacity="0.050"/>
    <rect x="534" y="317" width="2" height="2" fill="#F4EFE6" opacity="0.067"/>
    <rect x="243" y="249" width="1" height="1" fill="#F4EFE6" opacity="0.066"/>
    <rect x="19" y="185" width="1" height="1" fill="#F4EFE6" opacity="0.089"/>
    <rect x="1024" y="164" width="1" height="1" fill="#F4EFE6" opacity="0.076"/>
    <rect x="579" y="222" width="1" height="1" fill="#F4EFE6" opacity="0.088"/>
    <rect x="802" y="44" width="2" height="2" fill="#F4EFE6" opacity="0.087"/>
    <rect x="267" y="41" width="2" height="2" fill="#F4EFE6" opacity="0.068"/>
    <rect x="1234" y="76" width="2" height="2" fill="#F4EFE6" opacity="0.084"/>
    <rect x="1376" y="357" width="2" height="2" fill="#F4EFE6" opacity="0.045"/>
    <rect x="177" y="452" width="1" height="1" fill="#F4EFE6" opacity="0.071"/>
    <rect x="1184" y="215" width="1" height="1" fill="#F4EFE6" opacity="0.057"/>
    <rect x="898" y="5" width="1" height="1" fill="#F4EFE6" opacity="0.072"/>
    <rect x="1014" y="255" width="1" height="1" fill="#F4EFE6" opacity="0.090"/>
    <rect x="1282" y="559" width="1" height="1" fill="#F4EFE6" opacity="0.071"/>
    <rect x="1302" y="326" width="1" height="1" fill="#F4EFE6" opacity="0.056"/>
    <rect x="934" y="304" width="1" height="1" fill="#F4EFE6" opacity="0.065"/>
    <rect x="1062" y="60" width="2" height="2" fill="#F4EFE6" opacity="0.065"/>
    <rect x="221" y="422" width="1" height="1" fill="#F4EFE6" opacity="0.042"/>
    <rect x="755" y="251" width="2" height="2" fill="#F4EFE6" opacity="0.093"/>
    <rect x="896" y="455" width="2" height="2" fill="#F4EFE6" opacity="0.090"/>
    <rect x="1301" y="86" width="2" height="2" fill="#F4EFE6" opacity="0.083"/>
    <rect x="1324" y="534" width="1" height="1" fill="#F4EFE6" opacity="0.086"/>
    <rect x="917" y="380" width="1" height="1" fill="#F4EFE6" opacity="0.084"/>
    <rect x="983" y="563" width="2" height="2" fill="#F4EFE6" opacity="0.090"/>
    <rect x="628" y="13" width="2" height="2" fill="#F4EFE6" opacity="0.056"/>
    <rect x="997" y="461" width="2" height="2" fill="#F4EFE6" opacity="0.097"/>
    <rect x="1128" y="173" width="1" height="1" fill="#F4EFE6" opacity="0.041"/>
    <rect x="1470" y="492" width="1" height="1" fill="#F4EFE6" opacity="0.062"/>
    <rect x="418" y="206" width="1" height="1" fill="#F4EFE6" opacity="0.070"/>
    <rect x="802" y="126" width="1" height="1" fill="#F4EFE6" opacity="0.098"/>
    <rect x="241" y="200" width="1" height="1" fill="#F4EFE6" opacity="0.090"/>
    <rect x="698" y="284" width="2" height="2" fill="#F4EFE6" opacity="0.063"/>
    <rect x="1067" y="405" width="1" height="1" fill="#F4EFE6" opacity="0.042"/>
    <rect x="1284" y="146" width="1" height="1" fill="#F4EFE6" opacity="0.063"/>
    <rect x="121" y="32" width="2" height="2" fill="#F4EFE6" opacity="0.085"/>
    <rect x="460" y="404" width="1" height="1" fill="#F4EFE6" opacity="0.081"/>
    <rect x="652" y="447" width="1" height="1" fill="#F4EFE6" opacity="0.057"/>
    <rect x="211" y="124" width="1" height="1" fill="#F4EFE6" opacity="0.065"/>
    <rect x="265" y="128" width="1" height="1" fill="#F4EFE6" opacity="0.045"/>
    <rect x="971" y="93" width="1" height="1" fill="#F4EFE6" opacity="0.052"/>
    <rect x="168" y="412" width="1" height="1" fill="#F4EFE6" opacity="0.085"/>
    <rect x="945" y="284" width="2" height="2" fill="#F4EFE6" opacity="0.045"/>
    <rect x="778" y="504" width="2" height="2" fill="#F4EFE6" opacity="0.087"/>
    <rect x="902" y="223" width="1" height="1" fill="#F4EFE6" opacity="0.042"/>
    <rect x="953" y="225" width="2" height="2" fill="#F4EFE6" opacity="0.064"/>
    <rect x="1491" y="73" width="1" height="1" fill="#F4EFE6" opacity="0.092"/>
    <rect x="1100" y="506" width="2" height="2" fill="#F4EFE6" opacity="0.094"/>
    <rect x="1447" y="301" width="1" height="1" fill="#F4EFE6" opacity="0.071"/>
    <rect x="223" y="311" width="1" height="1" fill="#F4EFE6" opacity="0.060"/>
    <rect x="1451" y="130" width="1" height="1" fill="#F4EFE6" opacity="0.062"/>
    <rect x="1131" y="358" width="1" height="1" fill="#F4EFE6" opacity="0.088"/>
    <rect x="225" y="576" width="2" height="2" fill="#F4EFE6" opacity="0.066"/>
    <rect x="780" y="415" width="1" height="1" fill="#F4EFE6" opacity="0.065"/>
    <rect x="791" y="43" width="1" height="1" fill="#F4EFE6" opacity="0.056"/>
    <rect x="232" y="547" width="1" height="1" fill="#F4EFE6" opacity="0.079"/>
    <rect x="734" y="204" width="1" height="1" fill="#F4EFE6" opacity="0.075"/>
    <rect x="1453" y="13" width="1" height="1" fill="#F4EFE6" opacity="0.066"/>
    <rect x="267" y="126" width="2" height="2" fill="#F4EFE6" opacity="0.075"/>
    <rect x="374" y="389" width="1" height="1" fill="#F4EFE6" opacity="0.070"/>
    <rect x="1387" y="593" width="2" height="2" fill="#F4EFE6" opacity="0.066"/>
    <rect x="1045" y="433" width="1" height="1" fill="#F4EFE6" opacity="0.064"/>
    <rect x="1242" y="222" width="1" height="1" fill="#F4EFE6" opacity="0.077"/>
    <rect x="513" y="473" width="1" height="1" fill="#F4EFE6" opacity="0.072"/>
    <rect x="214" y="259" width="1" height="1" fill="#F4EFE6" opacity="0.070"/>
    <rect x="1359" y="408" width="1" height="1" fill="#F4EFE6" opacity="0.080"/>
    <rect x="975" y="238" width="2" height="2" fill="#F4EFE6" opacity="0.088"/>
    <rect x="268" y="512" width="1" height="1" fill="#F4EFE6" opacity="0.097"/>
    <rect x="1064" y="282" width="1" height="1" fill="#F4EFE6" opacity="0.054"/>
    <rect x="645" y="96" width="1" height="1" fill="#F4EFE6" opacity="0.057"/>
    <rect x="1325" y="126" width="1" height="1" fill="#F4EFE6" opacity="0.057"/>
    <rect x="1108" y="367" width="2" height="2" fill="#F4EFE6" opacity="0.076"/>
    <rect x="285" y="376" width="2" height="2" fill="#F4EFE6" opacity="0.078"/>
    <rect x="1116" y="161" width="1" height="1" fill="#F4EFE6" opacity="0.065"/>
    <rect x="211" y="45" width="1" height="1" fill="#F4EFE6" opacity="0.092"/>
    <rect x="159" y="102" width="1" height="1" fill="#F4EFE6" opacity="0.079"/>
    <rect x="1155" y="221" width="1" height="1" fill="#F4EFE6" opacity="0.043"/>
  </g>

  <!-- Ombre d'encre décalée -->
  <text x="756.8648004286042" y="353.46774427342996" class="title" font-size="240"
        fill="#F5C518" fill-opacity="0.85" text-anchor="middle" dominant-baseline="middle">MANAGEMENT</text>

  <!-- Mot principal -->
  <text x="750.0" y="348.0" class="title" font-size="240"
        fill="#F4EFE6" text-anchor="middle" dominant-baseline="middle">MANAGEMENT</text>

  <!-- Signature : ligne + point -->
  <line x1="180.0" y1="468.0" x2="480.0" y2="468.0" stroke="#F5C518" stroke-width="6"/>
  <circle cx="1410.0" cy="108.0" r="12" fill="#F5C518"/>

  <!-- Clé discrète en coin -->
  <text x="1460" y="570" font-family="ui-monospace, SFMono-Regular, Menlo, monospace" font-size="18" font-weight="500" fill="#F4EFE6" fill-opacity="0.55" text-anchor="end" letter-spacing="2">MANAGEMENT</text>
</svg>
