<svg xmlns="http://www.w3.org/2000/svg" viewBox="0 0 1500 600" width="1500" height="600">
  <defs>
    <style>
      .title {
        font-family: "Helvetica Neue", "HelveticaNeue-CondensedBold", "Arial Narrow", "Impact", sans-serif;
        font-weight: 900;
        font-stretch: condensed;
        letter-spacing: -0.02em;
      }
    </style>
  </defs>

  <!-- Fond -->
  <rect width="1500" height="600" fill="#1E4E8C"/>

  <!-- Grain sérigraphique -->
  <g>
    <rect x="1021" y="118" width="1" height="1" fill="#F4EFE6" opacity="0.087"/>
    <rect x="787" y="115" width="1" height="1" fill="#F4EFE6" opacity="0.046"/>
    <rect x="959" y="128" width="1" height="1" fill="#F4EFE6" opacity="0.095"/>
    <rect x="424" y="84" width="2" height="2" fill="#F4EFE6" opacity="0.100"/>
    <rect x="777" y="6" width="2" height="2" fill="#F4EFE6" opacity="0.066"/>
    <rect x="377" y="424" width="1" height="1" fill="#F4EFE6" opacity="0.056"/>
    <rect x="743" y="47" width="2" height="2" fill="#F4EFE6" opacity="0.047"/>
    <rect x="1442" y="231" width="2" height="2" fill="#F4EFE6" opacity="0.068"/>
    <rect x="728" y="267" width="1" height="1" fill="#F4EFE6" opacity="0.072"/>
    <rect x="128" y="539" width="2" height="2" fill="#F4EFE6" opacity="0.081"/>
    <rect x="1" y="353" width="1" height="1" fill="#F4EFE6" opacity="0.099"/>
    <rect x="1309" y="279" width="1" height="1" fill="#F4EFE6" opacity="0.094"/>
    <rect x="869" y="197" width="2" height="2" fill="#F4EFE6" opacity="0.055"/>
    <rect x="655" y="573" width="2" height="2" fill="#F4EFE6" opacity="0.065"/>
    <rect x="284" y="132" width="1" height="1" fill="#F4EFE6" opacity="0.070"/>
    <rect x="129" y="359" width="2" height="2" fill="#F4EFE6" opacity="0.071"/>
    <rect x="27" y="361" width="1" height="1" fill="#F4EFE6" opacity="0.051"/>
    <rect x="183" y="365" width="1" height="1" fill="#F4EFE6" opacity="0.100"/>
    <rect x="877" y="143" width="1" height="1" fill="#F4EFE6" opacity="0.095"/>
    <rect x="841" y="367" width="1" height="1" fill="#F4EFE6" opacity="0.063"/>
    <rect x="65" y="528" width="1" height="1" fill="#F4EFE6" opacity="0.046"/>
    <rect x="648" y="72" width="2" height="2" fill="#F4EFE6" opacity="0.082"/>
    <rect x="828" y="36" width="1" height="1" fill="#F4EFE6" opacity="0.048"/>
    <rect x="561" y="510" width="1" height="1" fill="#F4EFE6" opacity="0.051"/>
    <rect x="27" y="73" width="1" height="1" fill="#F4EFE6" opacity="0.083"/>
    <rect x="1252" y="468" width="2" height="2" fill="#F4EFE6" opacity="0.091"/>
    <rect x="128" y="203" width="1" height="1" fill="#F4EFE6" opacity="0.084"/>
    <rect x="107" y="334" width="2" height="2" fill="#F4EFE6" opacity="0.057"/>
    <rect x="1150" y="486" width="2" height="2" fill="#F4EFE6" opacity="0.091"/>
    <rect x="50" y="445" width="1" height="1" fill="#F4EFE6" opacity="0.046"/>
    <rect x="1116" y="582" width="1" height="1" fill="#F4EFE6" opacity="0.083"/>
    <rect x="761" y="429" width="1" height="1" fill="#F4EFE6" opacity="0.062"/>
    <rect x="1430" y="110" width="1" height="1" fill="#F4EFE6" opacity="0.084"/>
    <rect x="1000" y="297" width="1" height="1" fill="#F4EFE6" opacity="0.062"/>
    <rect x="470" y="555" width="1" height="1" fill="#F4EFE6" opacity="0.079"/>
    <rect x="850" y="457" width="1" height="1" fill="#F4EFE6" opacity="0.068"/>
    <rect x="578" y="574" width="1" height="1" fill="#F4EFE6" opacity="0.093"/>
    <rect x="860" y="123" width="1" height="1" fill="#F4EFE6" opacity="0.080"/>
    <rect x="1497" y="600" width="2" height="2" fill="#F4EFE6" opacity="0.045"/>
    <rect x="1093" y="429" width="2" height="2" fill="#F4EFE6" opacity="0.070"/>
    <rect x="516" y="544" width="1" height="1" fill="#F4EFE6" opacity="0.060"/>
    <rect x="14" y="455" width="2" height="2" fill="#F4EFE6" opacity="0.054"/>
    <rect x="1160" y="23" width="1" height="1" fill="#F4EFE6" opacity="0.044"/>
    <rect x="288" y="85" width="2" height="2" fill="#F4EFE6" opacity="0.048"/>
    <rect x="297" y="499" width="1" height="1" fill="#F4EFE6" opacity="0.094"/>
    <rect x="774" y="272" width="1" height="1" fill="#F4EFE6" opacity="0.096"/>
    <rect x="781" y="285" width="1" height="1" fill="#F4EFE6" opacity="0.099"/>
    <rect x="1213" y="281" width="2" height="2" fill="#F4EFE6" opacity="0.052"/>
    <rect x="844" y="307" width="1" height="1" fill="#F4EFE6" opacity="0.064"/>
    <rect x="533" y="215" width="1" height="1" fill="#F4EFE6" opacity="0.064"/>
    <rect x="49" y="287" width="1" height="1" fill="#F4EFE6" opacity="0.050"/>
    <rect x="256" y="71" width="1" height="1" fill="#F4EFE6" opacity="0.050"/>
    <rect x="1091" y="51" width="2" height="2" fill="#F4EFE6" opacity="0.071"/>
    <rect x="772" y="510" width="2" height="2" fill="#F4EFE6" opacity="0.063"/>
    <rect x="1319" y="413" width="2" height="2" fill="#F4EFE6" opacity="0.040"/>
    <rect x="1421" y="379" width="1" height="1" fill="#F4EFE6" opacity="0.054"/>
    <rect x="281" y="149" width="2" height="2" fill="#F4EFE6" opacity="0.040"/>
    <rect x="1159" y="267" width="1" height="1" fill="#F4EFE6" opacity="0.071"/>
    <rect x="134" y="24" width="1" height="1" fill="#F4EFE6" opacity="0.054"/>
    <rect x="875" y="535" width="1" height="1" fill="#F4EFE6" opacity="0.054"/>
    <rect x="1112" y="487" width="2" height="2" fill="#F4EFE6" opacity="0.078"/>
    <rect x="386" y="117" width="2" height="2" fill="#F4EFE6" opacity="0.041"/>
    <rect x="540" y="12" width="1" height="1" fill="#F4EFE6" opacity="0.099"/>
    <rect x="405" y="142" width="1" height="1" fill="#F4EFE6" opacity="0.071"/>
    <rect x="280" y="325" width="2" height="2" fill="#F4EFE6" opacity="0.056"/>
    <rect x="1336" y="93" width="2" height="2" fill="#F4EFE6" opacity="0.073"/>
    <rect x="410" y="307" width="2" height="2" fill="#F4EFE6" opacity="0.095"/>
    <rect x="467" y="562" width="1" height="1" fill="#F4EFE6" opacity="0.078"/>
    <rect x="348" y="224" width="1" height="1" fill="#F4EFE6" opacity="0.051"/>
    <rect x="80" y="252" width="2" height="2" fill="#F4EFE6" opacity="0.069"/>
    <rect x="121" y="379" width="2" height="2" fill="#F4EFE6" opacity="0.092"/>
    <rect x="996" y="128" width="1" height="1" fill="#F4EFE6" opacity="0.091"/>
    <rect x="600" y="338" width="1" height="1" fill="#F4EFE6" opacity="0.096"/>
    <rect x="230" y="47" width="2" height="2" fill="#F4EFE6" opacity="0.054"/>
    <rect x="847" y="104" width="1" height="1" fill="#F4EFE6" opacity="0.056"/>
    <rect x="243" y="237" width="1" height="1" fill="#F4EFE6" opacity="0.061"/>
    <rect x="945" y="509" width="1" height="1" fill="#F4EFE6" opacity="0.100"/>
    <rect x="1406" y="237" width="2" height="2" fill="#F4EFE6" opacity="0.093"/>
    <rect x="1346" y="156" width="1" height="1" fill="#F4EFE6" opacity="0.094"/>
    <rect x="347" y="169" width="1" height="1" fill="#F4EFE6" opacity="0.069"/>
    <rect x="1168" y="410" width="1" height="1" fill="#F4EFE6" opacity="0.052"/>
    <rect x="228" y="424" width="1" height="1" fill="#F4EFE6" opacity="0.080"/>
    <rect x="555" y="74" width="1" height="1" fill="#F4EFE6" opacity="0.086"/>
    <rect x="572" y="453" width="1" height="1" fill="#F4EFE6" opacity="0.076"/>
    <rect x="561" y="15" width="1" height="1" fill="#F4EFE6" opacity="0.072"/>
    <rect x="80" y="301" width="2" height="2" fill="#F4EFE6" opacity="0.071"/>
    <rect x="545" y="328" width="1" height="1" fill="#F4EFE6" opacity="0.052"/>
    <rect x="1332" y="69" width="1" height="1" fill="#F4EFE6" opacity="0.083"/>
    <rect x="901" y="400" width="1" height="1" fill="#F4EFE6" opacity="0.097"/>
    <rect x="193" y="341" width="1" height="1" fill="#F4EFE6" opacity="0.098"/>
    <rect x="1099" y="448" width="1" height="1" fill="#F4EFE6" opacity="0.054"/>
    <rect x="173" y="57" width="2" height="2" fill="#F4EFE6" opacity="0.047"/>
    <rect x="688" y="18" width="1" height="1" fill="#F4EFE6" opacity="0.068"/>
    <rect x="1064" y="68" width="1" height="1" fill="#F4EFE6" opacity="0.058"/>
    <rect x="135" y="461" width="1" height="1" fill="#F4EFE6" opacity="0.100"/>
    <rect x="1444" y="564" width="2" height="2" fill="#F4EFE6" opacity="0.087"/>
    <rect x="59" y="524" width="2" height="2" fill="#F4EFE6" opacity="0.064"/>
    <rect x="139" y="215" width="1" height="1" fill="#F4EFE6" opacity="0.091"/>
    <rect x="741" y="202" width="1" height="1" fill="#F4EFE6" opacity="0.080"/>
    <rect x="903" y="79" width="2" height="2" fill="#F4EFE6" opacity="0.044"/>
    <rect x="70" y="549" width="1" height="1" fill="#F4EFE6" opacity="0.076"/>
    <rect x="1121" y="344" width="1" height="1" fill="#F4EFE6" opacity="0.049"/>
    <rect x="1169" y="23" width="1" height="1" fill="#F4EFE6" opacity="0.084"/>
    <rect x="117" y="434" width="1" height="1" fill="#F4EFE6" opacity="0.048"/>
    <rect x="234" y="211" width="2" height="2" fill="#F4EFE6" opacity="0.091"/>
    <rect x="1312" y="543" width="1" height="1" fill="#F4EFE6" opacity="0.055"/>
    <rect x="888" y="96" width="1" height="1" fill="#F4EFE6" opacity="0.051"/>
    <rect x="939" y="69" width="2" height="2" fill="#F4EFE6" opacity="0.093"/>
    <rect x="996" y="297" width="1" height="1" fill="#F4EFE6" opacity="0.053"/>
    <rect x="581" y="340" width="1" height="1" fill="#F4EFE6" opacity="0.049"/>
    <rect x="1475" y="261" width="1" height="1" fill="#F4EFE6" opacity="0.094"/>
    <rect x="199" y="449" width="1" height="1" fill="#F4EFE6" opacity="0.087"/>
    <rect x="1282" y="83" width="2" height="2" fill="#F4EFE6" opacity="0.061"/>
    <rect x="1374" y="551" width="1" height="1" fill="#F4EFE6" opacity="0.048"/>
    <rect x="630" y="520" width="2" height="2" fill="#F4EFE6" opacity="0.085"/>
    <rect x="164" y="107" width="1" height="1" fill="#F4EFE6" opacity="0.057"/>
    <rect x="1455" y="455" width="1" height="1" fill="#F4EFE6" opacity="0.066"/>
    <rect x="73" y="345" width="1" height="1" fill="#F4EFE6" opacity="0.066"/>
    <rect x="768" y="361" width="1" height="1" fill="#F4EFE6" opacity="0.052"/>
    <rect x="1430" y="5" width="1" height="1" fill="#F4EFE6" opacity="0.067"/>
    <rect x="64" y="187" width="1" height="1" fill="#F4EFE6" opacity="0.056"/>
    <rect x="320" y="546" width="1" height="1" fill="#F4EFE6" opacity="0.094"/>
    <rect x="1413" y="125" width="2" height="2" fill="#F4EFE6" opacity="0.050"/>
    <rect x="586" y="254" width="2" height="2" fill="#F4EFE6" opacity="0.069"/>
    <rect x="1143" y="451" width="1" height="1" fill="#F4EFE6" opacity="0.089"/>
    <rect x="68" y="562" width="1" height="1" fill="#F4EFE6" opacity="0.094"/>
    <rect x="68" y="9" width="1" height="1" fill="#F4EFE6" opacity="0.094"/>
    <rect x="544" y="557" width="2" height="2" fill="#F4EFE6" opacity="0.073"/>
    <rect x="134" y="564" width="2" height="2" fill="#F4EFE6" opacity="0.044"/>
    <rect x="136" y="196" width="1" height="1" fill="#F4EFE6" opacity="0.047"/>
    <rect x="1146" y="200" width="1" height="1" fill="#F4EFE6" opacity="0.045"/>
    <rect x="838" y="464" width="2" height="2" fill="#F4EFE6" opacity="0.072"/>
    <rect x="883" y="465" width="1" height="1" fill="#F4EFE6" opacity="0.099"/>
    <rect x="366" y="115" width="1" height="1" fill="#F4EFE6" opacity="0.061"/>
    <rect x="214" y="175" width="1" height="1" fill="#F4EFE6" opacity="0.068"/>
    <rect x="595" y="556" width="1" height="1" fill="#F4EFE6" opacity="0.086"/>
    <rect x="179" y="393" width="2" height="2" fill="#F4EFE6" opacity="0.081"/>
    <rect x="355" y="585" width="2" height="2" fill="#F4EFE6" opacity="0.100"/>
    <rect x="319" y="79" width="1" height="1" fill="#F4EFE6" opacity="0.068"/>
    <rect x="1107" y="107" width="2" height="2" fill="#F4EFE6" opacity="0.082"/>
    <rect x="982" y="121" width="1" height="1" fill="#F4EFE6" opacity="0.071"/>
    <rect x="585" y="316" width="1" height="1" fill="#F4EFE6" opacity="0.097"/>
    <rect x="136" y="427" width="1" height="1" fill="#F4EFE6" opacity="0.089"/>
    <rect x="1334" y="313" width="1" height="1" fill="#F4EFE6" opacity="0.093"/>
    <rect x="1323" y="582" width="1" height="1" fill="#F4EFE6" opacity="0.060"/>
    <rect x="1421" y="252" width="1" height="1" fill="#F4EFE6" opacity="0.054"/>
    <rect x="104" y="282" width="1" height="1" fill="#F4EFE6" opacity="0.043"/>
    <rect x="1179" y="473" width="1" height="1" fill="#F4EFE6" opacity="0.065"/>
    <rect x="724" y="73" width="2" height="2" fill="#F4EFE6" opacity="0.071"/>
    <rect x="1150" y="503" width="1" height="1" fill="#F4EFE6" opacity="0.067"/>
    <rect x="429" y="576" width="2" height="2" fill="#F4EFE6" opacity="0.092"/>
    <rect x="85" y="315" width="2" height="2" fill="#F4EFE6" opacity="0.059"/>
    <rect x="1474" y="523" width="1" height="1" fill="#F4EFE6" opacity="0.072"/>
    <rect x="935" y="518" width="2" height="2" fill="#F4EFE6" opacity="0.093"/>
    <rect x="338" y="26" width="2" height="2" fill="#F4EFE6" opacity="0.058"/>
    <rect x="1364" y="506" width="2" height="2" fill="#F4EFE6" opacity="0.083"/>
    <rect x="1046" y="445" width="2" height="2" fill="#F4EFE6" opacity="0.057"/>
    <rect x="48" y="232" width="1" height="1" fill="#F4EFE6" opacity="0.063"/>
    <rect x="1382" y="44" width="1" height="1" fill="#F4EFE6" opacity="0.064"/>
    <rect x="1455" y="554" width="1" height="1" fill="#F4EFE6" opacity="0.068"/>
    <rect x="1430" y="471" width="2" height="2" fill="#F4EFE6" opacity="0.081"/>
    <rect x="197" y="481" width="1" height="1" fill="#F4EFE6" opacity="0.064"/>
    <rect x="468" y="72" width="1" height="1" fill="#F4EFE6" opacity="0.042"/>
    <rect x="791" y="25" width="2" height="2" fill="#F4EFE6" opacity="0.062"/>
    <rect x="1344" y="142" width="1" height="1" fill="#F4EFE6" opacity="0.073"/>
    <rect x="1068" y="517" width="1" height="1" fill="#F4EFE6" opacity="0.050"/>
    <rect x="1025" y="162" width="1" height="1" fill="#F4EFE6" opacity="0.085"/>
    <rect x="575" y="198" width="1" height="1" fill="#F4EFE6" opacity="0.087"/>
    <rect x="565" y="171" width="2" height="2" fill="#F4EFE6" opacity="0.057"/>
    <rect x="1411" y="549" width="1" height="1" fill="#F4EFE6" opacity="0.042"/>
    <rect x="257" y="119" width="1" height="1" fill="#F4EFE6" opacity="0.097"/>
    <rect x="42" y="381" width="2" height="2" fill="#F4EFE6" opacity="0.075"/>
    <rect x="1248" y="220" width="1" height="1" fill="#F4EFE6" opacity="0.095"/>
    <rect x="605" y="524" width="2" height="2" fill="#F4EFE6" opacity="0.086"/>
    <rect x="1228" y="298" width="1" height="1" fill="#F4EFE6" opacity="0.072"/>
    <rect x="1164" y="121" width="1" height="1" fill="#F4EFE6" opacity="0.092"/>
    <rect x="1258" y="421" width="1" height="1" fill="#F4EFE6" opacity="0.091"/>
    <rect x="351" y="532" width="2" height="2" fill="#F4EFE6" opacity="0.063"/>
    <rect x="762" y="189" width="2" height="2" fill="#F4EFE6" opacity="0.080"/>
    <rect x="373" y="393" width="1" height="1" fill="#F4EFE6" opacity="0.040"/>
  </g>

  <!-- Ombre d'encre décalée -->
  <text x="755.787752417749" y="354.464134203911" class="title" font-size="300"
        fill="#C73E3A" fill-opacity="0.85" text-anchor="middle" dominant-baseline="middle">MISSION</text>

  <!-- Mot principal -->
  <text x="750.0" y="348.0" class="title" font-size="300"
        fill="#F4EFE6" text-anchor="middle" dominant-baseline="middle">MISSION</text>

  <!-- Signature : ligne + point -->
  <line x1="180.0" y1="468.0" x2="480.0" y2="468.0" stroke="#C73E3A" stroke-width="6"/>
  <circle cx="1410.0" cy="108.0" r="12" fill="#C73E3A"/>

  <!-- Clé discrète en coin -->
  <text x="1460" y="570" font-family="ui-monospace, SFMono-Regular, Menlo, monospace" font-size="18" font-weight="500" fill="#F4EFE6" fill-opacity="0.55" text-anchor="end" letter-spacing="2">MISSION</text>
</svg>
