<svg xmlns="http://www.w3.org/2000/svg" viewBox="0 0 1500 600" width="1500" height="600">
  <defs>
    <style>
      .title {
        font-family: "Helvetica Neue", "HelveticaNeue-CondensedBold", "Arial Narrow", "Impact", sans-serif;
        font-weight: 900;
        font-stretch: condensed;
        letter-spacing: -0.02em;
      }
    </style>
  </defs>

  <!-- Fond -->
  <rect width="1500" height="600" fill="#C73E3A"/>

  <!-- Grain sérigraphique -->
  <g>
    <rect x="955" y="529" width="1" height="1" fill="#F4EFE6" opacity="0.082"/>
    <rect x="234" y="391" width="1" height="1" fill="#F4EFE6" opacity="0.080"/>
    <rect x="23" y="375" width="2" height="2" fill="#F4EFE6" opacity="0.092"/>
    <rect x="50" y="497" width="1" height="1" fill="#F4EFE6" opacity="0.083"/>
    <rect x="1328" y="134" width="2" height="2" fill="#F4EFE6" opacity="0.043"/>
    <rect x="635" y="217" width="1" height="1" fill="#F4EFE6" opacity="0.049"/>
    <rect x="152" y="18" width="1" height="1" fill="#F4EFE6" opacity="0.047"/>
    <rect x="1168" y="309" width="2" height="2" fill="#F4EFE6" opacity="0.072"/>
    <rect x="589" y="108" width="2" height="2" fill="#F4EFE6" opacity="0.087"/>
    <rect x="1185" y="559" width="2" height="2" fill="#F4EFE6" opacity="0.075"/>
    <rect x="118" y="470" width="1" height="1" fill="#F4EFE6" opacity="0.084"/>
    <rect x="550" y="447" width="1" height="1" fill="#F4EFE6" opacity="0.050"/>
    <rect x="80" y="195" width="1" height="1" fill="#F4EFE6" opacity="0.095"/>
    <rect x="302" y="178" width="2" height="2" fill="#F4EFE6" opacity="0.069"/>
    <rect x="999" y="452" width="2" height="2" fill="#F4EFE6" opacity="0.074"/>
    <rect x="1412" y="211" width="1" height="1" fill="#F4EFE6" opacity="0.094"/>
    <rect x="1049" y="345" width="1" height="1" fill="#F4EFE6" opacity="0.078"/>
    <rect x="1417" y="122" width="2" height="2" fill="#F4EFE6" opacity="0.054"/>
    <rect x="633" y="583" width="2" height="2" fill="#F4EFE6" opacity="0.042"/>
    <rect x="1056" y="229" width="1" height="1" fill="#F4EFE6" opacity="0.084"/>
    <rect x="184" y="509" width="2" height="2" fill="#F4EFE6" opacity="0.089"/>
    <rect x="505" y="214" width="2" height="2" fill="#F4EFE6" opacity="0.099"/>
    <rect x="759" y="2" width="2" height="2" fill="#F4EFE6" opacity="0.085"/>
    <rect x="277" y="538" width="1" height="1" fill="#F4EFE6" opacity="0.068"/>
    <rect x="1039" y="460" width="1" height="1" fill="#F4EFE6" opacity="0.049"/>
    <rect x="598" y="471" width="1" height="1" fill="#F4EFE6" opacity="0.075"/>
    <rect x="1393" y="157" width="1" height="1" fill="#F4EFE6" opacity="0.080"/>
    <rect x="1214" y="577" width="1" height="1" fill="#F4EFE6" opacity="0.073"/>
    <rect x="604" y="389" width="1" height="1" fill="#F4EFE6" opacity="0.089"/>
    <rect x="361" y="137" width="2" height="2" fill="#F4EFE6" opacity="0.082"/>
    <rect x="1435" y="577" width="1" height="1" fill="#F4EFE6" opacity="0.082"/>
    <rect x="1445" y="335" width="2" height="2" fill="#F4EFE6" opacity="0.059"/>
    <rect x="468" y="288" width="1" height="1" fill="#F4EFE6" opacity="0.080"/>
    <rect x="716" y="475" width="2" height="2" fill="#F4EFE6" opacity="0.091"/>
    <rect x="259" y="395" width="1" height="1" fill="#F4EFE6" opacity="0.053"/>
    <rect x="1015" y="278" width="1" height="1" fill="#F4EFE6" opacity="0.099"/>
    <rect x="316" y="234" width="1" height="1" fill="#F4EFE6" opacity="0.042"/>
    <rect x="188" y="262" width="2" height="2" fill="#F4EFE6" opacity="0.063"/>
    <rect x="795" y="86" width="1" height="1" fill="#F4EFE6" opacity="0.081"/>
    <rect x="117" y="398" width="1" height="1" fill="#F4EFE6" opacity="0.047"/>
    <rect x="981" y="451" width="1" height="1" fill="#F4EFE6" opacity="0.097"/>
    <rect x="594" y="318" width="2" height="2" fill="#F4EFE6" opacity="0.066"/>
    <rect x="547" y="599" width="2" height="2" fill="#F4EFE6" opacity="0.096"/>
    <rect x="1464" y="567" width="1" height="1" fill="#F4EFE6" opacity="0.052"/>
    <rect x="273" y="452" width="1" height="1" fill="#F4EFE6" opacity="0.046"/>
    <rect x="1493" y="124" width="1" height="1" fill="#F4EFE6" opacity="0.064"/>
    <rect x="1486" y="443" width="1" height="1" fill="#F4EFE6" opacity="0.099"/>
    <rect x="1126" y="105" width="2" height="2" fill="#F4EFE6" opacity="0.077"/>
    <rect x="131" y="466" width="2" height="2" fill="#F4EFE6" opacity="0.069"/>
    <rect x="258" y="173" width="2" height="2" fill="#F4EFE6" opacity="0.063"/>
    <rect x="1484" y="25" width="1" height="1" fill="#F4EFE6" opacity="0.061"/>
    <rect x="1098" y="339" width="1" height="1" fill="#F4EFE6" opacity="0.096"/>
    <rect x="1304" y="96" width="1" height="1" fill="#F4EFE6" opacity="0.056"/>
    <rect x="1442" y="287" width="1" height="1" fill="#F4EFE6" opacity="0.060"/>
    <rect x="50" y="333" width="1" height="1" fill="#F4EFE6" opacity="0.094"/>
    <rect x="535" y="556" width="1" height="1" fill="#F4EFE6" opacity="0.059"/>
    <rect x="1467" y="20" width="2" height="2" fill="#F4EFE6" opacity="0.045"/>
    <rect x="757" y="32" width="1" height="1" fill="#F4EFE6" opacity="0.079"/>
    <rect x="1131" y="321" width="2" height="2" fill="#F4EFE6" opacity="0.076"/>
    <rect x="793" y="81" width="2" height="2" fill="#F4EFE6" opacity="0.083"/>
    <rect x="218" y="2" width="1" height="1" fill="#F4EFE6" opacity="0.084"/>
    <rect x="1254" y="30" width="1" height="1" fill="#F4EFE6" opacity="0.087"/>
    <rect x="1233" y="189" width="2" height="2" fill="#F4EFE6" opacity="0.099"/>
    <rect x="1099" y="571" width="1" height="1" fill="#F4EFE6" opacity="0.060"/>
    <rect x="1188" y="376" width="1" height="1" fill="#F4EFE6" opacity="0.086"/>
    <rect x="1184" y="514" width="1" height="1" fill="#F4EFE6" opacity="0.082"/>
    <rect x="727" y="215" width="1" height="1" fill="#F4EFE6" opacity="0.062"/>
    <rect x="681" y="402" width="1" height="1" fill="#F4EFE6" opacity="0.059"/>
    <rect x="519" y="473" width="2" height="2" fill="#F4EFE6" opacity="0.085"/>
    <rect x="1040" y="178" width="2" height="2" fill="#F4EFE6" opacity="0.044"/>
    <rect x="396" y="398" width="1" height="1" fill="#F4EFE6" opacity="0.062"/>
    <rect x="267" y="325" width="1" height="1" fill="#F4EFE6" opacity="0.075"/>
    <rect x="15" y="172" width="1" height="1" fill="#F4EFE6" opacity="0.052"/>
    <rect x="17" y="308" width="2" height="2" fill="#F4EFE6" opacity="0.086"/>
    <rect x="1225" y="272" width="1" height="1" fill="#F4EFE6" opacity="0.062"/>
    <rect x="575" y="348" width="2" height="2" fill="#F4EFE6" opacity="0.093"/>
    <rect x="972" y="599" width="2" height="2" fill="#F4EFE6" opacity="0.093"/>
    <rect x="1286" y="215" width="1" height="1" fill="#F4EFE6" opacity="0.083"/>
    <rect x="969" y="0" width="1" height="1" fill="#F4EFE6" opacity="0.074"/>
    <rect x="1205" y="67" width="2" height="2" fill="#F4EFE6" opacity="0.071"/>
    <rect x="720" y="37" width="1" height="1" fill="#F4EFE6" opacity="0.071"/>
    <rect x="713" y="212" width="2" height="2" fill="#F4EFE6" opacity="0.048"/>
    <rect x="1331" y="5" width="1" height="1" fill="#F4EFE6" opacity="0.070"/>
    <rect x="1494" y="4" width="2" height="2" fill="#F4EFE6" opacity="0.065"/>
    <rect x="854" y="171" width="2" height="2" fill="#F4EFE6" opacity="0.061"/>
    <rect x="1436" y="115" width="2" height="2" fill="#F4EFE6" opacity="0.099"/>
    <rect x="1421" y="349" width="1" height="1" fill="#F4EFE6" opacity="0.053"/>
    <rect x="1497" y="90" width="1" height="1" fill="#F4EFE6" opacity="0.099"/>
    <rect x="824" y="189" width="2" height="2" fill="#F4EFE6" opacity="0.052"/>
    <rect x="1176" y="81" width="2" height="2" fill="#F4EFE6" opacity="0.065"/>
    <rect x="228" y="215" width="2" height="2" fill="#F4EFE6" opacity="0.061"/>
    <rect x="897" y="345" width="1" height="1" fill="#F4EFE6" opacity="0.093"/>
    <rect x="219" y="334" width="2" height="2" fill="#F4EFE6" opacity="0.063"/>
    <rect x="869" y="320" width="2" height="2" fill="#F4EFE6" opacity="0.072"/>
    <rect x="1181" y="393" width="2" height="2" fill="#F4EFE6" opacity="0.066"/>
    <rect x="584" y="474" width="1" height="1" fill="#F4EFE6" opacity="0.059"/>
    <rect x="1072" y="447" width="1" height="1" fill="#F4EFE6" opacity="0.100"/>
    <rect x="646" y="341" width="1" height="1" fill="#F4EFE6" opacity="0.047"/>
    <rect x="927" y="218" width="2" height="2" fill="#F4EFE6" opacity="0.061"/>
    <rect x="573" y="336" width="1" height="1" fill="#F4EFE6" opacity="0.086"/>
    <rect x="240" y="11" width="1" height="1" fill="#F4EFE6" opacity="0.051"/>
    <rect x="756" y="519" width="1" height="1" fill="#F4EFE6" opacity="0.068"/>
    <rect x="1076" y="68" width="1" height="1" fill="#F4EFE6" opacity="0.099"/>
    <rect x="503" y="5" width="1" height="1" fill="#F4EFE6" opacity="0.063"/>
    <rect x="853" y="355" width="2" height="2" fill="#F4EFE6" opacity="0.084"/>
    <rect x="420" y="278" width="1" height="1" fill="#F4EFE6" opacity="0.061"/>
    <rect x="869" y="209" width="1" height="1" fill="#F4EFE6" opacity="0.086"/>
    <rect x="693" y="325" width="2" height="2" fill="#F4EFE6" opacity="0.070"/>
    <rect x="955" y="400" width="2" height="2" fill="#F4EFE6" opacity="0.081"/>
    <rect x="977" y="576" width="2" height="2" fill="#F4EFE6" opacity="0.086"/>
    <rect x="1174" y="176" width="2" height="2" fill="#F4EFE6" opacity="0.095"/>
    <rect x="112" y="513" width="1" height="1" fill="#F4EFE6" opacity="0.070"/>
    <rect x="278" y="306" width="1" height="1" fill="#F4EFE6" opacity="0.051"/>
    <rect x="1457" y="277" width="1" height="1" fill="#F4EFE6" opacity="0.076"/>
    <rect x="493" y="554" width="1" height="1" fill="#F4EFE6" opacity="0.050"/>
    <rect x="51" y="127" width="1" height="1" fill="#F4EFE6" opacity="0.048"/>
    <rect x="228" y="478" width="2" height="2" fill="#F4EFE6" opacity="0.089"/>
    <rect x="1074" y="157" width="1" height="1" fill="#F4EFE6" opacity="0.041"/>
    <rect x="1126" y="346" width="1" height="1" fill="#F4EFE6" opacity="0.078"/>
    <rect x="989" y="596" width="1" height="1" fill="#F4EFE6" opacity="0.093"/>
    <rect x="828" y="140" width="2" height="2" fill="#F4EFE6" opacity="0.091"/>
    <rect x="957" y="382" width="2" height="2" fill="#F4EFE6" opacity="0.054"/>
    <rect x="387" y="571" width="1" height="1" fill="#F4EFE6" opacity="0.082"/>
    <rect x="1066" y="439" width="1" height="1" fill="#F4EFE6" opacity="0.044"/>
    <rect x="1192" y="476" width="2" height="2" fill="#F4EFE6" opacity="0.064"/>
    <rect x="987" y="278" width="1" height="1" fill="#F4EFE6" opacity="0.071"/>
    <rect x="115" y="441" width="1" height="1" fill="#F4EFE6" opacity="0.045"/>
    <rect x="710" y="350" width="1" height="1" fill="#F4EFE6" opacity="0.044"/>
    <rect x="174" y="94" width="1" height="1" fill="#F4EFE6" opacity="0.054"/>
    <rect x="532" y="181" width="2" height="2" fill="#F4EFE6" opacity="0.084"/>
    <rect x="791" y="251" width="1" height="1" fill="#F4EFE6" opacity="0.078"/>
    <rect x="268" y="160" width="1" height="1" fill="#F4EFE6" opacity="0.097"/>
    <rect x="1214" y="207" width="2" height="2" fill="#F4EFE6" opacity="0.051"/>
    <rect x="247" y="145" width="1" height="1" fill="#F4EFE6" opacity="0.047"/>
    <rect x="1090" y="379" width="1" height="1" fill="#F4EFE6" opacity="0.076"/>
    <rect x="612" y="425" width="1" height="1" fill="#F4EFE6" opacity="0.054"/>
    <rect x="364" y="543" width="1" height="1" fill="#F4EFE6" opacity="0.064"/>
    <rect x="1174" y="78" width="2" height="2" fill="#F4EFE6" opacity="0.060"/>
    <rect x="72" y="401" width="1" height="1" fill="#F4EFE6" opacity="0.092"/>
    <rect x="390" y="374" width="1" height="1" fill="#F4EFE6" opacity="0.066"/>
    <rect x="1148" y="445" width="1" height="1" fill="#F4EFE6" opacity="0.053"/>
    <rect x="576" y="370" width="1" height="1" fill="#F4EFE6" opacity="0.097"/>
    <rect x="650" y="438" width="2" height="2" fill="#F4EFE6" opacity="0.095"/>
    <rect x="1190" y="426" width="2" height="2" fill="#F4EFE6" opacity="0.081"/>
    <rect x="1146" y="113" width="1" height="1" fill="#F4EFE6" opacity="0.059"/>
    <rect x="1367" y="450" width="2" height="2" fill="#F4EFE6" opacity="0.058"/>
    <rect x="787" y="66" width="1" height="1" fill="#F4EFE6" opacity="0.051"/>
    <rect x="1448" y="195" width="2" height="2" fill="#F4EFE6" opacity="0.069"/>
    <rect x="707" y="381" width="1" height="1" fill="#F4EFE6" opacity="0.098"/>
    <rect x="297" y="195" width="2" height="2" fill="#F4EFE6" opacity="0.051"/>
    <rect x="1220" y="325" width="1" height="1" fill="#F4EFE6" opacity="0.081"/>
    <rect x="994" y="251" width="2" height="2" fill="#F4EFE6" opacity="0.068"/>
    <rect x="106" y="241" width="1" height="1" fill="#F4EFE6" opacity="0.090"/>
    <rect x="16" y="528" width="2" height="2" fill="#F4EFE6" opacity="0.043"/>
    <rect x="1217" y="325" width="1" height="1" fill="#F4EFE6" opacity="0.072"/>
    <rect x="1038" y="58" width="1" height="1" fill="#F4EFE6" opacity="0.060"/>
    <rect x="757" y="409" width="1" height="1" fill="#F4EFE6" opacity="0.055"/>
    <rect x="966" y="503" width="2" height="2" fill="#F4EFE6" opacity="0.055"/>
    <rect x="838" y="108" width="1" height="1" fill="#F4EFE6" opacity="0.095"/>
    <rect x="1248" y="578" width="1" height="1" fill="#F4EFE6" opacity="0.047"/>
    <rect x="216" y="586" width="2" height="2" fill="#F4EFE6" opacity="0.071"/>
    <rect x="144" y="168" width="2" height="2" fill="#F4EFE6" opacity="0.060"/>
    <rect x="1453" y="393" width="1" height="1" fill="#F4EFE6" opacity="0.072"/>
    <rect x="628" y="197" width="1" height="1" fill="#F4EFE6" opacity="0.088"/>
    <rect x="935" y="478" width="1" height="1" fill="#F4EFE6" opacity="0.061"/>
    <rect x="290" y="371" width="1" height="1" fill="#F4EFE6" opacity="0.063"/>
    <rect x="522" y="103" width="2" height="2" fill="#F4EFE6" opacity="0.083"/>
    <rect x="908" y="40" width="2" height="2" fill="#F4EFE6" opacity="0.099"/>
    <rect x="1061" y="469" width="1" height="1" fill="#F4EFE6" opacity="0.046"/>
    <rect x="426" y="154" width="2" height="2" fill="#F4EFE6" opacity="0.089"/>
    <rect x="530" y="88" width="2" height="2" fill="#F4EFE6" opacity="0.081"/>
    <rect x="100" y="582" width="1" height="1" fill="#F4EFE6" opacity="0.050"/>
    <rect x="1057" y="55" width="1" height="1" fill="#F4EFE6" opacity="0.050"/>
    <rect x="323" y="451" width="2" height="2" fill="#F4EFE6" opacity="0.049"/>
    <rect x="1476" y="119" width="2" height="2" fill="#F4EFE6" opacity="0.041"/>
    <rect x="1240" y="440" width="1" height="1" fill="#F4EFE6" opacity="0.081"/>
    <rect x="1141" y="395" width="2" height="2" fill="#F4EFE6" opacity="0.044"/>
    <rect x="66" y="70" width="2" height="2" fill="#F4EFE6" opacity="0.083"/>
    <rect x="894" y="269" width="1" height="1" fill="#F4EFE6" opacity="0.094"/>
    <rect x="915" y="35" width="2" height="2" fill="#F4EFE6" opacity="0.098"/>
  </g>

  <!-- Ombre d'encre décalée -->
  <text x="753.3785792357296" y="352.13911811261346" class="title" font-size="240"
        fill="#F5C518" fill-opacity="0.85" text-anchor="middle" dominant-baseline="middle">NARRATIVE</text>

  <!-- Mot principal -->
  <text x="750.0" y="348.0" class="title" font-size="240"
        fill="#F4EFE6" text-anchor="middle" dominant-baseline="middle">NARRATIVE</text>

  <!-- Signature : ligne + point -->
  <line x1="180.0" y1="468.0" x2="480.0" y2="468.0" stroke="#F5C518" stroke-width="6"/>
  <circle cx="1410.0" cy="108.0" r="12" fill="#F5C518"/>

  <!-- Clé discrète en coin -->
  <text x="1460" y="570" font-family="ui-monospace, SFMono-Regular, Menlo, monospace" font-size="18" font-weight="500" fill="#F4EFE6" fill-opacity="0.55" text-anchor="end" letter-spacing="2">NARRATIVE</text>
</svg>
