<svg xmlns="http://www.w3.org/2000/svg" viewBox="0 0 1500 600" width="1500" height="600">
  <defs>
    <style>
      .title {
        font-family: "Helvetica Neue", "HelveticaNeue-CondensedBold", "Arial Narrow", "Impact", sans-serif;
        font-weight: 900;
        font-stretch: condensed;
        letter-spacing: -0.02em;
      }
    </style>
  </defs>

  <!-- Fond -->
  <rect width="1500" height="600" fill="#1E4E8C"/>

  <!-- Grain sérigraphique -->
  <g>
    <rect x="582" y="400" width="1" height="1" fill="#F4EFE6" opacity="0.087"/>
    <rect x="151" y="48" width="2" height="2" fill="#F4EFE6" opacity="0.084"/>
    <rect x="903" y="114" width="1" height="1" fill="#F4EFE6" opacity="0.063"/>
    <rect x="295" y="436" width="2" height="2" fill="#F4EFE6" opacity="0.070"/>
    <rect x="216" y="523" width="2" height="2" fill="#F4EFE6" opacity="0.071"/>
    <rect x="1477" y="494" width="1" height="1" fill="#F4EFE6" opacity="0.091"/>
    <rect x="1096" y="322" width="1" height="1" fill="#F4EFE6" opacity="0.056"/>
    <rect x="1445" y="591" width="1" height="1" fill="#F4EFE6" opacity="0.058"/>
    <rect x="143" y="356" width="2" height="2" fill="#F4EFE6" opacity="0.099"/>
    <rect x="1366" y="551" width="1" height="1" fill="#F4EFE6" opacity="0.075"/>
    <rect x="1178" y="26" width="1" height="1" fill="#F4EFE6" opacity="0.065"/>
    <rect x="1263" y="243" width="2" height="2" fill="#F4EFE6" opacity="0.074"/>
    <rect x="1230" y="191" width="1" height="1" fill="#F4EFE6" opacity="0.089"/>
    <rect x="688" y="536" width="1" height="1" fill="#F4EFE6" opacity="0.081"/>
    <rect x="200" y="578" width="1" height="1" fill="#F4EFE6" opacity="0.084"/>
    <rect x="691" y="74" width="1" height="1" fill="#F4EFE6" opacity="0.081"/>
    <rect x="273" y="315" width="2" height="2" fill="#F4EFE6" opacity="0.092"/>
    <rect x="1358" y="28" width="1" height="1" fill="#F4EFE6" opacity="0.056"/>
    <rect x="1" y="397" width="1" height="1" fill="#F4EFE6" opacity="0.078"/>
    <rect x="65" y="285" width="1" height="1" fill="#F4EFE6" opacity="0.099"/>
    <rect x="583" y="427" width="2" height="2" fill="#F4EFE6" opacity="0.085"/>
    <rect x="882" y="447" width="1" height="1" fill="#F4EFE6" opacity="0.057"/>
    <rect x="953" y="193" width="1" height="1" fill="#F4EFE6" opacity="0.062"/>
    <rect x="795" y="459" width="1" height="1" fill="#F4EFE6" opacity="0.085"/>
    <rect x="717" y="349" width="1" height="1" fill="#F4EFE6" opacity="0.087"/>
    <rect x="703" y="174" width="1" height="1" fill="#F4EFE6" opacity="0.084"/>
    <rect x="1467" y="361" width="2" height="2" fill="#F4EFE6" opacity="0.099"/>
    <rect x="205" y="233" width="1" height="1" fill="#F4EFE6" opacity="0.097"/>
    <rect x="1004" y="218" width="2" height="2" fill="#F4EFE6" opacity="0.060"/>
    <rect x="611" y="541" width="1" height="1" fill="#F4EFE6" opacity="0.094"/>
    <rect x="257" y="441" width="2" height="2" fill="#F4EFE6" opacity="0.042"/>
    <rect x="1490" y="595" width="1" height="1" fill="#F4EFE6" opacity="0.073"/>
    <rect x="897" y="248" width="1" height="1" fill="#F4EFE6" opacity="0.098"/>
    <rect x="576" y="456" width="1" height="1" fill="#F4EFE6" opacity="0.083"/>
    <rect x="1451" y="219" width="1" height="1" fill="#F4EFE6" opacity="0.065"/>
    <rect x="1473" y="4" width="1" height="1" fill="#F4EFE6" opacity="0.054"/>
    <rect x="186" y="193" width="1" height="1" fill="#F4EFE6" opacity="0.089"/>
    <rect x="1279" y="101" width="1" height="1" fill="#F4EFE6" opacity="0.048"/>
    <rect x="161" y="522" width="1" height="1" fill="#F4EFE6" opacity="0.064"/>
    <rect x="986" y="31" width="2" height="2" fill="#F4EFE6" opacity="0.086"/>
    <rect x="114" y="292" width="2" height="2" fill="#F4EFE6" opacity="0.064"/>
    <rect x="395" y="218" width="2" height="2" fill="#F4EFE6" opacity="0.096"/>
    <rect x="51" y="188" width="1" height="1" fill="#F4EFE6" opacity="0.087"/>
    <rect x="220" y="352" width="2" height="2" fill="#F4EFE6" opacity="0.056"/>
    <rect x="20" y="586" width="2" height="2" fill="#F4EFE6" opacity="0.045"/>
    <rect x="1108" y="165" width="1" height="1" fill="#F4EFE6" opacity="0.076"/>
    <rect x="1121" y="324" width="1" height="1" fill="#F4EFE6" opacity="0.057"/>
    <rect x="202" y="183" width="1" height="1" fill="#F4EFE6" opacity="0.070"/>
    <rect x="724" y="391" width="2" height="2" fill="#F4EFE6" opacity="0.053"/>
    <rect x="593" y="231" width="1" height="1" fill="#F4EFE6" opacity="0.096"/>
    <rect x="465" y="239" width="2" height="2" fill="#F4EFE6" opacity="0.076"/>
    <rect x="157" y="117" width="1" height="1" fill="#F4EFE6" opacity="0.081"/>
    <rect x="1229" y="587" width="1" height="1" fill="#F4EFE6" opacity="0.100"/>
    <rect x="1157" y="82" width="1" height="1" fill="#F4EFE6" opacity="0.079"/>
    <rect x="497" y="206" width="1" height="1" fill="#F4EFE6" opacity="0.098"/>
    <rect x="999" y="539" width="2" height="2" fill="#F4EFE6" opacity="0.043"/>
    <rect x="277" y="345" width="2" height="2" fill="#F4EFE6" opacity="0.056"/>
    <rect x="92" y="96" width="1" height="1" fill="#F4EFE6" opacity="0.077"/>
    <rect x="562" y="277" width="1" height="1" fill="#F4EFE6" opacity="0.059"/>
    <rect x="824" y="434" width="1" height="1" fill="#F4EFE6" opacity="0.097"/>
    <rect x="1198" y="148" width="1" height="1" fill="#F4EFE6" opacity="0.041"/>
    <rect x="27" y="389" width="1" height="1" fill="#F4EFE6" opacity="0.082"/>
    <rect x="1064" y="548" width="1" height="1" fill="#F4EFE6" opacity="0.059"/>
    <rect x="498" y="583" width="1" height="1" fill="#F4EFE6" opacity="0.045"/>
    <rect x="88" y="74" width="1" height="1" fill="#F4EFE6" opacity="0.098"/>
    <rect x="478" y="203" width="2" height="2" fill="#F4EFE6" opacity="0.099"/>
    <rect x="228" y="352" width="2" height="2" fill="#F4EFE6" opacity="0.065"/>
    <rect x="579" y="20" width="1" height="1" fill="#F4EFE6" opacity="0.072"/>
    <rect x="1189" y="511" width="2" height="2" fill="#F4EFE6" opacity="0.074"/>
    <rect x="763" y="403" width="1" height="1" fill="#F4EFE6" opacity="0.078"/>
    <rect x="101" y="474" width="2" height="2" fill="#F4EFE6" opacity="0.075"/>
    <rect x="266" y="230" width="2" height="2" fill="#F4EFE6" opacity="0.085"/>
    <rect x="460" y="151" width="2" height="2" fill="#F4EFE6" opacity="0.098"/>
    <rect x="913" y="569" width="1" height="1" fill="#F4EFE6" opacity="0.046"/>
    <rect x="214" y="235" width="2" height="2" fill="#F4EFE6" opacity="0.064"/>
    <rect x="1151" y="538" width="1" height="1" fill="#F4EFE6" opacity="0.069"/>
    <rect x="509" y="545" width="2" height="2" fill="#F4EFE6" opacity="0.063"/>
    <rect x="437" y="263" width="1" height="1" fill="#F4EFE6" opacity="0.086"/>
    <rect x="803" y="110" width="1" height="1" fill="#F4EFE6" opacity="0.063"/>
    <rect x="862" y="254" width="1" height="1" fill="#F4EFE6" opacity="0.043"/>
    <rect x="155" y="520" width="1" height="1" fill="#F4EFE6" opacity="0.048"/>
    <rect x="230" y="24" width="1" height="1" fill="#F4EFE6" opacity="0.099"/>
    <rect x="363" y="490" width="2" height="2" fill="#F4EFE6" opacity="0.041"/>
    <rect x="1491" y="184" width="1" height="1" fill="#F4EFE6" opacity="0.053"/>
    <rect x="604" y="95" width="1" height="1" fill="#F4EFE6" opacity="0.073"/>
    <rect x="945" y="374" width="2" height="2" fill="#F4EFE6" opacity="0.051"/>
    <rect x="105" y="25" width="2" height="2" fill="#F4EFE6" opacity="0.084"/>
    <rect x="755" y="275" width="1" height="1" fill="#F4EFE6" opacity="0.061"/>
    <rect x="13" y="388" width="1" height="1" fill="#F4EFE6" opacity="0.085"/>
    <rect x="583" y="190" width="2" height="2" fill="#F4EFE6" opacity="0.081"/>
    <rect x="90" y="185" width="1" height="1" fill="#F4EFE6" opacity="0.040"/>
    <rect x="368" y="227" width="1" height="1" fill="#F4EFE6" opacity="0.088"/>
    <rect x="1048" y="401" width="1" height="1" fill="#F4EFE6" opacity="0.041"/>
    <rect x="1305" y="372" width="1" height="1" fill="#F4EFE6" opacity="0.092"/>
    <rect x="486" y="275" width="2" height="2" fill="#F4EFE6" opacity="0.096"/>
    <rect x="1187" y="274" width="1" height="1" fill="#F4EFE6" opacity="0.085"/>
    <rect x="647" y="336" width="1" height="1" fill="#F4EFE6" opacity="0.068"/>
    <rect x="817" y="582" width="1" height="1" fill="#F4EFE6" opacity="0.082"/>
    <rect x="979" y="523" width="1" height="1" fill="#F4EFE6" opacity="0.096"/>
    <rect x="709" y="378" width="2" height="2" fill="#F4EFE6" opacity="0.063"/>
    <rect x="656" y="543" width="1" height="1" fill="#F4EFE6" opacity="0.098"/>
    <rect x="1458" y="215" width="1" height="1" fill="#F4EFE6" opacity="0.067"/>
    <rect x="628" y="414" width="1" height="1" fill="#F4EFE6" opacity="0.066"/>
    <rect x="1095" y="100" width="2" height="2" fill="#F4EFE6" opacity="0.093"/>
    <rect x="66" y="348" width="1" height="1" fill="#F4EFE6" opacity="0.071"/>
    <rect x="1144" y="555" width="1" height="1" fill="#F4EFE6" opacity="0.091"/>
    <rect x="1301" y="540" width="2" height="2" fill="#F4EFE6" opacity="0.064"/>
    <rect x="1222" y="554" width="1" height="1" fill="#F4EFE6" opacity="0.046"/>
    <rect x="905" y="106" width="2" height="2" fill="#F4EFE6" opacity="0.044"/>
    <rect x="85" y="161" width="1" height="1" fill="#F4EFE6" opacity="0.058"/>
    <rect x="48" y="217" width="1" height="1" fill="#F4EFE6" opacity="0.062"/>
    <rect x="1389" y="536" width="1" height="1" fill="#F4EFE6" opacity="0.072"/>
    <rect x="330" y="563" width="2" height="2" fill="#F4EFE6" opacity="0.057"/>
    <rect x="419" y="481" width="1" height="1" fill="#F4EFE6" opacity="0.097"/>
    <rect x="1489" y="524" width="1" height="1" fill="#F4EFE6" opacity="0.099"/>
    <rect x="407" y="459" width="2" height="2" fill="#F4EFE6" opacity="0.080"/>
    <rect x="724" y="469" width="1" height="1" fill="#F4EFE6" opacity="0.096"/>
    <rect x="1151" y="318" width="1" height="1" fill="#F4EFE6" opacity="0.100"/>
    <rect x="241" y="174" width="2" height="2" fill="#F4EFE6" opacity="0.083"/>
    <rect x="928" y="324" width="1" height="1" fill="#F4EFE6" opacity="0.057"/>
    <rect x="25" y="321" width="1" height="1" fill="#F4EFE6" opacity="0.087"/>
    <rect x="20" y="293" width="1" height="1" fill="#F4EFE6" opacity="0.096"/>
    <rect x="1254" y="498" width="1" height="1" fill="#F4EFE6" opacity="0.048"/>
    <rect x="1248" y="42" width="1" height="1" fill="#F4EFE6" opacity="0.075"/>
    <rect x="336" y="302" width="1" height="1" fill="#F4EFE6" opacity="0.095"/>
    <rect x="599" y="129" width="2" height="2" fill="#F4EFE6" opacity="0.095"/>
    <rect x="145" y="596" width="1" height="1" fill="#F4EFE6" opacity="0.074"/>
    <rect x="14" y="365" width="1" height="1" fill="#F4EFE6" opacity="0.093"/>
    <rect x="81" y="418" width="1" height="1" fill="#F4EFE6" opacity="0.058"/>
    <rect x="183" y="77" width="1" height="1" fill="#F4EFE6" opacity="0.044"/>
    <rect x="1436" y="121" width="1" height="1" fill="#F4EFE6" opacity="0.047"/>
    <rect x="1130" y="563" width="1" height="1" fill="#F4EFE6" opacity="0.065"/>
    <rect x="1128" y="219" width="2" height="2" fill="#F4EFE6" opacity="0.097"/>
    <rect x="349" y="364" width="1" height="1" fill="#F4EFE6" opacity="0.042"/>
    <rect x="306" y="304" width="2" height="2" fill="#F4EFE6" opacity="0.062"/>
    <rect x="1119" y="408" width="1" height="1" fill="#F4EFE6" opacity="0.057"/>
    <rect x="913" y="145" width="1" height="1" fill="#F4EFE6" opacity="0.066"/>
    <rect x="812" y="343" width="1" height="1" fill="#F4EFE6" opacity="0.097"/>
    <rect x="258" y="84" width="1" height="1" fill="#F4EFE6" opacity="0.086"/>
    <rect x="383" y="225" width="1" height="1" fill="#F4EFE6" opacity="0.067"/>
    <rect x="964" y="516" width="2" height="2" fill="#F4EFE6" opacity="0.081"/>
    <rect x="1340" y="29" width="1" height="1" fill="#F4EFE6" opacity="0.079"/>
    <rect x="387" y="471" width="2" height="2" fill="#F4EFE6" opacity="0.058"/>
    <rect x="998" y="56" width="1" height="1" fill="#F4EFE6" opacity="0.059"/>
    <rect x="459" y="475" width="1" height="1" fill="#F4EFE6" opacity="0.081"/>
    <rect x="1169" y="491" width="2" height="2" fill="#F4EFE6" opacity="0.064"/>
    <rect x="1409" y="413" width="1" height="1" fill="#F4EFE6" opacity="0.042"/>
    <rect x="1255" y="149" width="1" height="1" fill="#F4EFE6" opacity="0.056"/>
    <rect x="945" y="339" width="1" height="1" fill="#F4EFE6" opacity="0.085"/>
    <rect x="375" y="559" width="1" height="1" fill="#F4EFE6" opacity="0.091"/>
    <rect x="639" y="303" width="2" height="2" fill="#F4EFE6" opacity="0.098"/>
    <rect x="913" y="223" width="1" height="1" fill="#F4EFE6" opacity="0.091"/>
    <rect x="29" y="580" width="1" height="1" fill="#F4EFE6" opacity="0.052"/>
    <rect x="1181" y="380" width="2" height="2" fill="#F4EFE6" opacity="0.066"/>
    <rect x="1344" y="289" width="1" height="1" fill="#F4EFE6" opacity="0.062"/>
    <rect x="3" y="158" width="1" height="1" fill="#F4EFE6" opacity="0.040"/>
    <rect x="905" y="284" width="2" height="2" fill="#F4EFE6" opacity="0.060"/>
    <rect x="840" y="515" width="2" height="2" fill="#F4EFE6" opacity="0.046"/>
    <rect x="183" y="185" width="1" height="1" fill="#F4EFE6" opacity="0.100"/>
    <rect x="507" y="541" width="1" height="1" fill="#F4EFE6" opacity="0.060"/>
    <rect x="641" y="121" width="2" height="2" fill="#F4EFE6" opacity="0.060"/>
    <rect x="882" y="203" width="2" height="2" fill="#F4EFE6" opacity="0.069"/>
    <rect x="114" y="495" width="1" height="1" fill="#F4EFE6" opacity="0.080"/>
    <rect x="72" y="419" width="2" height="2" fill="#F4EFE6" opacity="0.094"/>
    <rect x="1258" y="28" width="1" height="1" fill="#F4EFE6" opacity="0.055"/>
    <rect x="69" y="408" width="2" height="2" fill="#F4EFE6" opacity="0.092"/>
    <rect x="103" y="204" width="1" height="1" fill="#F4EFE6" opacity="0.095"/>
    <rect x="1333" y="512" width="2" height="2" fill="#F4EFE6" opacity="0.094"/>
    <rect x="326" y="580" width="2" height="2" fill="#F4EFE6" opacity="0.066"/>
    <rect x="1198" y="165" width="1" height="1" fill="#F4EFE6" opacity="0.054"/>
    <rect x="668" y="326" width="1" height="1" fill="#F4EFE6" opacity="0.051"/>
    <rect x="539" y="383" width="1" height="1" fill="#F4EFE6" opacity="0.088"/>
    <rect x="796" y="166" width="1" height="1" fill="#F4EFE6" opacity="0.044"/>
    <rect x="0" y="594" width="1" height="1" fill="#F4EFE6" opacity="0.083"/>
    <rect x="876" y="506" width="1" height="1" fill="#F4EFE6" opacity="0.080"/>
    <rect x="221" y="491" width="1" height="1" fill="#F4EFE6" opacity="0.043"/>
    <rect x="974" y="576" width="1" height="1" fill="#F4EFE6" opacity="0.072"/>
    <rect x="744" y="147" width="1" height="1" fill="#F4EFE6" opacity="0.052"/>
    <rect x="626" y="155" width="2" height="2" fill="#F4EFE6" opacity="0.098"/>
    <rect x="872" y="335" width="1" height="1" fill="#F4EFE6" opacity="0.061"/>
  </g>

  <!-- Ombre d'encre décalée -->
  <text x="753.4713111930048" y="353.9348060160546" class="title" font-size="180"
        fill="#F5C518" fill-opacity="0.85" text-anchor="middle" dominant-baseline="middle">ORGANISATION</text>

  <!-- Mot principal -->
  <text x="750.0" y="348.0" class="title" font-size="180"
        fill="#F4EFE6" text-anchor="middle" dominant-baseline="middle">ORGANISATION</text>

  <!-- Signature : ligne + point -->
  <line x1="180.0" y1="468.0" x2="480.0" y2="468.0" stroke="#F5C518" stroke-width="6"/>
  <circle cx="1410.0" cy="108.0" r="12" fill="#F5C518"/>

  <!-- Clé discrète en coin -->
  <text x="1460" y="570" font-family="ui-monospace, SFMono-Regular, Menlo, monospace" font-size="18" font-weight="500" fill="#F4EFE6" fill-opacity="0.55" text-anchor="end" letter-spacing="2">ORGANISATION</text>
</svg>
