<svg xmlns="http://www.w3.org/2000/svg" viewBox="0 0 1500 600" width="1500" height="600">
  <defs>
    <style>
      .title {
        font-family: "Helvetica Neue", "HelveticaNeue-CondensedBold", "Arial Narrow", "Impact", sans-serif;
        font-weight: 900;
        font-stretch: condensed;
        letter-spacing: -0.02em;
      }
    </style>
  </defs>

  <!-- Fond -->
  <rect width="1500" height="600" fill="#0E0E0E"/>

  <!-- Grain sérigraphique -->
  <g>
    <rect x="454" y="563" width="1" height="1" fill="#F4EFE6" opacity="0.093"/>
    <rect x="844" y="385" width="1" height="1" fill="#F4EFE6" opacity="0.096"/>
    <rect x="398" y="445" width="1" height="1" fill="#F4EFE6" opacity="0.058"/>
    <rect x="936" y="252" width="1" height="1" fill="#F4EFE6" opacity="0.084"/>
    <rect x="746" y="202" width="2" height="2" fill="#F4EFE6" opacity="0.073"/>
    <rect x="563" y="475" width="1" height="1" fill="#F4EFE6" opacity="0.050"/>
    <rect x="1168" y="23" width="1" height="1" fill="#F4EFE6" opacity="0.100"/>
    <rect x="316" y="451" width="2" height="2" fill="#F4EFE6" opacity="0.061"/>
    <rect x="1126" y="592" width="2" height="2" fill="#F4EFE6" opacity="0.050"/>
    <rect x="1164" y="79" width="2" height="2" fill="#F4EFE6" opacity="0.057"/>
    <rect x="805" y="353" width="1" height="1" fill="#F4EFE6" opacity="0.065"/>
    <rect x="269" y="454" width="1" height="1" fill="#F4EFE6" opacity="0.088"/>
    <rect x="746" y="150" width="1" height="1" fill="#F4EFE6" opacity="0.044"/>
    <rect x="487" y="245" width="2" height="2" fill="#F4EFE6" opacity="0.084"/>
    <rect x="1347" y="567" width="1" height="1" fill="#F4EFE6" opacity="0.068"/>
    <rect x="581" y="79" width="1" height="1" fill="#F4EFE6" opacity="0.092"/>
    <rect x="1198" y="430" width="2" height="2" fill="#F4EFE6" opacity="0.065"/>
    <rect x="165" y="395" width="1" height="1" fill="#F4EFE6" opacity="0.041"/>
    <rect x="760" y="168" width="1" height="1" fill="#F4EFE6" opacity="0.069"/>
    <rect x="903" y="450" width="1" height="1" fill="#F4EFE6" opacity="0.092"/>
    <rect x="1402" y="137" width="1" height="1" fill="#F4EFE6" opacity="0.048"/>
    <rect x="152" y="79" width="1" height="1" fill="#F4EFE6" opacity="0.054"/>
    <rect x="841" y="429" width="1" height="1" fill="#F4EFE6" opacity="0.060"/>
    <rect x="697" y="429" width="2" height="2" fill="#F4EFE6" opacity="0.055"/>
    <rect x="772" y="505" width="2" height="2" fill="#F4EFE6" opacity="0.085"/>
    <rect x="1466" y="369" width="2" height="2" fill="#F4EFE6" opacity="0.070"/>
    <rect x="872" y="243" width="2" height="2" fill="#F4EFE6" opacity="0.065"/>
    <rect x="509" y="30" width="1" height="1" fill="#F4EFE6" opacity="0.098"/>
    <rect x="1454" y="164" width="1" height="1" fill="#F4EFE6" opacity="0.064"/>
    <rect x="157" y="94" width="1" height="1" fill="#F4EFE6" opacity="0.078"/>
    <rect x="1229" y="107" width="1" height="1" fill="#F4EFE6" opacity="0.099"/>
    <rect x="1432" y="464" width="1" height="1" fill="#F4EFE6" opacity="0.069"/>
    <rect x="542" y="439" width="2" height="2" fill="#F4EFE6" opacity="0.041"/>
    <rect x="472" y="149" width="1" height="1" fill="#F4EFE6" opacity="0.059"/>
    <rect x="301" y="200" width="1" height="1" fill="#F4EFE6" opacity="0.097"/>
    <rect x="712" y="63" width="2" height="2" fill="#F4EFE6" opacity="0.046"/>
    <rect x="1398" y="584" width="1" height="1" fill="#F4EFE6" opacity="0.055"/>
    <rect x="831" y="42" width="1" height="1" fill="#F4EFE6" opacity="0.094"/>
    <rect x="1236" y="87" width="2" height="2" fill="#F4EFE6" opacity="0.093"/>
    <rect x="199" y="82" width="1" height="1" fill="#F4EFE6" opacity="0.081"/>
    <rect x="1084" y="546" width="1" height="1" fill="#F4EFE6" opacity="0.080"/>
    <rect x="749" y="467" width="1" height="1" fill="#F4EFE6" opacity="0.058"/>
    <rect x="356" y="94" width="1" height="1" fill="#F4EFE6" opacity="0.083"/>
    <rect x="333" y="56" width="1" height="1" fill="#F4EFE6" opacity="0.056"/>
    <rect x="302" y="229" width="2" height="2" fill="#F4EFE6" opacity="0.070"/>
    <rect x="240" y="47" width="1" height="1" fill="#F4EFE6" opacity="0.052"/>
    <rect x="687" y="422" width="1" height="1" fill="#F4EFE6" opacity="0.079"/>
    <rect x="431" y="253" width="1" height="1" fill="#F4EFE6" opacity="0.066"/>
    <rect x="1241" y="125" width="1" height="1" fill="#F4EFE6" opacity="0.056"/>
    <rect x="523" y="441" width="2" height="2" fill="#F4EFE6" opacity="0.071"/>
    <rect x="459" y="164" width="2" height="2" fill="#F4EFE6" opacity="0.052"/>
    <rect x="270" y="429" width="1" height="1" fill="#F4EFE6" opacity="0.085"/>
    <rect x="492" y="443" width="1" height="1" fill="#F4EFE6" opacity="0.087"/>
    <rect x="830" y="545" width="1" height="1" fill="#F4EFE6" opacity="0.059"/>
    <rect x="357" y="371" width="2" height="2" fill="#F4EFE6" opacity="0.075"/>
    <rect x="783" y="510" width="1" height="1" fill="#F4EFE6" opacity="0.066"/>
    <rect x="672" y="312" width="1" height="1" fill="#F4EFE6" opacity="0.089"/>
    <rect x="722" y="86" width="1" height="1" fill="#F4EFE6" opacity="0.048"/>
    <rect x="1478" y="539" width="2" height="2" fill="#F4EFE6" opacity="0.081"/>
    <rect x="273" y="166" width="2" height="2" fill="#F4EFE6" opacity="0.057"/>
    <rect x="1144" y="347" width="1" height="1" fill="#F4EFE6" opacity="0.069"/>
    <rect x="630" y="117" width="1" height="1" fill="#F4EFE6" opacity="0.079"/>
    <rect x="1480" y="257" width="2" height="2" fill="#F4EFE6" opacity="0.048"/>
    <rect x="528" y="312" width="1" height="1" fill="#F4EFE6" opacity="0.056"/>
    <rect x="1072" y="165" width="2" height="2" fill="#F4EFE6" opacity="0.057"/>
    <rect x="828" y="307" width="2" height="2" fill="#F4EFE6" opacity="0.041"/>
    <rect x="1443" y="519" width="1" height="1" fill="#F4EFE6" opacity="0.099"/>
    <rect x="287" y="273" width="2" height="2" fill="#F4EFE6" opacity="0.091"/>
    <rect x="1233" y="170" width="1" height="1" fill="#F4EFE6" opacity="0.098"/>
    <rect x="293" y="588" width="1" height="1" fill="#F4EFE6" opacity="0.058"/>
    <rect x="1350" y="398" width="1" height="1" fill="#F4EFE6" opacity="0.076"/>
    <rect x="632" y="282" width="1" height="1" fill="#F4EFE6" opacity="0.094"/>
    <rect x="441" y="102" width="2" height="2" fill="#F4EFE6" opacity="0.054"/>
    <rect x="1432" y="181" width="2" height="2" fill="#F4EFE6" opacity="0.065"/>
    <rect x="1048" y="192" width="2" height="2" fill="#F4EFE6" opacity="0.075"/>
    <rect x="1091" y="329" width="2" height="2" fill="#F4EFE6" opacity="0.066"/>
    <rect x="572" y="191" width="1" height="1" fill="#F4EFE6" opacity="0.045"/>
    <rect x="427" y="219" width="2" height="2" fill="#F4EFE6" opacity="0.047"/>
    <rect x="1045" y="473" width="1" height="1" fill="#F4EFE6" opacity="0.090"/>
    <rect x="1093" y="508" width="2" height="2" fill="#F4EFE6" opacity="0.053"/>
    <rect x="530" y="271" width="1" height="1" fill="#F4EFE6" opacity="0.088"/>
    <rect x="352" y="11" width="1" height="1" fill="#F4EFE6" opacity="0.072"/>
    <rect x="957" y="556" width="1" height="1" fill="#F4EFE6" opacity="0.097"/>
    <rect x="1497" y="325" width="2" height="2" fill="#F4EFE6" opacity="0.042"/>
    <rect x="621" y="327" width="1" height="1" fill="#F4EFE6" opacity="0.063"/>
    <rect x="335" y="585" width="1" height="1" fill="#F4EFE6" opacity="0.097"/>
    <rect x="249" y="263" width="1" height="1" fill="#F4EFE6" opacity="0.066"/>
    <rect x="81" y="280" width="1" height="1" fill="#F4EFE6" opacity="0.092"/>
    <rect x="942" y="493" width="2" height="2" fill="#F4EFE6" opacity="0.059"/>
    <rect x="1125" y="221" width="1" height="1" fill="#F4EFE6" opacity="0.074"/>
    <rect x="197" y="248" width="1" height="1" fill="#F4EFE6" opacity="0.061"/>
    <rect x="409" y="470" width="1" height="1" fill="#F4EFE6" opacity="0.051"/>
    <rect x="748" y="443" width="1" height="1" fill="#F4EFE6" opacity="0.066"/>
    <rect x="1490" y="324" width="1" height="1" fill="#F4EFE6" opacity="0.078"/>
    <rect x="459" y="481" width="1" height="1" fill="#F4EFE6" opacity="0.090"/>
    <rect x="296" y="494" width="1" height="1" fill="#F4EFE6" opacity="0.097"/>
    <rect x="825" y="398" width="2" height="2" fill="#F4EFE6" opacity="0.051"/>
    <rect x="1220" y="41" width="2" height="2" fill="#F4EFE6" opacity="0.077"/>
    <rect x="1417" y="202" width="2" height="2" fill="#F4EFE6" opacity="0.093"/>
    <rect x="907" y="311" width="1" height="1" fill="#F4EFE6" opacity="0.085"/>
    <rect x="331" y="328" width="1" height="1" fill="#F4EFE6" opacity="0.094"/>
    <rect x="1445" y="12" width="1" height="1" fill="#F4EFE6" opacity="0.050"/>
    <rect x="1063" y="362" width="1" height="1" fill="#F4EFE6" opacity="0.085"/>
    <rect x="518" y="368" width="2" height="2" fill="#F4EFE6" opacity="0.088"/>
    <rect x="1166" y="134" width="1" height="1" fill="#F4EFE6" opacity="0.093"/>
    <rect x="610" y="544" width="1" height="1" fill="#F4EFE6" opacity="0.083"/>
    <rect x="220" y="280" width="1" height="1" fill="#F4EFE6" opacity="0.090"/>
    <rect x="643" y="263" width="1" height="1" fill="#F4EFE6" opacity="0.053"/>
    <rect x="1470" y="399" width="1" height="1" fill="#F4EFE6" opacity="0.078"/>
    <rect x="250" y="167" width="1" height="1" fill="#F4EFE6" opacity="0.061"/>
    <rect x="1464" y="225" width="2" height="2" fill="#F4EFE6" opacity="0.081"/>
    <rect x="1414" y="583" width="1" height="1" fill="#F4EFE6" opacity="0.061"/>
    <rect x="212" y="294" width="1" height="1" fill="#F4EFE6" opacity="0.090"/>
    <rect x="250" y="314" width="1" height="1" fill="#F4EFE6" opacity="0.060"/>
    <rect x="976" y="437" width="2" height="2" fill="#F4EFE6" opacity="0.047"/>
    <rect x="347" y="360" width="1" height="1" fill="#F4EFE6" opacity="0.070"/>
    <rect x="1421" y="135" width="1" height="1" fill="#F4EFE6" opacity="0.077"/>
    <rect x="1133" y="53" width="1" height="1" fill="#F4EFE6" opacity="0.057"/>
    <rect x="1083" y="307" width="1" height="1" fill="#F4EFE6" opacity="0.060"/>
    <rect x="1182" y="461" width="2" height="2" fill="#F4EFE6" opacity="0.088"/>
    <rect x="1066" y="43" width="1" height="1" fill="#F4EFE6" opacity="0.097"/>
    <rect x="951" y="442" width="1" height="1" fill="#F4EFE6" opacity="0.078"/>
    <rect x="219" y="321" width="1" height="1" fill="#F4EFE6" opacity="0.048"/>
    <rect x="333" y="327" width="1" height="1" fill="#F4EFE6" opacity="0.070"/>
    <rect x="1242" y="172" width="2" height="2" fill="#F4EFE6" opacity="0.047"/>
    <rect x="1459" y="325" width="1" height="1" fill="#F4EFE6" opacity="0.060"/>
    <rect x="1442" y="506" width="2" height="2" fill="#F4EFE6" opacity="0.076"/>
    <rect x="996" y="264" width="1" height="1" fill="#F4EFE6" opacity="0.079"/>
    <rect x="626" y="226" width="2" height="2" fill="#F4EFE6" opacity="0.055"/>
    <rect x="1368" y="10" width="1" height="1" fill="#F4EFE6" opacity="0.083"/>
    <rect x="242" y="56" width="1" height="1" fill="#F4EFE6" opacity="0.062"/>
    <rect x="1129" y="139" width="1" height="1" fill="#F4EFE6" opacity="0.062"/>
    <rect x="1289" y="518" width="1" height="1" fill="#F4EFE6" opacity="0.053"/>
    <rect x="1387" y="118" width="2" height="2" fill="#F4EFE6" opacity="0.068"/>
    <rect x="762" y="301" width="1" height="1" fill="#F4EFE6" opacity="0.094"/>
    <rect x="929" y="198" width="1" height="1" fill="#F4EFE6" opacity="0.040"/>
    <rect x="298" y="402" width="2" height="2" fill="#F4EFE6" opacity="0.053"/>
    <rect x="115" y="593" width="2" height="2" fill="#F4EFE6" opacity="0.072"/>
    <rect x="201" y="588" width="1" height="1" fill="#F4EFE6" opacity="0.044"/>
    <rect x="1096" y="233" width="1" height="1" fill="#F4EFE6" opacity="0.076"/>
    <rect x="468" y="15" width="1" height="1" fill="#F4EFE6" opacity="0.078"/>
    <rect x="1043" y="42" width="1" height="1" fill="#F4EFE6" opacity="0.100"/>
    <rect x="718" y="197" width="2" height="2" fill="#F4EFE6" opacity="0.059"/>
    <rect x="1404" y="583" width="1" height="1" fill="#F4EFE6" opacity="0.066"/>
    <rect x="154" y="243" width="2" height="2" fill="#F4EFE6" opacity="0.056"/>
    <rect x="1261" y="412" width="1" height="1" fill="#F4EFE6" opacity="0.069"/>
    <rect x="1048" y="58" width="1" height="1" fill="#F4EFE6" opacity="0.098"/>
    <rect x="810" y="276" width="1" height="1" fill="#F4EFE6" opacity="0.042"/>
    <rect x="198" y="589" width="1" height="1" fill="#F4EFE6" opacity="0.042"/>
    <rect x="911" y="276" width="1" height="1" fill="#F4EFE6" opacity="0.044"/>
    <rect x="293" y="370" width="2" height="2" fill="#F4EFE6" opacity="0.095"/>
    <rect x="218" y="137" width="2" height="2" fill="#F4EFE6" opacity="0.046"/>
    <rect x="1349" y="182" width="1" height="1" fill="#F4EFE6" opacity="0.094"/>
    <rect x="1333" y="126" width="1" height="1" fill="#F4EFE6" opacity="0.095"/>
    <rect x="726" y="76" width="2" height="2" fill="#F4EFE6" opacity="0.095"/>
    <rect x="1395" y="100" width="1" height="1" fill="#F4EFE6" opacity="0.077"/>
    <rect x="804" y="453" width="1" height="1" fill="#F4EFE6" opacity="0.060"/>
    <rect x="1196" y="384" width="1" height="1" fill="#F4EFE6" opacity="0.073"/>
    <rect x="787" y="520" width="1" height="1" fill="#F4EFE6" opacity="0.098"/>
    <rect x="630" y="432" width="1" height="1" fill="#F4EFE6" opacity="0.056"/>
    <rect x="243" y="111" width="1" height="1" fill="#F4EFE6" opacity="0.100"/>
    <rect x="859" y="500" width="1" height="1" fill="#F4EFE6" opacity="0.093"/>
    <rect x="1272" y="389" width="1" height="1" fill="#F4EFE6" opacity="0.098"/>
    <rect x="788" y="433" width="1" height="1" fill="#F4EFE6" opacity="0.045"/>
    <rect x="1470" y="425" width="2" height="2" fill="#F4EFE6" opacity="0.092"/>
    <rect x="811" y="195" width="1" height="1" fill="#F4EFE6" opacity="0.064"/>
    <rect x="252" y="403" width="1" height="1" fill="#F4EFE6" opacity="0.067"/>
    <rect x="682" y="501" width="1" height="1" fill="#F4EFE6" opacity="0.100"/>
    <rect x="60" y="259" width="2" height="2" fill="#F4EFE6" opacity="0.064"/>
    <rect x="1140" y="495" width="1" height="1" fill="#F4EFE6" opacity="0.065"/>
    <rect x="1250" y="222" width="1" height="1" fill="#F4EFE6" opacity="0.070"/>
    <rect x="1216" y="474" width="1" height="1" fill="#F4EFE6" opacity="0.051"/>
    <rect x="657" y="526" width="2" height="2" fill="#F4EFE6" opacity="0.088"/>
    <rect x="942" y="348" width="2" height="2" fill="#F4EFE6" opacity="0.069"/>
    <rect x="740" y="307" width="1" height="1" fill="#F4EFE6" opacity="0.074"/>
    <rect x="958" y="42" width="1" height="1" fill="#F4EFE6" opacity="0.065"/>
    <rect x="95" y="443" width="1" height="1" fill="#F4EFE6" opacity="0.068"/>
    <rect x="786" y="342" width="2" height="2" fill="#F4EFE6" opacity="0.064"/>
    <rect x="1413" y="90" width="2" height="2" fill="#F4EFE6" opacity="0.072"/>
    <rect x="24" y="448" width="2" height="2" fill="#F4EFE6" opacity="0.098"/>
  </g>

  <!-- Ombre d'encre décalée -->
  <text x="756.5702309739662" y="353.6082407915596" class="title" font-size="180"
        fill="#F5C518" fill-opacity="0.85" text-anchor="middle" dominant-baseline="middle">PHILOSOPHIE</text>

  <!-- Mot principal -->
  <text x="750.0" y="348.0" class="title" font-size="180"
        fill="#F4EFE6" text-anchor="middle" dominant-baseline="middle">PHILOSOPHIE</text>

  <!-- Signature : ligne + point -->
  <line x1="180.0" y1="468.0" x2="480.0" y2="468.0" stroke="#F5C518" stroke-width="6"/>
  <circle cx="1410.0" cy="108.0" r="12" fill="#F5C518"/>

  <!-- Clé discrète en coin -->
  <text x="1460" y="570" font-family="ui-monospace, SFMono-Regular, Menlo, monospace" font-size="18" font-weight="500" fill="#F4EFE6" fill-opacity="0.55" text-anchor="end" letter-spacing="2">PHILOSOPHIE</text>
</svg>
