<svg xmlns="http://www.w3.org/2000/svg" viewBox="0 0 1500 600" width="1500" height="600">
  <defs>
    <style>
      .title {
        font-family: "Helvetica Neue", "HelveticaNeue-CondensedBold", "Arial Narrow", "Impact", sans-serif;
        font-weight: 900;
        font-stretch: condensed;
        letter-spacing: -0.02em;
      }
    </style>
  </defs>

  <!-- Fond -->
  <rect width="1500" height="600" fill="#F5C518"/>

  <!-- Grain sérigraphique -->
  <g>
    <rect x="301" y="437" width="1" height="1" fill="#0E0E0E" opacity="0.054"/>
    <rect x="917" y="82" width="2" height="2" fill="#0E0E0E" opacity="0.050"/>
    <rect x="978" y="578" width="1" height="1" fill="#0E0E0E" opacity="0.065"/>
    <rect x="359" y="437" width="1" height="1" fill="#0E0E0E" opacity="0.048"/>
    <rect x="1250" y="336" width="1" height="1" fill="#0E0E0E" opacity="0.058"/>
    <rect x="532" y="162" width="1" height="1" fill="#0E0E0E" opacity="0.098"/>
    <rect x="96" y="386" width="2" height="2" fill="#0E0E0E" opacity="0.061"/>
    <rect x="421" y="319" width="1" height="1" fill="#0E0E0E" opacity="0.098"/>
    <rect x="1130" y="472" width="1" height="1" fill="#0E0E0E" opacity="0.071"/>
    <rect x="745" y="260" width="1" height="1" fill="#0E0E0E" opacity="0.061"/>
    <rect x="1321" y="433" width="2" height="2" fill="#0E0E0E" opacity="0.081"/>
    <rect x="99" y="478" width="1" height="1" fill="#0E0E0E" opacity="0.047"/>
    <rect x="1247" y="363" width="2" height="2" fill="#0E0E0E" opacity="0.075"/>
    <rect x="448" y="97" width="1" height="1" fill="#0E0E0E" opacity="0.055"/>
    <rect x="112" y="535" width="2" height="2" fill="#0E0E0E" opacity="0.056"/>
    <rect x="641" y="106" width="1" height="1" fill="#0E0E0E" opacity="0.062"/>
    <rect x="996" y="336" width="1" height="1" fill="#0E0E0E" opacity="0.046"/>
    <rect x="840" y="296" width="2" height="2" fill="#0E0E0E" opacity="0.075"/>
    <rect x="307" y="506" width="2" height="2" fill="#0E0E0E" opacity="0.048"/>
    <rect x="345" y="225" width="1" height="1" fill="#0E0E0E" opacity="0.094"/>
    <rect x="883" y="349" width="1" height="1" fill="#0E0E0E" opacity="0.070"/>
    <rect x="352" y="326" width="1" height="1" fill="#0E0E0E" opacity="0.064"/>
    <rect x="80" y="361" width="1" height="1" fill="#0E0E0E" opacity="0.046"/>
    <rect x="823" y="91" width="1" height="1" fill="#0E0E0E" opacity="0.083"/>
    <rect x="1487" y="448" width="2" height="2" fill="#0E0E0E" opacity="0.077"/>
    <rect x="905" y="195" width="1" height="1" fill="#0E0E0E" opacity="0.070"/>
    <rect x="832" y="452" width="1" height="1" fill="#0E0E0E" opacity="0.051"/>
    <rect x="149" y="370" width="1" height="1" fill="#0E0E0E" opacity="0.052"/>
    <rect x="1034" y="513" width="1" height="1" fill="#0E0E0E" opacity="0.042"/>
    <rect x="1096" y="103" width="1" height="1" fill="#0E0E0E" opacity="0.060"/>
    <rect x="390" y="314" width="1" height="1" fill="#0E0E0E" opacity="0.098"/>
    <rect x="623" y="148" width="1" height="1" fill="#0E0E0E" opacity="0.094"/>
    <rect x="914" y="341" width="1" height="1" fill="#0E0E0E" opacity="0.077"/>
    <rect x="841" y="322" width="2" height="2" fill="#0E0E0E" opacity="0.064"/>
    <rect x="1382" y="368" width="2" height="2" fill="#0E0E0E" opacity="0.051"/>
    <rect x="370" y="221" width="1" height="1" fill="#0E0E0E" opacity="0.087"/>
    <rect x="312" y="284" width="1" height="1" fill="#0E0E0E" opacity="0.059"/>
    <rect x="228" y="313" width="2" height="2" fill="#0E0E0E" opacity="0.086"/>
    <rect x="1494" y="540" width="1" height="1" fill="#0E0E0E" opacity="0.083"/>
    <rect x="1039" y="19" width="1" height="1" fill="#0E0E0E" opacity="0.069"/>
    <rect x="238" y="33" width="1" height="1" fill="#0E0E0E" opacity="0.067"/>
    <rect x="773" y="504" width="1" height="1" fill="#0E0E0E" opacity="0.069"/>
    <rect x="435" y="123" width="2" height="2" fill="#0E0E0E" opacity="0.074"/>
    <rect x="1349" y="362" width="1" height="1" fill="#0E0E0E" opacity="0.076"/>
    <rect x="597" y="419" width="2" height="2" fill="#0E0E0E" opacity="0.084"/>
    <rect x="929" y="473" width="1" height="1" fill="#0E0E0E" opacity="0.065"/>
    <rect x="899" y="590" width="1" height="1" fill="#0E0E0E" opacity="0.089"/>
    <rect x="132" y="79" width="2" height="2" fill="#0E0E0E" opacity="0.063"/>
    <rect x="1084" y="575" width="1" height="1" fill="#0E0E0E" opacity="0.050"/>
    <rect x="857" y="279" width="2" height="2" fill="#0E0E0E" opacity="0.041"/>
    <rect x="614" y="355" width="1" height="1" fill="#0E0E0E" opacity="0.089"/>
    <rect x="922" y="2" width="1" height="1" fill="#0E0E0E" opacity="0.090"/>
    <rect x="667" y="524" width="1" height="1" fill="#0E0E0E" opacity="0.061"/>
    <rect x="175" y="357" width="2" height="2" fill="#0E0E0E" opacity="0.065"/>
    <rect x="67" y="114" width="1" height="1" fill="#0E0E0E" opacity="0.099"/>
    <rect x="752" y="250" width="1" height="1" fill="#0E0E0E" opacity="0.070"/>
    <rect x="685" y="476" width="2" height="2" fill="#0E0E0E" opacity="0.085"/>
    <rect x="396" y="515" width="1" height="1" fill="#0E0E0E" opacity="0.062"/>
    <rect x="947" y="118" width="2" height="2" fill="#0E0E0E" opacity="0.056"/>
    <rect x="291" y="571" width="1" height="1" fill="#0E0E0E" opacity="0.090"/>
    <rect x="1241" y="248" width="1" height="1" fill="#0E0E0E" opacity="0.050"/>
    <rect x="91" y="570" width="1" height="1" fill="#0E0E0E" opacity="0.094"/>
    <rect x="951" y="341" width="1" height="1" fill="#0E0E0E" opacity="0.066"/>
    <rect x="148" y="22" width="1" height="1" fill="#0E0E0E" opacity="0.068"/>
    <rect x="679" y="181" width="2" height="2" fill="#0E0E0E" opacity="0.075"/>
    <rect x="893" y="143" width="1" height="1" fill="#0E0E0E" opacity="0.053"/>
    <rect x="1343" y="447" width="2" height="2" fill="#0E0E0E" opacity="0.088"/>
    <rect x="99" y="592" width="2" height="2" fill="#0E0E0E" opacity="0.074"/>
    <rect x="1198" y="440" width="1" height="1" fill="#0E0E0E" opacity="0.064"/>
    <rect x="1049" y="250" width="1" height="1" fill="#0E0E0E" opacity="0.047"/>
    <rect x="846" y="138" width="1" height="1" fill="#0E0E0E" opacity="0.058"/>
    <rect x="498" y="487" width="2" height="2" fill="#0E0E0E" opacity="0.083"/>
    <rect x="71" y="357" width="1" height="1" fill="#0E0E0E" opacity="0.056"/>
    <rect x="953" y="301" width="2" height="2" fill="#0E0E0E" opacity="0.090"/>
    <rect x="466" y="120" width="1" height="1" fill="#0E0E0E" opacity="0.064"/>
    <rect x="808" y="226" width="1" height="1" fill="#0E0E0E" opacity="0.048"/>
    <rect x="414" y="405" width="1" height="1" fill="#0E0E0E" opacity="0.080"/>
    <rect x="1229" y="595" width="1" height="1" fill="#0E0E0E" opacity="0.095"/>
    <rect x="363" y="472" width="1" height="1" fill="#0E0E0E" opacity="0.084"/>
    <rect x="844" y="65" width="2" height="2" fill="#0E0E0E" opacity="0.091"/>
    <rect x="1353" y="123" width="1" height="1" fill="#0E0E0E" opacity="0.070"/>
    <rect x="194" y="80" width="1" height="1" fill="#0E0E0E" opacity="0.046"/>
    <rect x="1200" y="600" width="1" height="1" fill="#0E0E0E" opacity="0.052"/>
    <rect x="642" y="226" width="2" height="2" fill="#0E0E0E" opacity="0.095"/>
    <rect x="729" y="338" width="2" height="2" fill="#0E0E0E" opacity="0.073"/>
    <rect x="1134" y="220" width="1" height="1" fill="#0E0E0E" opacity="0.080"/>
    <rect x="968" y="198" width="1" height="1" fill="#0E0E0E" opacity="0.062"/>
    <rect x="260" y="490" width="1" height="1" fill="#0E0E0E" opacity="0.040"/>
    <rect x="553" y="55" width="1" height="1" fill="#0E0E0E" opacity="0.066"/>
    <rect x="1017" y="239" width="2" height="2" fill="#0E0E0E" opacity="0.068"/>
    <rect x="1022" y="561" width="1" height="1" fill="#0E0E0E" opacity="0.076"/>
    <rect x="298" y="191" width="2" height="2" fill="#0E0E0E" opacity="0.076"/>
    <rect x="484" y="112" width="1" height="1" fill="#0E0E0E" opacity="0.095"/>
    <rect x="260" y="220" width="1" height="1" fill="#0E0E0E" opacity="0.067"/>
    <rect x="1478" y="332" width="1" height="1" fill="#0E0E0E" opacity="0.085"/>
    <rect x="1412" y="489" width="1" height="1" fill="#0E0E0E" opacity="0.098"/>
    <rect x="446" y="403" width="2" height="2" fill="#0E0E0E" opacity="0.095"/>
    <rect x="726" y="257" width="1" height="1" fill="#0E0E0E" opacity="0.071"/>
    <rect x="547" y="325" width="2" height="2" fill="#0E0E0E" opacity="0.077"/>
    <rect x="155" y="395" width="1" height="1" fill="#0E0E0E" opacity="0.076"/>
    <rect x="696" y="277" width="2" height="2" fill="#0E0E0E" opacity="0.079"/>
    <rect x="92" y="172" width="1" height="1" fill="#0E0E0E" opacity="0.100"/>
    <rect x="1358" y="505" width="1" height="1" fill="#0E0E0E" opacity="0.051"/>
    <rect x="1173" y="3" width="1" height="1" fill="#0E0E0E" opacity="0.071"/>
    <rect x="1153" y="301" width="1" height="1" fill="#0E0E0E" opacity="0.064"/>
    <rect x="197" y="137" width="1" height="1" fill="#0E0E0E" opacity="0.075"/>
    <rect x="736" y="12" width="1" height="1" fill="#0E0E0E" opacity="0.046"/>
    <rect x="784" y="157" width="1" height="1" fill="#0E0E0E" opacity="0.077"/>
    <rect x="195" y="233" width="1" height="1" fill="#0E0E0E" opacity="0.094"/>
    <rect x="953" y="168" width="1" height="1" fill="#0E0E0E" opacity="0.052"/>
    <rect x="793" y="14" width="1" height="1" fill="#0E0E0E" opacity="0.066"/>
    <rect x="1310" y="572" width="1" height="1" fill="#0E0E0E" opacity="0.056"/>
    <rect x="777" y="425" width="1" height="1" fill="#0E0E0E" opacity="0.089"/>
    <rect x="477" y="4" width="1" height="1" fill="#0E0E0E" opacity="0.090"/>
    <rect x="1495" y="166" width="1" height="1" fill="#0E0E0E" opacity="0.047"/>
    <rect x="1027" y="106" width="2" height="2" fill="#0E0E0E" opacity="0.093"/>
    <rect x="422" y="139" width="1" height="1" fill="#0E0E0E" opacity="0.091"/>
    <rect x="169" y="289" width="1" height="1" fill="#0E0E0E" opacity="0.053"/>
    <rect x="243" y="13" width="1" height="1" fill="#0E0E0E" opacity="0.091"/>
    <rect x="1454" y="359" width="2" height="2" fill="#0E0E0E" opacity="0.048"/>
    <rect x="1188" y="448" width="1" height="1" fill="#0E0E0E" opacity="0.086"/>
    <rect x="1087" y="301" width="2" height="2" fill="#0E0E0E" opacity="0.060"/>
    <rect x="871" y="335" width="2" height="2" fill="#0E0E0E" opacity="0.046"/>
    <rect x="1110" y="94" width="2" height="2" fill="#0E0E0E" opacity="0.049"/>
    <rect x="554" y="437" width="1" height="1" fill="#0E0E0E" opacity="0.069"/>
    <rect x="238" y="548" width="1" height="1" fill="#0E0E0E" opacity="0.045"/>
    <rect x="825" y="156" width="1" height="1" fill="#0E0E0E" opacity="0.063"/>
    <rect x="535" y="358" width="2" height="2" fill="#0E0E0E" opacity="0.093"/>
    <rect x="1453" y="308" width="2" height="2" fill="#0E0E0E" opacity="0.077"/>
    <rect x="264" y="302" width="1" height="1" fill="#0E0E0E" opacity="0.082"/>
    <rect x="596" y="120" width="1" height="1" fill="#0E0E0E" opacity="0.040"/>
    <rect x="458" y="534" width="1" height="1" fill="#0E0E0E" opacity="0.049"/>
    <rect x="348" y="502" width="1" height="1" fill="#0E0E0E" opacity="0.077"/>
    <rect x="18" y="448" width="2" height="2" fill="#0E0E0E" opacity="0.057"/>
    <rect x="340" y="584" width="1" height="1" fill="#0E0E0E" opacity="0.064"/>
    <rect x="537" y="100" width="2" height="2" fill="#0E0E0E" opacity="0.065"/>
    <rect x="703" y="442" width="1" height="1" fill="#0E0E0E" opacity="0.076"/>
    <rect x="88" y="340" width="1" height="1" fill="#0E0E0E" opacity="0.040"/>
    <rect x="109" y="462" width="1" height="1" fill="#0E0E0E" opacity="0.076"/>
    <rect x="582" y="592" width="1" height="1" fill="#0E0E0E" opacity="0.055"/>
    <rect x="936" y="263" width="2" height="2" fill="#0E0E0E" opacity="0.045"/>
    <rect x="678" y="147" width="2" height="2" fill="#0E0E0E" opacity="0.056"/>
    <rect x="260" y="10" width="1" height="1" fill="#0E0E0E" opacity="0.081"/>
    <rect x="1431" y="86" width="1" height="1" fill="#0E0E0E" opacity="0.045"/>
    <rect x="793" y="319" width="1" height="1" fill="#0E0E0E" opacity="0.051"/>
    <rect x="386" y="48" width="2" height="2" fill="#0E0E0E" opacity="0.045"/>
    <rect x="583" y="125" width="1" height="1" fill="#0E0E0E" opacity="0.091"/>
    <rect x="1484" y="234" width="2" height="2" fill="#0E0E0E" opacity="0.097"/>
    <rect x="1426" y="182" width="2" height="2" fill="#0E0E0E" opacity="0.059"/>
    <rect x="824" y="205" width="2" height="2" fill="#0E0E0E" opacity="0.047"/>
    <rect x="848" y="208" width="1" height="1" fill="#0E0E0E" opacity="0.052"/>
    <rect x="677" y="74" width="1" height="1" fill="#0E0E0E" opacity="0.066"/>
    <rect x="1037" y="279" width="1" height="1" fill="#0E0E0E" opacity="0.098"/>
    <rect x="117" y="157" width="2" height="2" fill="#0E0E0E" opacity="0.088"/>
    <rect x="1369" y="536" width="1" height="1" fill="#0E0E0E" opacity="0.097"/>
    <rect x="1083" y="168" width="2" height="2" fill="#0E0E0E" opacity="0.057"/>
    <rect x="8" y="240" width="2" height="2" fill="#0E0E0E" opacity="0.053"/>
    <rect x="915" y="187" width="1" height="1" fill="#0E0E0E" opacity="0.042"/>
    <rect x="494" y="398" width="2" height="2" fill="#0E0E0E" opacity="0.067"/>
    <rect x="979" y="261" width="1" height="1" fill="#0E0E0E" opacity="0.062"/>
    <rect x="86" y="329" width="1" height="1" fill="#0E0E0E" opacity="0.078"/>
    <rect x="80" y="569" width="1" height="1" fill="#0E0E0E" opacity="0.044"/>
    <rect x="1042" y="378" width="1" height="1" fill="#0E0E0E" opacity="0.060"/>
    <rect x="1202" y="379" width="1" height="1" fill="#0E0E0E" opacity="0.080"/>
    <rect x="903" y="439" width="1" height="1" fill="#0E0E0E" opacity="0.061"/>
    <rect x="1034" y="67" width="2" height="2" fill="#0E0E0E" opacity="0.094"/>
    <rect x="863" y="172" width="2" height="2" fill="#0E0E0E" opacity="0.060"/>
    <rect x="292" y="321" width="1" height="1" fill="#0E0E0E" opacity="0.058"/>
    <rect x="907" y="560" width="1" height="1" fill="#0E0E0E" opacity="0.061"/>
    <rect x="135" y="522" width="1" height="1" fill="#0E0E0E" opacity="0.086"/>
    <rect x="590" y="133" width="1" height="1" fill="#0E0E0E" opacity="0.061"/>
    <rect x="38" y="555" width="1" height="1" fill="#0E0E0E" opacity="0.090"/>
    <rect x="1131" y="208" width="1" height="1" fill="#0E0E0E" opacity="0.100"/>
    <rect x="807" y="305" width="1" height="1" fill="#0E0E0E" opacity="0.065"/>
    <rect x="1483" y="109" width="1" height="1" fill="#0E0E0E" opacity="0.046"/>
    <rect x="422" y="432" width="2" height="2" fill="#0E0E0E" opacity="0.088"/>
    <rect x="1411" y="531" width="1" height="1" fill="#0E0E0E" opacity="0.069"/>
    <rect x="360" y="592" width="1" height="1" fill="#0E0E0E" opacity="0.099"/>
    <rect x="1086" y="294" width="2" height="2" fill="#0E0E0E" opacity="0.072"/>
    <rect x="691" y="237" width="1" height="1" fill="#0E0E0E" opacity="0.064"/>
  </g>

  <!-- Ombre d'encre décalée -->
  <text x="753.9157588385893" y="354.84549565796146" class="title" font-size="300"
        fill="#1E4E8C" fill-opacity="0.85" text-anchor="middle" dominant-baseline="middle">PITCH</text>

  <!-- Mot principal -->
  <text x="750.0" y="348.0" class="title" font-size="300"
        fill="#0E0E0E" text-anchor="middle" dominant-baseline="middle">PITCH</text>

  <!-- Signature : ligne + point -->
  <line x1="180.0" y1="468.0" x2="480.0" y2="468.0" stroke="#1E4E8C" stroke-width="6"/>
  <circle cx="1410.0" cy="108.0" r="12" fill="#1E4E8C"/>

  <!-- Clé discrète en coin -->
  <text x="1460" y="570" font-family="ui-monospace, SFMono-Regular, Menlo, monospace" font-size="18" font-weight="500" fill="#0E0E0E" fill-opacity="0.55" text-anchor="end" letter-spacing="2">PITCH</text>
</svg>
