<svg xmlns="http://www.w3.org/2000/svg" viewBox="0 0 1500 600" width="1500" height="600">
  <defs>
    <style>
      .title {
        font-family: "Helvetica Neue", "HelveticaNeue-CondensedBold", "Arial Narrow", "Impact", sans-serif;
        font-weight: 900;
        font-stretch: condensed;
        letter-spacing: -0.02em;
      }
    </style>
  </defs>

  <!-- Fond -->
  <rect width="1500" height="600" fill="#F5C518"/>

  <!-- Grain sérigraphique -->
  <g>
    <rect x="1090" y="575" width="1" height="1" fill="#0E0E0E" opacity="0.074"/>
    <rect x="692" y="115" width="2" height="2" fill="#0E0E0E" opacity="0.047"/>
    <rect x="43" y="462" width="1" height="1" fill="#0E0E0E" opacity="0.080"/>
    <rect x="663" y="340" width="1" height="1" fill="#0E0E0E" opacity="0.096"/>
    <rect x="1496" y="564" width="1" height="1" fill="#0E0E0E" opacity="0.067"/>
    <rect x="669" y="286" width="1" height="1" fill="#0E0E0E" opacity="0.094"/>
    <rect x="1035" y="402" width="1" height="1" fill="#0E0E0E" opacity="0.079"/>
    <rect x="1495" y="573" width="2" height="2" fill="#0E0E0E" opacity="0.040"/>
    <rect x="481" y="415" width="2" height="2" fill="#0E0E0E" opacity="0.082"/>
    <rect x="857" y="47" width="1" height="1" fill="#0E0E0E" opacity="0.063"/>
    <rect x="71" y="326" width="2" height="2" fill="#0E0E0E" opacity="0.069"/>
    <rect x="862" y="591" width="2" height="2" fill="#0E0E0E" opacity="0.044"/>
    <rect x="1488" y="146" width="1" height="1" fill="#0E0E0E" opacity="0.077"/>
    <rect x="174" y="169" width="1" height="1" fill="#0E0E0E" opacity="0.099"/>
    <rect x="1070" y="566" width="2" height="2" fill="#0E0E0E" opacity="0.095"/>
    <rect x="1303" y="207" width="2" height="2" fill="#0E0E0E" opacity="0.071"/>
    <rect x="1198" y="277" width="1" height="1" fill="#0E0E0E" opacity="0.088"/>
    <rect x="937" y="390" width="1" height="1" fill="#0E0E0E" opacity="0.079"/>
    <rect x="1003" y="578" width="2" height="2" fill="#0E0E0E" opacity="0.050"/>
    <rect x="1075" y="370" width="1" height="1" fill="#0E0E0E" opacity="0.060"/>
    <rect x="850" y="494" width="2" height="2" fill="#0E0E0E" opacity="0.068"/>
    <rect x="1090" y="76" width="1" height="1" fill="#0E0E0E" opacity="0.047"/>
    <rect x="1496" y="13" width="2" height="2" fill="#0E0E0E" opacity="0.082"/>
    <rect x="1164" y="57" width="2" height="2" fill="#0E0E0E" opacity="0.049"/>
    <rect x="28" y="121" width="1" height="1" fill="#0E0E0E" opacity="0.068"/>
    <rect x="748" y="166" width="2" height="2" fill="#0E0E0E" opacity="0.077"/>
    <rect x="1459" y="419" width="1" height="1" fill="#0E0E0E" opacity="0.058"/>
    <rect x="347" y="561" width="1" height="1" fill="#0E0E0E" opacity="0.047"/>
    <rect x="1429" y="584" width="1" height="1" fill="#0E0E0E" opacity="0.071"/>
    <rect x="416" y="423" width="1" height="1" fill="#0E0E0E" opacity="0.098"/>
    <rect x="32" y="89" width="1" height="1" fill="#0E0E0E" opacity="0.093"/>
    <rect x="240" y="594" width="1" height="1" fill="#0E0E0E" opacity="0.082"/>
    <rect x="668" y="179" width="1" height="1" fill="#0E0E0E" opacity="0.086"/>
    <rect x="782" y="289" width="2" height="2" fill="#0E0E0E" opacity="0.066"/>
    <rect x="983" y="212" width="1" height="1" fill="#0E0E0E" opacity="0.095"/>
    <rect x="197" y="15" width="2" height="2" fill="#0E0E0E" opacity="0.049"/>
    <rect x="451" y="340" width="2" height="2" fill="#0E0E0E" opacity="0.086"/>
    <rect x="744" y="454" width="2" height="2" fill="#0E0E0E" opacity="0.092"/>
    <rect x="227" y="584" width="1" height="1" fill="#0E0E0E" opacity="0.065"/>
    <rect x="654" y="5" width="1" height="1" fill="#0E0E0E" opacity="0.089"/>
    <rect x="791" y="581" width="2" height="2" fill="#0E0E0E" opacity="0.066"/>
    <rect x="590" y="77" width="1" height="1" fill="#0E0E0E" opacity="0.058"/>
    <rect x="471" y="286" width="1" height="1" fill="#0E0E0E" opacity="0.046"/>
    <rect x="1372" y="132" width="1" height="1" fill="#0E0E0E" opacity="0.094"/>
    <rect x="840" y="36" width="1" height="1" fill="#0E0E0E" opacity="0.064"/>
    <rect x="373" y="341" width="2" height="2" fill="#0E0E0E" opacity="0.088"/>
    <rect x="87" y="405" width="1" height="1" fill="#0E0E0E" opacity="0.050"/>
    <rect x="1417" y="383" width="1" height="1" fill="#0E0E0E" opacity="0.071"/>
    <rect x="425" y="471" width="1" height="1" fill="#0E0E0E" opacity="0.041"/>
    <rect x="127" y="528" width="1" height="1" fill="#0E0E0E" opacity="0.043"/>
    <rect x="953" y="255" width="2" height="2" fill="#0E0E0E" opacity="0.094"/>
    <rect x="1322" y="524" width="1" height="1" fill="#0E0E0E" opacity="0.057"/>
    <rect x="1139" y="545" width="1" height="1" fill="#0E0E0E" opacity="0.048"/>
    <rect x="495" y="598" width="1" height="1" fill="#0E0E0E" opacity="0.078"/>
    <rect x="855" y="25" width="1" height="1" fill="#0E0E0E" opacity="0.069"/>
    <rect x="403" y="232" width="2" height="2" fill="#0E0E0E" opacity="0.098"/>
    <rect x="1316" y="194" width="2" height="2" fill="#0E0E0E" opacity="0.057"/>
    <rect x="735" y="488" width="1" height="1" fill="#0E0E0E" opacity="0.096"/>
    <rect x="604" y="63" width="1" height="1" fill="#0E0E0E" opacity="0.075"/>
    <rect x="634" y="236" width="1" height="1" fill="#0E0E0E" opacity="0.064"/>
    <rect x="1370" y="551" width="2" height="2" fill="#0E0E0E" opacity="0.089"/>
    <rect x="487" y="73" width="2" height="2" fill="#0E0E0E" opacity="0.093"/>
    <rect x="548" y="389" width="1" height="1" fill="#0E0E0E" opacity="0.088"/>
    <rect x="237" y="429" width="1" height="1" fill="#0E0E0E" opacity="0.053"/>
    <rect x="758" y="271" width="1" height="1" fill="#0E0E0E" opacity="0.053"/>
    <rect x="91" y="323" width="2" height="2" fill="#0E0E0E" opacity="0.049"/>
    <rect x="1126" y="283" width="1" height="1" fill="#0E0E0E" opacity="0.085"/>
    <rect x="48" y="354" width="1" height="1" fill="#0E0E0E" opacity="0.080"/>
    <rect x="592" y="207" width="1" height="1" fill="#0E0E0E" opacity="0.055"/>
    <rect x="1431" y="398" width="1" height="1" fill="#0E0E0E" opacity="0.098"/>
    <rect x="1237" y="510" width="1" height="1" fill="#0E0E0E" opacity="0.100"/>
    <rect x="279" y="413" width="1" height="1" fill="#0E0E0E" opacity="0.082"/>
    <rect x="662" y="157" width="2" height="2" fill="#0E0E0E" opacity="0.046"/>
    <rect x="114" y="516" width="1" height="1" fill="#0E0E0E" opacity="0.075"/>
    <rect x="1045" y="455" width="2" height="2" fill="#0E0E0E" opacity="0.047"/>
    <rect x="1483" y="305" width="2" height="2" fill="#0E0E0E" opacity="0.087"/>
    <rect x="768" y="431" width="1" height="1" fill="#0E0E0E" opacity="0.077"/>
    <rect x="106" y="448" width="1" height="1" fill="#0E0E0E" opacity="0.071"/>
    <rect x="420" y="313" width="2" height="2" fill="#0E0E0E" opacity="0.090"/>
    <rect x="185" y="27" width="2" height="2" fill="#0E0E0E" opacity="0.096"/>
    <rect x="540" y="492" width="1" height="1" fill="#0E0E0E" opacity="0.064"/>
    <rect x="1329" y="381" width="1" height="1" fill="#0E0E0E" opacity="0.079"/>
    <rect x="1387" y="483" width="2" height="2" fill="#0E0E0E" opacity="0.054"/>
    <rect x="439" y="25" width="1" height="1" fill="#0E0E0E" opacity="0.064"/>
    <rect x="123" y="564" width="1" height="1" fill="#0E0E0E" opacity="0.058"/>
    <rect x="112" y="13" width="1" height="1" fill="#0E0E0E" opacity="0.083"/>
    <rect x="770" y="514" width="1" height="1" fill="#0E0E0E" opacity="0.092"/>
    <rect x="801" y="298" width="1" height="1" fill="#0E0E0E" opacity="0.070"/>
    <rect x="1428" y="12" width="1" height="1" fill="#0E0E0E" opacity="0.089"/>
    <rect x="555" y="348" width="2" height="2" fill="#0E0E0E" opacity="0.050"/>
    <rect x="161" y="24" width="1" height="1" fill="#0E0E0E" opacity="0.092"/>
    <rect x="198" y="14" width="1" height="1" fill="#0E0E0E" opacity="0.066"/>
    <rect x="225" y="24" width="1" height="1" fill="#0E0E0E" opacity="0.085"/>
    <rect x="481" y="23" width="2" height="2" fill="#0E0E0E" opacity="0.064"/>
    <rect x="710" y="134" width="2" height="2" fill="#0E0E0E" opacity="0.057"/>
    <rect x="1140" y="257" width="2" height="2" fill="#0E0E0E" opacity="0.078"/>
    <rect x="310" y="328" width="2" height="2" fill="#0E0E0E" opacity="0.048"/>
    <rect x="1009" y="369" width="2" height="2" fill="#0E0E0E" opacity="0.062"/>
    <rect x="910" y="154" width="2" height="2" fill="#0E0E0E" opacity="0.100"/>
    <rect x="922" y="402" width="1" height="1" fill="#0E0E0E" opacity="0.051"/>
    <rect x="1446" y="20" width="1" height="1" fill="#0E0E0E" opacity="0.095"/>
    <rect x="62" y="141" width="1" height="1" fill="#0E0E0E" opacity="0.093"/>
    <rect x="1499" y="35" width="1" height="1" fill="#0E0E0E" opacity="0.066"/>
    <rect x="1254" y="541" width="2" height="2" fill="#0E0E0E" opacity="0.079"/>
    <rect x="912" y="39" width="2" height="2" fill="#0E0E0E" opacity="0.082"/>
    <rect x="1058" y="91" width="1" height="1" fill="#0E0E0E" opacity="0.084"/>
    <rect x="1206" y="168" width="2" height="2" fill="#0E0E0E" opacity="0.062"/>
    <rect x="874" y="271" width="2" height="2" fill="#0E0E0E" opacity="0.062"/>
    <rect x="445" y="490" width="1" height="1" fill="#0E0E0E" opacity="0.086"/>
    <rect x="85" y="487" width="2" height="2" fill="#0E0E0E" opacity="0.071"/>
    <rect x="1066" y="509" width="1" height="1" fill="#0E0E0E" opacity="0.096"/>
    <rect x="481" y="111" width="1" height="1" fill="#0E0E0E" opacity="0.067"/>
    <rect x="40" y="90" width="1" height="1" fill="#0E0E0E" opacity="0.075"/>
    <rect x="991" y="98" width="2" height="2" fill="#0E0E0E" opacity="0.078"/>
    <rect x="377" y="120" width="1" height="1" fill="#0E0E0E" opacity="0.073"/>
    <rect x="1494" y="351" width="1" height="1" fill="#0E0E0E" opacity="0.070"/>
    <rect x="1040" y="465" width="1" height="1" fill="#0E0E0E" opacity="0.068"/>
    <rect x="400" y="394" width="1" height="1" fill="#0E0E0E" opacity="0.098"/>
    <rect x="1104" y="254" width="1" height="1" fill="#0E0E0E" opacity="0.062"/>
    <rect x="1146" y="62" width="1" height="1" fill="#0E0E0E" opacity="0.085"/>
    <rect x="1109" y="257" width="1" height="1" fill="#0E0E0E" opacity="0.061"/>
    <rect x="214" y="338" width="2" height="2" fill="#0E0E0E" opacity="0.070"/>
    <rect x="1036" y="5" width="1" height="1" fill="#0E0E0E" opacity="0.071"/>
    <rect x="1058" y="482" width="1" height="1" fill="#0E0E0E" opacity="0.090"/>
    <rect x="129" y="517" width="1" height="1" fill="#0E0E0E" opacity="0.097"/>
    <rect x="402" y="463" width="1" height="1" fill="#0E0E0E" opacity="0.058"/>
    <rect x="1226" y="291" width="1" height="1" fill="#0E0E0E" opacity="0.057"/>
    <rect x="635" y="599" width="2" height="2" fill="#0E0E0E" opacity="0.080"/>
    <rect x="424" y="52" width="2" height="2" fill="#0E0E0E" opacity="0.063"/>
    <rect x="1377" y="384" width="1" height="1" fill="#0E0E0E" opacity="0.049"/>
    <rect x="874" y="305" width="1" height="1" fill="#0E0E0E" opacity="0.054"/>
    <rect x="17" y="183" width="1" height="1" fill="#0E0E0E" opacity="0.055"/>
    <rect x="563" y="419" width="2" height="2" fill="#0E0E0E" opacity="0.063"/>
    <rect x="1132" y="531" width="2" height="2" fill="#0E0E0E" opacity="0.090"/>
    <rect x="452" y="545" width="1" height="1" fill="#0E0E0E" opacity="0.064"/>
    <rect x="892" y="154" width="1" height="1" fill="#0E0E0E" opacity="0.046"/>
    <rect x="950" y="120" width="2" height="2" fill="#0E0E0E" opacity="0.050"/>
    <rect x="359" y="478" width="1" height="1" fill="#0E0E0E" opacity="0.082"/>
    <rect x="247" y="448" width="1" height="1" fill="#0E0E0E" opacity="0.072"/>
    <rect x="392" y="93" width="2" height="2" fill="#0E0E0E" opacity="0.040"/>
    <rect x="702" y="454" width="1" height="1" fill="#0E0E0E" opacity="0.086"/>
    <rect x="389" y="569" width="1" height="1" fill="#0E0E0E" opacity="0.067"/>
    <rect x="309" y="522" width="1" height="1" fill="#0E0E0E" opacity="0.059"/>
    <rect x="675" y="412" width="2" height="2" fill="#0E0E0E" opacity="0.084"/>
    <rect x="126" y="447" width="1" height="1" fill="#0E0E0E" opacity="0.075"/>
    <rect x="313" y="41" width="1" height="1" fill="#0E0E0E" opacity="0.094"/>
    <rect x="418" y="193" width="1" height="1" fill="#0E0E0E" opacity="0.043"/>
    <rect x="340" y="173" width="1" height="1" fill="#0E0E0E" opacity="0.079"/>
    <rect x="49" y="377" width="1" height="1" fill="#0E0E0E" opacity="0.076"/>
    <rect x="443" y="69" width="1" height="1" fill="#0E0E0E" opacity="0.089"/>
    <rect x="1089" y="254" width="1" height="1" fill="#0E0E0E" opacity="0.079"/>
    <rect x="1085" y="354" width="1" height="1" fill="#0E0E0E" opacity="0.081"/>
    <rect x="621" y="200" width="1" height="1" fill="#0E0E0E" opacity="0.052"/>
    <rect x="114" y="104" width="1" height="1" fill="#0E0E0E" opacity="0.070"/>
    <rect x="1315" y="26" width="1" height="1" fill="#0E0E0E" opacity="0.067"/>
    <rect x="1451" y="107" width="1" height="1" fill="#0E0E0E" opacity="0.098"/>
    <rect x="394" y="104" width="2" height="2" fill="#0E0E0E" opacity="0.050"/>
    <rect x="1332" y="450" width="2" height="2" fill="#0E0E0E" opacity="0.049"/>
    <rect x="478" y="373" width="1" height="1" fill="#0E0E0E" opacity="0.067"/>
    <rect x="184" y="109" width="2" height="2" fill="#0E0E0E" opacity="0.087"/>
    <rect x="706" y="457" width="2" height="2" fill="#0E0E0E" opacity="0.099"/>
    <rect x="1395" y="334" width="2" height="2" fill="#0E0E0E" opacity="0.093"/>
    <rect x="670" y="216" width="1" height="1" fill="#0E0E0E" opacity="0.051"/>
    <rect x="1327" y="267" width="1" height="1" fill="#0E0E0E" opacity="0.060"/>
    <rect x="393" y="287" width="1" height="1" fill="#0E0E0E" opacity="0.061"/>
    <rect x="619" y="207" width="2" height="2" fill="#0E0E0E" opacity="0.055"/>
    <rect x="963" y="394" width="2" height="2" fill="#0E0E0E" opacity="0.073"/>
    <rect x="771" y="398" width="2" height="2" fill="#0E0E0E" opacity="0.046"/>
    <rect x="1189" y="30" width="1" height="1" fill="#0E0E0E" opacity="0.076"/>
    <rect x="595" y="166" width="1" height="1" fill="#0E0E0E" opacity="0.090"/>
    <rect x="805" y="73" width="1" height="1" fill="#0E0E0E" opacity="0.094"/>
    <rect x="965" y="257" width="2" height="2" fill="#0E0E0E" opacity="0.055"/>
    <rect x="1335" y="202" width="2" height="2" fill="#0E0E0E" opacity="0.054"/>
    <rect x="964" y="238" width="1" height="1" fill="#0E0E0E" opacity="0.065"/>
    <rect x="425" y="144" width="1" height="1" fill="#0E0E0E" opacity="0.057"/>
    <rect x="328" y="446" width="1" height="1" fill="#0E0E0E" opacity="0.072"/>
    <rect x="1305" y="380" width="1" height="1" fill="#0E0E0E" opacity="0.095"/>
    <rect x="796" y="263" width="2" height="2" fill="#0E0E0E" opacity="0.059"/>
    <rect x="1394" y="504" width="1" height="1" fill="#0E0E0E" opacity="0.081"/>
    <rect x="1405" y="283" width="1" height="1" fill="#0E0E0E" opacity="0.044"/>
  </g>

  <!-- Ombre d'encre décalée -->
  <text x="755.982626023332" y="354.5224506710196" class="title" font-size="180"
        fill="#1E4E8C" fill-opacity="0.85" text-anchor="middle" dominant-baseline="middle">PROSPECTIVE</text>

  <!-- Mot principal -->
  <text x="750.0" y="348.0" class="title" font-size="180"
        fill="#0E0E0E" text-anchor="middle" dominant-baseline="middle">PROSPECTIVE</text>

  <!-- Signature : ligne + point -->
  <line x1="180.0" y1="468.0" x2="480.0" y2="468.0" stroke="#1E4E8C" stroke-width="6"/>
  <circle cx="1410.0" cy="108.0" r="12" fill="#1E4E8C"/>

  <!-- Clé discrète en coin -->
  <text x="1460" y="570" font-family="ui-monospace, SFMono-Regular, Menlo, monospace" font-size="18" font-weight="500" fill="#0E0E0E" fill-opacity="0.55" text-anchor="end" letter-spacing="2">PROSPECTIVE</text>
</svg>
