<svg xmlns="http://www.w3.org/2000/svg" viewBox="0 0 1500 600" width="1500" height="600">
  <defs>
    <style>
      .title {
        font-family: "Helvetica Neue", "HelveticaNeue-CondensedBold", "Arial Narrow", "Impact", sans-serif;
        font-weight: 900;
        font-stretch: condensed;
        letter-spacing: -0.02em;
      }
    </style>
  </defs>

  <!-- Fond -->
  <rect width="1500" height="600" fill="#C73E3A"/>

  <!-- Grain sérigraphique -->
  <g>
    <rect x="939" y="44" width="1" height="1" fill="#F4EFE6" opacity="0.048"/>
    <rect x="870" y="181" width="1" height="1" fill="#F4EFE6" opacity="0.062"/>
    <rect x="822" y="51" width="1" height="1" fill="#F4EFE6" opacity="0.075"/>
    <rect x="703" y="178" width="1" height="1" fill="#F4EFE6" opacity="0.073"/>
    <rect x="499" y="540" width="1" height="1" fill="#F4EFE6" opacity="0.046"/>
    <rect x="567" y="367" width="1" height="1" fill="#F4EFE6" opacity="0.044"/>
    <rect x="1270" y="557" width="1" height="1" fill="#F4EFE6" opacity="0.041"/>
    <rect x="1167" y="240" width="1" height="1" fill="#F4EFE6" opacity="0.040"/>
    <rect x="336" y="222" width="1" height="1" fill="#F4EFE6" opacity="0.080"/>
    <rect x="762" y="453" width="2" height="2" fill="#F4EFE6" opacity="0.088"/>
    <rect x="1193" y="51" width="1" height="1" fill="#F4EFE6" opacity="0.043"/>
    <rect x="872" y="258" width="2" height="2" fill="#F4EFE6" opacity="0.099"/>
    <rect x="658" y="492" width="2" height="2" fill="#F4EFE6" opacity="0.093"/>
    <rect x="662" y="571" width="2" height="2" fill="#F4EFE6" opacity="0.059"/>
    <rect x="734" y="107" width="1" height="1" fill="#F4EFE6" opacity="0.044"/>
    <rect x="151" y="243" width="1" height="1" fill="#F4EFE6" opacity="0.075"/>
    <rect x="1314" y="207" width="2" height="2" fill="#F4EFE6" opacity="0.098"/>
    <rect x="56" y="337" width="2" height="2" fill="#F4EFE6" opacity="0.057"/>
    <rect x="1234" y="588" width="2" height="2" fill="#F4EFE6" opacity="0.093"/>
    <rect x="231" y="573" width="1" height="1" fill="#F4EFE6" opacity="0.057"/>
    <rect x="871" y="438" width="2" height="2" fill="#F4EFE6" opacity="0.069"/>
    <rect x="795" y="489" width="1" height="1" fill="#F4EFE6" opacity="0.058"/>
    <rect x="332" y="73" width="1" height="1" fill="#F4EFE6" opacity="0.095"/>
    <rect x="1478" y="293" width="2" height="2" fill="#F4EFE6" opacity="0.053"/>
    <rect x="616" y="460" width="2" height="2" fill="#F4EFE6" opacity="0.056"/>
    <rect x="413" y="443" width="2" height="2" fill="#F4EFE6" opacity="0.088"/>
    <rect x="750" y="275" width="1" height="1" fill="#F4EFE6" opacity="0.086"/>
    <rect x="1210" y="551" width="1" height="1" fill="#F4EFE6" opacity="0.050"/>
    <rect x="277" y="591" width="2" height="2" fill="#F4EFE6" opacity="0.061"/>
    <rect x="581" y="537" width="2" height="2" fill="#F4EFE6" opacity="0.043"/>
    <rect x="505" y="516" width="1" height="1" fill="#F4EFE6" opacity="0.047"/>
    <rect x="559" y="588" width="2" height="2" fill="#F4EFE6" opacity="0.047"/>
    <rect x="1266" y="437" width="1" height="1" fill="#F4EFE6" opacity="0.048"/>
    <rect x="443" y="229" width="2" height="2" fill="#F4EFE6" opacity="0.068"/>
    <rect x="108" y="376" width="2" height="2" fill="#F4EFE6" opacity="0.076"/>
    <rect x="22" y="174" width="2" height="2" fill="#F4EFE6" opacity="0.076"/>
    <rect x="1009" y="449" width="1" height="1" fill="#F4EFE6" opacity="0.086"/>
    <rect x="680" y="120" width="2" height="2" fill="#F4EFE6" opacity="0.086"/>
    <rect x="408" y="6" width="1" height="1" fill="#F4EFE6" opacity="0.040"/>
    <rect x="185" y="431" width="1" height="1" fill="#F4EFE6" opacity="0.040"/>
    <rect x="1422" y="39" width="2" height="2" fill="#F4EFE6" opacity="0.045"/>
    <rect x="410" y="145" width="1" height="1" fill="#F4EFE6" opacity="0.055"/>
    <rect x="432" y="445" width="1" height="1" fill="#F4EFE6" opacity="0.099"/>
    <rect x="389" y="466" width="2" height="2" fill="#F4EFE6" opacity="0.076"/>
    <rect x="238" y="137" width="1" height="1" fill="#F4EFE6" opacity="0.042"/>
    <rect x="696" y="229" width="1" height="1" fill="#F4EFE6" opacity="0.046"/>
    <rect x="1217" y="124" width="1" height="1" fill="#F4EFE6" opacity="0.057"/>
    <rect x="902" y="106" width="2" height="2" fill="#F4EFE6" opacity="0.055"/>
    <rect x="279" y="23" width="1" height="1" fill="#F4EFE6" opacity="0.060"/>
    <rect x="1456" y="183" width="1" height="1" fill="#F4EFE6" opacity="0.093"/>
    <rect x="859" y="80" width="1" height="1" fill="#F4EFE6" opacity="0.065"/>
    <rect x="1088" y="461" width="1" height="1" fill="#F4EFE6" opacity="0.087"/>
    <rect x="967" y="281" width="1" height="1" fill="#F4EFE6" opacity="0.087"/>
    <rect x="458" y="168" width="1" height="1" fill="#F4EFE6" opacity="0.057"/>
    <rect x="1345" y="285" width="1" height="1" fill="#F4EFE6" opacity="0.086"/>
    <rect x="470" y="360" width="2" height="2" fill="#F4EFE6" opacity="0.087"/>
    <rect x="62" y="129" width="1" height="1" fill="#F4EFE6" opacity="0.047"/>
    <rect x="639" y="87" width="1" height="1" fill="#F4EFE6" opacity="0.071"/>
    <rect x="77" y="448" width="2" height="2" fill="#F4EFE6" opacity="0.043"/>
    <rect x="835" y="524" width="2" height="2" fill="#F4EFE6" opacity="0.062"/>
    <rect x="1067" y="182" width="1" height="1" fill="#F4EFE6" opacity="0.096"/>
    <rect x="602" y="377" width="1" height="1" fill="#F4EFE6" opacity="0.064"/>
    <rect x="578" y="600" width="2" height="2" fill="#F4EFE6" opacity="0.060"/>
    <rect x="182" y="447" width="1" height="1" fill="#F4EFE6" opacity="0.077"/>
    <rect x="448" y="561" width="2" height="2" fill="#F4EFE6" opacity="0.059"/>
    <rect x="93" y="316" width="1" height="1" fill="#F4EFE6" opacity="0.097"/>
    <rect x="1323" y="590" width="1" height="1" fill="#F4EFE6" opacity="0.085"/>
    <rect x="1203" y="86" width="1" height="1" fill="#F4EFE6" opacity="0.058"/>
    <rect x="473" y="400" width="2" height="2" fill="#F4EFE6" opacity="0.045"/>
    <rect x="318" y="464" width="1" height="1" fill="#F4EFE6" opacity="0.083"/>
    <rect x="697" y="508" width="2" height="2" fill="#F4EFE6" opacity="0.076"/>
    <rect x="1414" y="574" width="1" height="1" fill="#F4EFE6" opacity="0.062"/>
    <rect x="1077" y="351" width="1" height="1" fill="#F4EFE6" opacity="0.057"/>
    <rect x="1455" y="439" width="1" height="1" fill="#F4EFE6" opacity="0.086"/>
    <rect x="184" y="460" width="1" height="1" fill="#F4EFE6" opacity="0.092"/>
    <rect x="1288" y="292" width="1" height="1" fill="#F4EFE6" opacity="0.100"/>
    <rect x="1357" y="370" width="2" height="2" fill="#F4EFE6" opacity="0.059"/>
    <rect x="1190" y="493" width="1" height="1" fill="#F4EFE6" opacity="0.071"/>
    <rect x="1065" y="370" width="2" height="2" fill="#F4EFE6" opacity="0.072"/>
    <rect x="296" y="145" width="1" height="1" fill="#F4EFE6" opacity="0.081"/>
    <rect x="1220" y="523" width="1" height="1" fill="#F4EFE6" opacity="0.094"/>
    <rect x="625" y="7" width="2" height="2" fill="#F4EFE6" opacity="0.043"/>
    <rect x="1060" y="412" width="1" height="1" fill="#F4EFE6" opacity="0.074"/>
    <rect x="739" y="443" width="1" height="1" fill="#F4EFE6" opacity="0.042"/>
    <rect x="976" y="572" width="2" height="2" fill="#F4EFE6" opacity="0.090"/>
    <rect x="1079" y="254" width="1" height="1" fill="#F4EFE6" opacity="0.046"/>
    <rect x="1388" y="17" width="2" height="2" fill="#F4EFE6" opacity="0.094"/>
    <rect x="749" y="512" width="1" height="1" fill="#F4EFE6" opacity="0.052"/>
    <rect x="167" y="53" width="1" height="1" fill="#F4EFE6" opacity="0.065"/>
    <rect x="362" y="206" width="2" height="2" fill="#F4EFE6" opacity="0.056"/>
    <rect x="176" y="333" width="1" height="1" fill="#F4EFE6" opacity="0.060"/>
    <rect x="1159" y="208" width="1" height="1" fill="#F4EFE6" opacity="0.098"/>
    <rect x="980" y="227" width="1" height="1" fill="#F4EFE6" opacity="0.073"/>
    <rect x="1212" y="409" width="1" height="1" fill="#F4EFE6" opacity="0.078"/>
    <rect x="622" y="301" width="1" height="1" fill="#F4EFE6" opacity="0.079"/>
    <rect x="1359" y="207" width="2" height="2" fill="#F4EFE6" opacity="0.069"/>
    <rect x="523" y="445" width="2" height="2" fill="#F4EFE6" opacity="0.042"/>
    <rect x="279" y="409" width="2" height="2" fill="#F4EFE6" opacity="0.096"/>
    <rect x="182" y="136" width="1" height="1" fill="#F4EFE6" opacity="0.077"/>
    <rect x="596" y="275" width="1" height="1" fill="#F4EFE6" opacity="0.074"/>
    <rect x="514" y="259" width="1" height="1" fill="#F4EFE6" opacity="0.066"/>
    <rect x="692" y="496" width="2" height="2" fill="#F4EFE6" opacity="0.099"/>
    <rect x="808" y="212" width="1" height="1" fill="#F4EFE6" opacity="0.089"/>
    <rect x="1401" y="50" width="1" height="1" fill="#F4EFE6" opacity="0.082"/>
    <rect x="1160" y="9" width="1" height="1" fill="#F4EFE6" opacity="0.070"/>
    <rect x="515" y="483" width="1" height="1" fill="#F4EFE6" opacity="0.078"/>
    <rect x="978" y="568" width="2" height="2" fill="#F4EFE6" opacity="0.046"/>
    <rect x="562" y="143" width="1" height="1" fill="#F4EFE6" opacity="0.042"/>
    <rect x="813" y="471" width="2" height="2" fill="#F4EFE6" opacity="0.062"/>
    <rect x="857" y="564" width="1" height="1" fill="#F4EFE6" opacity="0.046"/>
    <rect x="1380" y="580" width="2" height="2" fill="#F4EFE6" opacity="0.043"/>
    <rect x="119" y="42" width="1" height="1" fill="#F4EFE6" opacity="0.088"/>
    <rect x="154" y="92" width="2" height="2" fill="#F4EFE6" opacity="0.091"/>
    <rect x="943" y="419" width="2" height="2" fill="#F4EFE6" opacity="0.096"/>
    <rect x="847" y="149" width="1" height="1" fill="#F4EFE6" opacity="0.041"/>
    <rect x="1479" y="341" width="1" height="1" fill="#F4EFE6" opacity="0.098"/>
    <rect x="1232" y="488" width="2" height="2" fill="#F4EFE6" opacity="0.086"/>
    <rect x="633" y="33" width="2" height="2" fill="#F4EFE6" opacity="0.042"/>
    <rect x="1039" y="282" width="1" height="1" fill="#F4EFE6" opacity="0.076"/>
    <rect x="178" y="183" width="1" height="1" fill="#F4EFE6" opacity="0.042"/>
    <rect x="1474" y="104" width="2" height="2" fill="#F4EFE6" opacity="0.078"/>
    <rect x="1063" y="460" width="1" height="1" fill="#F4EFE6" opacity="0.099"/>
    <rect x="325" y="6" width="1" height="1" fill="#F4EFE6" opacity="0.040"/>
    <rect x="262" y="21" width="1" height="1" fill="#F4EFE6" opacity="0.070"/>
    <rect x="1357" y="223" width="1" height="1" fill="#F4EFE6" opacity="0.054"/>
    <rect x="1492" y="485" width="1" height="1" fill="#F4EFE6" opacity="0.072"/>
    <rect x="314" y="346" width="1" height="1" fill="#F4EFE6" opacity="0.047"/>
    <rect x="485" y="589" width="1" height="1" fill="#F4EFE6" opacity="0.073"/>
    <rect x="696" y="574" width="2" height="2" fill="#F4EFE6" opacity="0.048"/>
    <rect x="1336" y="593" width="1" height="1" fill="#F4EFE6" opacity="0.050"/>
    <rect x="799" y="73" width="2" height="2" fill="#F4EFE6" opacity="0.060"/>
    <rect x="778" y="372" width="2" height="2" fill="#F4EFE6" opacity="0.077"/>
    <rect x="491" y="215" width="1" height="1" fill="#F4EFE6" opacity="0.046"/>
    <rect x="724" y="35" width="1" height="1" fill="#F4EFE6" opacity="0.040"/>
    <rect x="519" y="361" width="1" height="1" fill="#F4EFE6" opacity="0.089"/>
    <rect x="1394" y="517" width="1" height="1" fill="#F4EFE6" opacity="0.099"/>
    <rect x="546" y="97" width="1" height="1" fill="#F4EFE6" opacity="0.077"/>
    <rect x="1016" y="331" width="1" height="1" fill="#F4EFE6" opacity="0.096"/>
    <rect x="923" y="369" width="2" height="2" fill="#F4EFE6" opacity="0.081"/>
    <rect x="181" y="106" width="1" height="1" fill="#F4EFE6" opacity="0.080"/>
    <rect x="1052" y="533" width="2" height="2" fill="#F4EFE6" opacity="0.084"/>
    <rect x="327" y="73" width="1" height="1" fill="#F4EFE6" opacity="0.046"/>
    <rect x="857" y="496" width="1" height="1" fill="#F4EFE6" opacity="0.070"/>
    <rect x="554" y="597" width="1" height="1" fill="#F4EFE6" opacity="0.093"/>
    <rect x="627" y="116" width="2" height="2" fill="#F4EFE6" opacity="0.092"/>
    <rect x="722" y="25" width="2" height="2" fill="#F4EFE6" opacity="0.077"/>
    <rect x="730" y="219" width="1" height="1" fill="#F4EFE6" opacity="0.099"/>
    <rect x="1347" y="327" width="1" height="1" fill="#F4EFE6" opacity="0.076"/>
    <rect x="67" y="393" width="2" height="2" fill="#F4EFE6" opacity="0.091"/>
    <rect x="959" y="56" width="2" height="2" fill="#F4EFE6" opacity="0.057"/>
    <rect x="1164" y="184" width="2" height="2" fill="#F4EFE6" opacity="0.097"/>
    <rect x="797" y="412" width="2" height="2" fill="#F4EFE6" opacity="0.092"/>
    <rect x="1431" y="516" width="2" height="2" fill="#F4EFE6" opacity="0.066"/>
    <rect x="746" y="358" width="1" height="1" fill="#F4EFE6" opacity="0.057"/>
    <rect x="721" y="81" width="2" height="2" fill="#F4EFE6" opacity="0.062"/>
    <rect x="1121" y="567" width="1" height="1" fill="#F4EFE6" opacity="0.074"/>
    <rect x="629" y="104" width="1" height="1" fill="#F4EFE6" opacity="0.080"/>
    <rect x="1159" y="322" width="2" height="2" fill="#F4EFE6" opacity="0.083"/>
    <rect x="379" y="438" width="1" height="1" fill="#F4EFE6" opacity="0.073"/>
    <rect x="1053" y="173" width="2" height="2" fill="#F4EFE6" opacity="0.087"/>
    <rect x="351" y="597" width="1" height="1" fill="#F4EFE6" opacity="0.049"/>
    <rect x="464" y="412" width="2" height="2" fill="#F4EFE6" opacity="0.059"/>
    <rect x="189" y="152" width="1" height="1" fill="#F4EFE6" opacity="0.054"/>
    <rect x="1494" y="306" width="2" height="2" fill="#F4EFE6" opacity="0.051"/>
    <rect x="1463" y="66" width="1" height="1" fill="#F4EFE6" opacity="0.059"/>
    <rect x="1323" y="167" width="1" height="1" fill="#F4EFE6" opacity="0.094"/>
    <rect x="1340" y="416" width="1" height="1" fill="#F4EFE6" opacity="0.046"/>
    <rect x="56" y="16" width="2" height="2" fill="#F4EFE6" opacity="0.085"/>
    <rect x="1498" y="80" width="1" height="1" fill="#F4EFE6" opacity="0.087"/>
    <rect x="470" y="576" width="1" height="1" fill="#F4EFE6" opacity="0.047"/>
    <rect x="1074" y="148" width="1" height="1" fill="#F4EFE6" opacity="0.085"/>
    <rect x="1194" y="7" width="1" height="1" fill="#F4EFE6" opacity="0.066"/>
    <rect x="1109" y="481" width="1" height="1" fill="#F4EFE6" opacity="0.069"/>
    <rect x="1288" y="284" width="1" height="1" fill="#F4EFE6" opacity="0.054"/>
    <rect x="657" y="250" width="1" height="1" fill="#F4EFE6" opacity="0.052"/>
    <rect x="763" y="556" width="1" height="1" fill="#F4EFE6" opacity="0.083"/>
    <rect x="752" y="0" width="2" height="2" fill="#F4EFE6" opacity="0.064"/>
    <rect x="902" y="551" width="1" height="1" fill="#F4EFE6" opacity="0.056"/>
    <rect x="407" y="546" width="1" height="1" fill="#F4EFE6" opacity="0.045"/>
    <rect x="856" y="334" width="1" height="1" fill="#F4EFE6" opacity="0.100"/>
  </g>

  <!-- Ombre d'encre décalée -->
  <text x="755.5690206539133" y="352.44632002579607" class="title" font-size="180"
        fill="#0E0E0E" fill-opacity="0.85" text-anchor="middle" dominant-baseline="middle">PSYCHOLOGIE</text>

  <!-- Mot principal -->
  <text x="750.0" y="348.0" class="title" font-size="180"
        fill="#F4EFE6" text-anchor="middle" dominant-baseline="middle">PSYCHOLOGIE</text>

  <!-- Signature : ligne + point -->
  <line x1="180.0" y1="468.0" x2="480.0" y2="468.0" stroke="#0E0E0E" stroke-width="6"/>
  <circle cx="1410.0" cy="108.0" r="12" fill="#0E0E0E"/>

  <!-- Clé discrète en coin -->
  <text x="1460" y="570" font-family="ui-monospace, SFMono-Regular, Menlo, monospace" font-size="18" font-weight="500" fill="#F4EFE6" fill-opacity="0.55" text-anchor="end" letter-spacing="2">PSYCHOLOGIE</text>
</svg>
