<svg xmlns="http://www.w3.org/2000/svg" viewBox="0 0 1500 600" width="1500" height="600">
  <defs>
    <style>
      .title {
        font-family: "Helvetica Neue", "HelveticaNeue-CondensedBold", "Arial Narrow", "Impact", sans-serif;
        font-weight: 900;
        font-stretch: condensed;
        letter-spacing: -0.02em;
      }
    </style>
  </defs>

  <!-- Fond -->
  <rect width="1500" height="600" fill="#0E0E0E"/>

  <!-- Grain sérigraphique -->
  <g>
    <rect x="1144" y="84" width="1" height="1" fill="#F4EFE6" opacity="0.052"/>
    <rect x="95" y="270" width="1" height="1" fill="#F4EFE6" opacity="0.072"/>
    <rect x="302" y="550" width="2" height="2" fill="#F4EFE6" opacity="0.082"/>
    <rect x="1490" y="173" width="1" height="1" fill="#F4EFE6" opacity="0.057"/>
    <rect x="213" y="317" width="1" height="1" fill="#F4EFE6" opacity="0.081"/>
    <rect x="811" y="555" width="2" height="2" fill="#F4EFE6" opacity="0.053"/>
    <rect x="220" y="65" width="1" height="1" fill="#F4EFE6" opacity="0.088"/>
    <rect x="85" y="117" width="1" height="1" fill="#F4EFE6" opacity="0.082"/>
    <rect x="298" y="566" width="1" height="1" fill="#F4EFE6" opacity="0.081"/>
    <rect x="1195" y="529" width="2" height="2" fill="#F4EFE6" opacity="0.078"/>
    <rect x="95" y="395" width="1" height="1" fill="#F4EFE6" opacity="0.072"/>
    <rect x="21" y="208" width="1" height="1" fill="#F4EFE6" opacity="0.074"/>
    <rect x="973" y="518" width="1" height="1" fill="#F4EFE6" opacity="0.052"/>
    <rect x="377" y="204" width="1" height="1" fill="#F4EFE6" opacity="0.081"/>
    <rect x="235" y="342" width="1" height="1" fill="#F4EFE6" opacity="0.089"/>
    <rect x="1285" y="327" width="1" height="1" fill="#F4EFE6" opacity="0.048"/>
    <rect x="249" y="481" width="1" height="1" fill="#F4EFE6" opacity="0.064"/>
    <rect x="308" y="581" width="1" height="1" fill="#F4EFE6" opacity="0.079"/>
    <rect x="1232" y="335" width="1" height="1" fill="#F4EFE6" opacity="0.088"/>
    <rect x="1192" y="204" width="1" height="1" fill="#F4EFE6" opacity="0.082"/>
    <rect x="1038" y="185" width="1" height="1" fill="#F4EFE6" opacity="0.083"/>
    <rect x="0" y="303" width="1" height="1" fill="#F4EFE6" opacity="0.096"/>
    <rect x="1010" y="548" width="1" height="1" fill="#F4EFE6" opacity="0.078"/>
    <rect x="482" y="455" width="1" height="1" fill="#F4EFE6" opacity="0.072"/>
    <rect x="160" y="345" width="1" height="1" fill="#F4EFE6" opacity="0.097"/>
    <rect x="924" y="473" width="2" height="2" fill="#F4EFE6" opacity="0.046"/>
    <rect x="961" y="480" width="1" height="1" fill="#F4EFE6" opacity="0.047"/>
    <rect x="1068" y="510" width="1" height="1" fill="#F4EFE6" opacity="0.066"/>
    <rect x="328" y="86" width="2" height="2" fill="#F4EFE6" opacity="0.050"/>
    <rect x="305" y="558" width="1" height="1" fill="#F4EFE6" opacity="0.059"/>
    <rect x="961" y="441" width="1" height="1" fill="#F4EFE6" opacity="0.078"/>
    <rect x="712" y="557" width="2" height="2" fill="#F4EFE6" opacity="0.083"/>
    <rect x="258" y="337" width="2" height="2" fill="#F4EFE6" opacity="0.059"/>
    <rect x="642" y="78" width="2" height="2" fill="#F4EFE6" opacity="0.065"/>
    <rect x="725" y="205" width="2" height="2" fill="#F4EFE6" opacity="0.049"/>
    <rect x="694" y="326" width="1" height="1" fill="#F4EFE6" opacity="0.083"/>
    <rect x="475" y="296" width="1" height="1" fill="#F4EFE6" opacity="0.047"/>
    <rect x="1434" y="562" width="1" height="1" fill="#F4EFE6" opacity="0.055"/>
    <rect x="296" y="277" width="1" height="1" fill="#F4EFE6" opacity="0.080"/>
    <rect x="1331" y="152" width="2" height="2" fill="#F4EFE6" opacity="0.058"/>
    <rect x="201" y="123" width="2" height="2" fill="#F4EFE6" opacity="0.058"/>
    <rect x="1141" y="73" width="2" height="2" fill="#F4EFE6" opacity="0.085"/>
    <rect x="1046" y="506" width="2" height="2" fill="#F4EFE6" opacity="0.080"/>
    <rect x="339" y="262" width="1" height="1" fill="#F4EFE6" opacity="0.062"/>
    <rect x="748" y="460" width="1" height="1" fill="#F4EFE6" opacity="0.043"/>
    <rect x="1380" y="538" width="1" height="1" fill="#F4EFE6" opacity="0.060"/>
    <rect x="1431" y="150" width="1" height="1" fill="#F4EFE6" opacity="0.041"/>
    <rect x="305" y="139" width="1" height="1" fill="#F4EFE6" opacity="0.050"/>
    <rect x="1174" y="28" width="1" height="1" fill="#F4EFE6" opacity="0.076"/>
    <rect x="523" y="112" width="1" height="1" fill="#F4EFE6" opacity="0.091"/>
    <rect x="31" y="103" width="1" height="1" fill="#F4EFE6" opacity="0.057"/>
    <rect x="382" y="292" width="1" height="1" fill="#F4EFE6" opacity="0.077"/>
    <rect x="146" y="367" width="1" height="1" fill="#F4EFE6" opacity="0.056"/>
    <rect x="592" y="491" width="1" height="1" fill="#F4EFE6" opacity="0.067"/>
    <rect x="1108" y="246" width="1" height="1" fill="#F4EFE6" opacity="0.092"/>
    <rect x="1497" y="218" width="2" height="2" fill="#F4EFE6" opacity="0.066"/>
    <rect x="441" y="573" width="1" height="1" fill="#F4EFE6" opacity="0.056"/>
    <rect x="1274" y="92" width="1" height="1" fill="#F4EFE6" opacity="0.040"/>
    <rect x="69" y="30" width="1" height="1" fill="#F4EFE6" opacity="0.057"/>
    <rect x="761" y="136" width="2" height="2" fill="#F4EFE6" opacity="0.065"/>
    <rect x="1400" y="8" width="1" height="1" fill="#F4EFE6" opacity="0.049"/>
    <rect x="102" y="438" width="1" height="1" fill="#F4EFE6" opacity="0.078"/>
    <rect x="885" y="413" width="2" height="2" fill="#F4EFE6" opacity="0.076"/>
    <rect x="1052" y="331" width="1" height="1" fill="#F4EFE6" opacity="0.064"/>
    <rect x="1410" y="540" width="1" height="1" fill="#F4EFE6" opacity="0.076"/>
    <rect x="763" y="358" width="1" height="1" fill="#F4EFE6" opacity="0.079"/>
    <rect x="485" y="403" width="2" height="2" fill="#F4EFE6" opacity="0.085"/>
    <rect x="817" y="34" width="1" height="1" fill="#F4EFE6" opacity="0.070"/>
    <rect x="778" y="9" width="1" height="1" fill="#F4EFE6" opacity="0.041"/>
    <rect x="129" y="450" width="1" height="1" fill="#F4EFE6" opacity="0.072"/>
    <rect x="1309" y="215" width="1" height="1" fill="#F4EFE6" opacity="0.050"/>
    <rect x="1215" y="8" width="1" height="1" fill="#F4EFE6" opacity="0.069"/>
    <rect x="1474" y="382" width="1" height="1" fill="#F4EFE6" opacity="0.082"/>
    <rect x="1114" y="521" width="2" height="2" fill="#F4EFE6" opacity="0.041"/>
    <rect x="987" y="109" width="2" height="2" fill="#F4EFE6" opacity="0.076"/>
    <rect x="633" y="75" width="1" height="1" fill="#F4EFE6" opacity="0.073"/>
    <rect x="374" y="36" width="2" height="2" fill="#F4EFE6" opacity="0.084"/>
    <rect x="1312" y="159" width="1" height="1" fill="#F4EFE6" opacity="0.099"/>
    <rect x="1411" y="568" width="2" height="2" fill="#F4EFE6" opacity="0.093"/>
    <rect x="1190" y="65" width="1" height="1" fill="#F4EFE6" opacity="0.059"/>
    <rect x="1384" y="179" width="1" height="1" fill="#F4EFE6" opacity="0.077"/>
    <rect x="1296" y="436" width="2" height="2" fill="#F4EFE6" opacity="0.095"/>
    <rect x="717" y="317" width="1" height="1" fill="#F4EFE6" opacity="0.071"/>
    <rect x="1097" y="338" width="1" height="1" fill="#F4EFE6" opacity="0.047"/>
    <rect x="66" y="330" width="1" height="1" fill="#F4EFE6" opacity="0.086"/>
    <rect x="363" y="166" width="2" height="2" fill="#F4EFE6" opacity="0.054"/>
    <rect x="970" y="475" width="1" height="1" fill="#F4EFE6" opacity="0.096"/>
    <rect x="631" y="263" width="1" height="1" fill="#F4EFE6" opacity="0.078"/>
    <rect x="1087" y="463" width="1" height="1" fill="#F4EFE6" opacity="0.044"/>
    <rect x="219" y="335" width="1" height="1" fill="#F4EFE6" opacity="0.084"/>
    <rect x="317" y="419" width="1" height="1" fill="#F4EFE6" opacity="0.092"/>
    <rect x="265" y="259" width="1" height="1" fill="#F4EFE6" opacity="0.042"/>
    <rect x="1132" y="71" width="1" height="1" fill="#F4EFE6" opacity="0.096"/>
    <rect x="332" y="6" width="2" height="2" fill="#F4EFE6" opacity="0.041"/>
    <rect x="1326" y="79" width="2" height="2" fill="#F4EFE6" opacity="0.040"/>
    <rect x="1145" y="398" width="1" height="1" fill="#F4EFE6" opacity="0.089"/>
    <rect x="1333" y="213" width="1" height="1" fill="#F4EFE6" opacity="0.057"/>
    <rect x="366" y="406" width="1" height="1" fill="#F4EFE6" opacity="0.043"/>
    <rect x="407" y="122" width="1" height="1" fill="#F4EFE6" opacity="0.099"/>
    <rect x="47" y="225" width="1" height="1" fill="#F4EFE6" opacity="0.059"/>
    <rect x="93" y="416" width="2" height="2" fill="#F4EFE6" opacity="0.076"/>
    <rect x="150" y="85" width="1" height="1" fill="#F4EFE6" opacity="0.063"/>
    <rect x="642" y="438" width="1" height="1" fill="#F4EFE6" opacity="0.046"/>
    <rect x="567" y="403" width="1" height="1" fill="#F4EFE6" opacity="0.091"/>
    <rect x="349" y="279" width="1" height="1" fill="#F4EFE6" opacity="0.083"/>
    <rect x="1305" y="496" width="1" height="1" fill="#F4EFE6" opacity="0.094"/>
    <rect x="204" y="336" width="2" height="2" fill="#F4EFE6" opacity="0.069"/>
    <rect x="1493" y="64" width="1" height="1" fill="#F4EFE6" opacity="0.063"/>
    <rect x="56" y="312" width="1" height="1" fill="#F4EFE6" opacity="0.051"/>
    <rect x="598" y="256" width="2" height="2" fill="#F4EFE6" opacity="0.074"/>
    <rect x="119" y="123" width="1" height="1" fill="#F4EFE6" opacity="0.053"/>
    <rect x="848" y="3" width="2" height="2" fill="#F4EFE6" opacity="0.073"/>
    <rect x="1230" y="414" width="1" height="1" fill="#F4EFE6" opacity="0.058"/>
    <rect x="556" y="28" width="1" height="1" fill="#F4EFE6" opacity="0.078"/>
    <rect x="1340" y="541" width="2" height="2" fill="#F4EFE6" opacity="0.079"/>
    <rect x="213" y="487" width="1" height="1" fill="#F4EFE6" opacity="0.044"/>
    <rect x="948" y="182" width="1" height="1" fill="#F4EFE6" opacity="0.046"/>
    <rect x="1046" y="599" width="1" height="1" fill="#F4EFE6" opacity="0.086"/>
    <rect x="732" y="485" width="2" height="2" fill="#F4EFE6" opacity="0.096"/>
    <rect x="24" y="99" width="1" height="1" fill="#F4EFE6" opacity="0.081"/>
    <rect x="314" y="381" width="2" height="2" fill="#F4EFE6" opacity="0.067"/>
    <rect x="810" y="496" width="1" height="1" fill="#F4EFE6" opacity="0.051"/>
    <rect x="598" y="50" width="1" height="1" fill="#F4EFE6" opacity="0.078"/>
    <rect x="612" y="557" width="1" height="1" fill="#F4EFE6" opacity="0.076"/>
    <rect x="39" y="15" width="1" height="1" fill="#F4EFE6" opacity="0.092"/>
    <rect x="1410" y="459" width="2" height="2" fill="#F4EFE6" opacity="0.073"/>
    <rect x="1121" y="345" width="1" height="1" fill="#F4EFE6" opacity="0.054"/>
    <rect x="527" y="300" width="2" height="2" fill="#F4EFE6" opacity="0.094"/>
    <rect x="63" y="244" width="1" height="1" fill="#F4EFE6" opacity="0.085"/>
    <rect x="1448" y="223" width="1" height="1" fill="#F4EFE6" opacity="0.045"/>
    <rect x="8" y="543" width="1" height="1" fill="#F4EFE6" opacity="0.055"/>
    <rect x="331" y="455" width="1" height="1" fill="#F4EFE6" opacity="0.088"/>
    <rect x="1153" y="67" width="1" height="1" fill="#F4EFE6" opacity="0.098"/>
    <rect x="1186" y="493" width="1" height="1" fill="#F4EFE6" opacity="0.041"/>
    <rect x="83" y="415" width="2" height="2" fill="#F4EFE6" opacity="0.051"/>
    <rect x="1333" y="10" width="1" height="1" fill="#F4EFE6" opacity="0.065"/>
    <rect x="1382" y="360" width="1" height="1" fill="#F4EFE6" opacity="0.082"/>
    <rect x="391" y="144" width="2" height="2" fill="#F4EFE6" opacity="0.100"/>
    <rect x="1023" y="489" width="1" height="1" fill="#F4EFE6" opacity="0.092"/>
    <rect x="137" y="468" width="1" height="1" fill="#F4EFE6" opacity="0.053"/>
    <rect x="1321" y="384" width="1" height="1" fill="#F4EFE6" opacity="0.067"/>
    <rect x="953" y="121" width="2" height="2" fill="#F4EFE6" opacity="0.092"/>
    <rect x="520" y="108" width="2" height="2" fill="#F4EFE6" opacity="0.091"/>
    <rect x="69" y="450" width="1" height="1" fill="#F4EFE6" opacity="0.085"/>
    <rect x="273" y="441" width="2" height="2" fill="#F4EFE6" opacity="0.080"/>
    <rect x="1096" y="443" width="2" height="2" fill="#F4EFE6" opacity="0.069"/>
    <rect x="731" y="44" width="1" height="1" fill="#F4EFE6" opacity="0.074"/>
    <rect x="1307" y="329" width="1" height="1" fill="#F4EFE6" opacity="0.074"/>
    <rect x="16" y="487" width="1" height="1" fill="#F4EFE6" opacity="0.071"/>
    <rect x="618" y="449" width="2" height="2" fill="#F4EFE6" opacity="0.086"/>
    <rect x="561" y="506" width="2" height="2" fill="#F4EFE6" opacity="0.084"/>
    <rect x="1263" y="37" width="1" height="1" fill="#F4EFE6" opacity="0.078"/>
    <rect x="283" y="520" width="2" height="2" fill="#F4EFE6" opacity="0.088"/>
    <rect x="1390" y="111" width="1" height="1" fill="#F4EFE6" opacity="0.047"/>
    <rect x="33" y="90" width="2" height="2" fill="#F4EFE6" opacity="0.100"/>
    <rect x="364" y="279" width="1" height="1" fill="#F4EFE6" opacity="0.077"/>
    <rect x="966" y="458" width="2" height="2" fill="#F4EFE6" opacity="0.100"/>
    <rect x="911" y="79" width="1" height="1" fill="#F4EFE6" opacity="0.097"/>
    <rect x="54" y="425" width="1" height="1" fill="#F4EFE6" opacity="0.042"/>
    <rect x="593" y="119" width="1" height="1" fill="#F4EFE6" opacity="0.050"/>
    <rect x="529" y="73" width="1" height="1" fill="#F4EFE6" opacity="0.072"/>
    <rect x="591" y="153" width="1" height="1" fill="#F4EFE6" opacity="0.086"/>
    <rect x="129" y="219" width="1" height="1" fill="#F4EFE6" opacity="0.058"/>
    <rect x="1222" y="325" width="2" height="2" fill="#F4EFE6" opacity="0.080"/>
    <rect x="1439" y="396" width="1" height="1" fill="#F4EFE6" opacity="0.068"/>
    <rect x="332" y="395" width="1" height="1" fill="#F4EFE6" opacity="0.085"/>
    <rect x="962" y="149" width="2" height="2" fill="#F4EFE6" opacity="0.082"/>
    <rect x="1448" y="477" width="1" height="1" fill="#F4EFE6" opacity="0.077"/>
    <rect x="802" y="418" width="2" height="2" fill="#F4EFE6" opacity="0.046"/>
    <rect x="1089" y="387" width="1" height="1" fill="#F4EFE6" opacity="0.087"/>
    <rect x="320" y="189" width="1" height="1" fill="#F4EFE6" opacity="0.069"/>
    <rect x="1191" y="273" width="2" height="2" fill="#F4EFE6" opacity="0.069"/>
    <rect x="130" y="485" width="1" height="1" fill="#F4EFE6" opacity="0.086"/>
    <rect x="422" y="224" width="2" height="2" fill="#F4EFE6" opacity="0.086"/>
    <rect x="924" y="221" width="1" height="1" fill="#F4EFE6" opacity="0.049"/>
    <rect x="960" y="594" width="1" height="1" fill="#F4EFE6" opacity="0.076"/>
    <rect x="842" y="548" width="1" height="1" fill="#F4EFE6" opacity="0.085"/>
    <rect x="512" y="70" width="1" height="1" fill="#F4EFE6" opacity="0.054"/>
    <rect x="354" y="558" width="1" height="1" fill="#F4EFE6" opacity="0.055"/>
    <rect x="1157" y="189" width="1" height="1" fill="#F4EFE6" opacity="0.058"/>
  </g>

  <!-- Ombre d'encre décalée -->
  <text x="753.7645433970752" y="354.4800645411059" class="title" font-size="240"
        fill="#C73E3A" fill-opacity="0.85" text-anchor="middle" dominant-baseline="middle">SOCIOLOGIE</text>

  <!-- Mot principal -->
  <text x="750.0" y="348.0" class="title" font-size="240"
        fill="#F4EFE6" text-anchor="middle" dominant-baseline="middle">SOCIOLOGIE</text>

  <!-- Signature : ligne + point -->
  <line x1="180.0" y1="468.0" x2="480.0" y2="468.0" stroke="#C73E3A" stroke-width="6"/>
  <circle cx="1410.0" cy="108.0" r="12" fill="#C73E3A"/>

  <!-- Clé discrète en coin -->
  <text x="1460" y="570" font-family="ui-monospace, SFMono-Regular, Menlo, monospace" font-size="18" font-weight="500" fill="#F4EFE6" fill-opacity="0.55" text-anchor="end" letter-spacing="2">SOCIOLOGIE</text>
</svg>
